<mxfile host="app.diagrams.net" modified="2023-06-17T08:19:07.232Z" agent="Mozilla/5.0 (Windows NT 10.0; Win64; x64) AppleWebKit/537.36 (KHTML, like Gecko) Chrome/113.0.0.0 Safari/537.36 OPR/99.0.0.0" etag="6UqBbvSdqbOKVxIG9Laf" version="21.3.8" type="device">
  <diagram name="Seite-1" id="1Lfcv1JscwHjvBgKQqQj">
    <mxGraphModel dx="1530" dy="922" grid="1" gridSize="10" guides="1" tooltips="1" connect="1" arrows="1" fold="1" page="1" pageScale="1" pageWidth="827" pageHeight="950" math="0" shadow="0">
      <root>
        <mxCell id="0" />
        <mxCell id="1" parent="0" />
        <mxCell id="7-Hqb6H97nyhliVRLqJK-5" value="Warehouse Manager" style="strokeWidth=1;shadow=0;dashed=0;align=center;html=1;shape=mxgraph.mockup.containers.window;align=left;verticalAlign=top;spacingLeft=8;strokeColor2=#008cff;strokeColor3=#c4c4c4;fontColor=#666666;mainText=;fontSize=17;labelBackgroundColor=none;whiteSpace=wrap;" vertex="1" parent="1">
          <mxGeometry x="25" y="60" width="1200" height="800" as="geometry" />
        </mxCell>
        <mxCell id="7-Hqb6H97nyhliVRLqJK-8" value="" style="shape=image;verticalLabelPosition=bottom;labelBackgroundColor=default;verticalAlign=top;aspect=fixed;imageAspect=0;image=data:image/png,iVBORw0KGgoAAAANSUhEUgAAAZAAAAFNCAYAAAAuHzk9AAAABmJLR0QAAAAAAAD5Q7t/AAAACXBIWXMAAAr2AAAK9gHCr3ADAAAAB3RJTUUH4AMIDTgbzaYFWQAAIABJREFUeNrsvXmcZWdd5//+Ps855y61Vy/V3elOJ50OZCMJISMDRGSNgiLbIDgoP+WnuL1c8DeCoo6zuOGMg6P8xhlHHZWfIEFcQRRRthDAkEBIQvbudKf3rura7nbuOc/z/f1xzr1V1V29d1dVJ8/79bq91HLvWe59Ps93F1UlEAgEAoGzxYRLEAgEAoEgIIFAIBAIAhIIBAKBICCBQCAQCAISCAQCgUAQkEAgEAgEAQkEAoFAEJBAIBAIBAEJBAKBQBCQQCAQCASCgAQC54se93cg8EwkCpcgsBYWY1V36R24GKT4B6ogEu5lIAhIIHBRabfm+MqH/5dmWRtEmDv4JHNHDqz5BdghJAJWBCswcc1zue2Hf1lQRYJ6BIKABAIX1rJYblnVbvqVuU/9LnmziaJUk5h1ydr3pnoPe+ZyGrliEKYe/DL1dZv1ljf9mJzsXAOBpzMS2rkHLo56KO32HI99+i+0MncIzVK6rTnc/CR5p03z0bvB5X2pUV29BViB2BZuKK+g5cEIggBOtTg2gdwLu6czPAIoPs+4/o0/wm0/+itiVFGRICSBICCBwPlaHp/73V/S++/4bSYGIkbqESCFq0cK09f3V1q5CPv307yvBdAygiHCPz0+z8bhiIl6xPhQDedy5tspjcywYySiF6ExOOa6hoONLogptdJz2zt/k+u/7XtFUBRBCDZJ4OlPcGEFLvyuBLj/7z6g99/x34nihIYKlb5alAurSH+R1yKMfl6v1xOC3AudLEeMwZ5ic2StwRqPIHiUli8sEOcVAzgUFDre03CK6z+XQYwyWLE0Ug8CBuHO3/xpWpNH9Zu+56dFgiUSCAISCJz9pl9FmdrzmP7L7/wsNqkAylBicLr0B42cu9Whi4LWquCAzCmt1JH7HBCqsZ7UDhERVHMcHmMsKiCRYIxZEsgv7AhFdcGu6L3mSKVwcDVSLX7fWu77wK8yuGmrXveK7zqjkLqG4HvgUt8sBhdW4IJoR5nGqsAdP/oynX38ATzCWE1IIoMcl+dqzLkEzRe5hdQz11Vy53Fe8coSwRitCLUoWlZAVJXU+SUy4QGvSoQwMljFe0+zk3KwDVcOx+SL5E7LP4x45tPi0Tt5W6+z8+VvwufulGeRDI/yzW//xaAegWCBBAI9bfjkb/y4Hnv4K0hUoxrTF4/zdun0BUjp5sqBuRwrniS29GIrsUC9YhiKFGMsiV0uDqEYsYg3NHOlnWXkEhN5jxNBEWZbXQaT8ve8RwufVv+pioC64jEMJxZFaaZ54YrrtDjw93+El1PYV6rUJi6Ht/9ieOMEgoAEAgC77/ms7vrUHdi4hogwUjVFMPkCxANUBKPK0TbMtXO8ghPLcASD1hJbT2QMlM4m7xWsLKtDKsVP1WOlHsc4D7kKrUzp5IWFMp8W4uPVlHbP8WJUZmEBQwmoWprdQmWiWMCf2pKKbfjoBYKABAJ9X/5Dn/tbZtKcemTYOmj7Vdrn/LxQur6KhX//vKOdOhDBGGG0KozFhihS1Jv+wi4UmVFg0eV9WIgUQgNgDRgValVoO2G6I6h6RAzDSY73BhF/QsxCkJ6OMFoxiHq63lOPIjiVa1ihFgXvVSAISCDQd189+MmPYLQILhvLebX3WIgzKI2ucqTpyV0Ra6jEnnXVGGug7R0DajCLoh2K4MXQyE4UMBHFiBKLIbalQJUi5dSSWGFDHWY7SidX6nFE2s1JbISxbtlzUlEcynAlopk7DOBPd+J6+gugshC4PxshvzC7guMvXUhLDgQBCVwcCeGRez6n6dHDRIND1CuCiDmvRUdUUQNHW7BvJmMo8YhEDMfCaC3B4VEE44XMGZJIcT7C9X1HhZVxwkqtRTFgF0UyIYk8sTFEaoqfV8UC62qWRqY00hxQmpkjUUslAlUpn1sWLBEFbzyDiaFq9ZQeLFUhtor3GS5tLavIplrHEvUv4WmvZCkeWZbi8i721D40TFJHjCXPuqjLEInwPt0BsksEjInBmiJeZIq/z05wjvua9t8qvcNdyOQ+m7dI/3qcnbgGgoAE1jD3fvh/EFVqAAxXZOlqcU4bYCHLPE8ca+FUqDrLlhFDYgRfrj5GtajlM5B5g4pb5MSSU1pMWvqeUmdJnWLFU7cGa3rbfxiIoWJiJts5mVfybiE2xnDi8lUWJqrprYgnf30jSnf6EP/8Ey/R5VxdYiwTt72W697878TIGVoWIhx++Cv6yAd+lXTmcBmzOcXV3focWq0W6ewktGaRmoVsum9eRUkFWx1A4ioSJSS1MSoj60gGxkmGxqiNTxDVR7nsuhdIrT60/OnKSf69yGrtfb3VabP/vs/o7O570aOP47MOYsDaKoPbrqWy9Ua23fptYiUYRGtq6xjSeAPnS3NuZsfvveXGJ7qNNnGkXDUeo6dMQzqzNN6HjraZSR0GYetQhdGKJ7Kmv3jExmJMWaNxvq4bVbwYBowjsbZwbSFkQMc7JhtFDMRay2gVPObEDbeCNcpwHJW/f/JdtPPKTDdf9rgVUO+Ih8Z4/s/+f4xfc5NYG5/UbZXOH/v1r/3+e9598J/uQCrVM9iZK60sw2MRMVSMgEmJ4/ny0gr1ahUVh/riNTyKquJyxTtwOFQ9+yc9w1u2cNlNL2HbzS8jGRxF/VL3XmPqMGiO77boTB/GWqF97BDduSM0jx2hMXOMSvMAgzEYK0iUEIkDsYAH7xDvaXZg9AVv4Lp/+yuMbb5ajC38pKFoMwhI4BJFVdlz7+f0jp95Cz7L2DISMVIR/GmWsZMJiGpRZLh7tsOBOYeKZ0M1ZrQSo6IMRYq1QmxN+RwXZivaC9irGGLxDFjBqdDretVMYaaTgzFUI2EgkROsEFUwRhmKzGljHDlKO81PHSRSj1fPuhu/hQ033ras2DQOP8Whuz5OPncEiZIzPl/ni+7CglCNAEmJ4rnSPUdZBHriVTI+A/WoSXAS8fknOuBz6tZz1ZiSmIXbYcuGA8YUg4fEgCk7Gbcyy1ymiBjqJsOK0Fl/HfPrn0Na34SLB/FiqXRnGGjuY3TmIYaPfQOn0MYwcM3L2PbG/8AVN7xIiiMLLq0gIIFLTjxEhL//f39J7/uz90Mk7ByNMbI0RnCmAlKIh2EuzfnG0Q5eiyD2liFbuK20CIJvGKgi4i+SD6OoPBcjxAasOpRi4Zts5XTLisLBSkTcTxRYqFC3ovR2xic9PlEshorJz/AcFPX+JJ4r6ffkOhs6uSf3hXJWIsB0iaIGPeXLbVLIi/RyDJQ8rrNv+xvJKuNs2fsxavO7uXNXh6wsykyM8OLtQhIV7sHFh2WM6T/2TXtmOjm1SLBxncbmb+LotlfTnNrPyMF7WDd/kDxrAZ6oOsDs4BXMTtxEdcsVXLb3b5g4cieSd6DTZd13/TrXvuEnJbHV8IEMAhK4FAXk/W+6SZuH91NNLJcPmzNyJy1vgSh4w71H5ulmEBnD1uG4yLAq2+GO1SNi4aK7LVSLnliJXaiwV68cahaBecEwWpclu96egFhrTysI5qwE5MKTOcUVmkzVCmJSbDQLWlhe81SpRa6XFI11Xe573q/SHNiKaFHv8py7f5a7Hz7YFyIV5arxiJsmDLYSU6vWqdXrVGt1KrUaSb3GP9z5KNPTk9SMY/6af8NUdQcbDnyFkZnHqGsbjynv7aJoOxChdEyVxsbrOTh+DZe5PWx58s/Jc5AbX8+L3/1hSaI4fChXmDDSNnDuuw8R9j/+DT22+yEA6rGcRyyicEHcd6TJfKcIAa+vleKBoCrUYkNk5IIUJp7ByRU9sHTh+KzAaMWjGLxXplrZiZZCv1+WnvyxFj74UrRwsSIYATHFvRMjiBWcSfrdihXoVDfQHNiGcRniHV4MM+tugd4kyTKj6kDDcMttt3HzC17MNc/7V2y/5nomtl/J6KYJ/uLTj3N06ig2ijh8yzs51Ii59ut/xMTMN6hohpMIFYNXIfcLbjYVQyYG6zNGDn2NGx/6IAc6Izz8nHehyQB842P8y+/8gHrv++nfgZUhZGEFznnBB+GuD7yXuFpHgaHK+e1Hul441HKkuWfTQFS4VkoXStX0nn9l0m9EQY3S8UJFPFYEFaUWGabaSjPLiIwhdx6z6HC8GAbrVU4nE14V385WabUTtEwCEMAQAZ0iZq2FdeWp4vNW/1JH7aPE7aNkldHi2iCMHrkXWGptzc216dSGqMcx6jNwijjPJ77wMDMzh6nURjnw/J9g5JHPcsvsA/jIFi5CIxxtOvbPd5nLlDQrWsVUxFNLLNtHIrYMRuSqpCpc++THOTR/PQ9e906ue+A3mLvrT7hrZIve9vZfC6GQICCBtS8fQjdtse/Ln8PYCGss9Yiihcg5WCGqQrObkbvCdTSYxDS7HmOEgRgGBirFbneluteWLjMjSu6LmE7qBPUwFHuaeZFOPDYyykA1xpQTQ6wxjI6OgnendZHNzc2tWjfeuUaLNE2LdvQ2B2NJMIXlZWKuvHIH453BstqmuONbpv+YOyfeSosat07/DRs2Vfna7og8zfsDuLCwa/9Rbrh6G5Jm4JWp2Q733f84AwOW6VvewcQDH2NDey/eFOLTccI9B5s0MmXIGsbrEeNjMYgw1XQcmm/x2dmUocjyossHGKwIHsPGYw8RG8sjt/w8O+/+ZaY/8V/YfevtesWNLz3lVQ1dkIOABFbbfaXKoUfvU5e1UYTxWi9ufG4fTCNwpO3xqiTWEEuxcPWa5ka4FU/X7JUJqkLX0w9kR0awYnE+p+sdV42NL0wtRFDnTllF3lvAhoeHV+vu0enmdDodBKFWHUCljY0rZXt8y/zh/cQyd1wpxzQvnvoPpZxE5KIMV5RWV5Gy5b01hiefPMYNV2xCuzniPR/62N1UTU732jdRP7abDe2nihRihP3zGbuOddk8mPCCbVXGBqpUY4vYCCMQW0vXeabm29yzb45P7m5ww/qEazdUcKqsO3IfaWWEAzvewMSuv+aRP/33bL/xcygwPzdfdDOwhjgu4iPWWuIoLHtBQAKrrCDC3ge/SivtEhnLcCUq+k+di/VR+uL3zXYBoRoZxAh4LVJ3y9xQWdXTXZheaAUS42h72H14jmu3rUNzWToYSzmlG6sXD1mdnbD2z0XEMDQ0hJoYmxQy4Tzs3XMEl6TH/8aS5/AYdowLM+0E14uFeJiemoF2h7zd5Ru7j9JozxCNbqe19QVc+elfxscRIspU07NvtstzNlfYOlQDY1BVuk6JRMEIeTnga8NQjW+7tsa2AzN8dtc0cazsGK7grOWy/XfyyC0/wHos7QfuZM/X79Ro3dV8+u77QSGKI2rVKgpctW0TN+y8/IwuejEfJlgqQUACFwXvHK1MiWyxM1c5t+hEUWfhmU0dViyjlUI8nIJBqVXiYmVaJQnRMgvLSOG2EiniMa3c0+6mHJhqMzJQPatohsUTR3b1PvjWFM4pgXUbNuC0RZxUimp6lJdddTVxkkAUg7WFiSjlQwX1OZIr6h3f4jLybkaSd5nOKgz7Ju3ZGbLU8eDu/XiF9NmvZv1d/5s4jvACc6ljb6PLtRsqrB9IilgSS7PzDIvqaVTJEa7ZNIJX+MKTx1iXVBitCTnC+J4vcOiatzLxtd/ji+//Ma78oQ9hXRWDkNgYMYqK5fFHH2Hvow/o8WK+eJPQ49WvfrVYa4PLKwhI4GL5eJZO8Ds3DMoTMxlGwGrGUDJEPTasr5tyDIeu9mkWR9ArilBhwBYZS5aY/UenGa5NcKYp8QpgLPEyCQHLLVa6aFrXqepr9JTfP+7r/dcwVJIqasAmrth1G4Od2IiNE9S7osDSU6TvOo/mDhyoT/G5Q3PPYR3m96PX0YmqbHO7+da5v8RlbQ4cm8cTY0yFre4oWnbZPNZSttQTxqoxLlfUKOq0tIqkvA6+7KkmZAreF90Adm4YYLLR5d4jLV66fQBBGT7yAHuu/27G6x/BHHmQf/yrD3HLy96EGMHjyPMUizI1M01nfvqE62uMwTm35NrPNBq/PjQw8LNJcHkFAQmsYUsGwxPTHVKnDNdijPFMDEaIQIzHq2G1N4BlqyuMFHLmFOpWmMo9++ZTnqVFTrwu2skaTjIWpLRirDEnSGPFCH/yaIYxhiMtzwsnLM/dGIEWFfG75ywfe6pDhGDEMFIp0otfu90SW2HPvOVv9y58f7RSvMJrLo+oxYvlRAqbTj1OwTmHuiJ3Voyh1ulCpwve4fIcXI7mDu+Kh3OOPPe43JF5z98PvYJUHZOHHifetp1/sTdz3eQnmDrapL55G6PpdFGSjtJxhXtv40BcxJVE8F7AaCESLseLAhEmScic4L3De99/PGt9jb2zbQ43MiYGIxIjbNjzeebX38LgU5+h9dSDDI9+P2IMnW6LxlyKB7pZxrFjx07qpuwJuKqy/u1/9O6//rlvf/d33rozmB9BQAJrFQVSB83cMOKg0VW8eqwUbhaR87FvLtAxlvUb87nD+0JMOk5oZw5jfDnzveyflWd450hdxkClRnTcDlZE6Ha77N47eYK10VHhA0+s46pal6c6Md841uGn5yfpaoSgfKNV4TMHBkEEK0IkOakKDxxp89aNczzQ+z6CESGWnFQN9x9u8L2bZvuz6Y1VnFfAc2x6BkwbiWb7O/6xTFADzuV4LQTDuWIRz/O86I/li4U2U2FuZBSDZXR8FEF5aOQ29sRXUX9DG6mPU7n/w/TGB7c7XYYrRfdj5xVjDeqLmFCWO1oKldiSVWKq3S42TsjL7zvnUFVGKpaJmmGq45kYAC+W4f1fZvrZLyHe+3lkbjfrhscw1jDfjJifLTLenFc6nc4J7qu+a9E5jPd4hNGozsOPH+I7rtm0Ngz+eh0xa6t0LwhIYA0piUOlyLp5dDpnU90yUjVL6ixW1wIxqDe98SFF0oAaXA57Dx5EnMfpUptjaChn4+hoOeBqgVyh67IlAmIEPj89TGLKlvHA3nbE/lQYtd3i91yEMxAtyngTFe6ZrfGmdcdwzuBk6fdBuWeuyus3HCNSLZIWnCnawwBHpiYR08XGzb5QNxqtBeHU4lz9omLIvrtNHapCtq2KEcPA4CjOFY7HZm0LcV3A51SaM2VSgZArDEbF66sUbVqMQiZCs+sZrQpp7khzR0MsiekQV6r91/XeoyJcPlrh8WNZ6V6E0W6TA1QYVGWDzDC6cQBrI7IjaXGsFJZWlmUnugjL+7vpqmtZt249AO97PsAsf/IPn10TpYkvfu617NixY01ZQ0FAAmsQodnx7M0911cqa0JAFmylhXW5l2WlKN55BEXM0i69jUaTRqO57LMtDhgrkHvlsVZlSZ/fRODOmRFet36KfHHblMVHJVDF4cTRay5xfCSkahQrOahFRMi9I/fFz8w25pEoI0kWduZpm0UDO05+OSYHn82hiRfiJEYo3EuySLjoDezKm/3qfhsZIitlqYz040uznYxKHBWdjsuJkaqOzBu67TZJHPcXe4cykEQYUsAUry2FCy7XmA06ye4n9iA2ot1u9691z4Ja9nRk4Vwf+PrXOXbsGC9+yUvCxzEISODSsUJ0kYysbdezOW6BXXYkxhkGbwSl4SIOZRGqZaV6+RoPt2OaGlERV8iVj1DjcWXnYoA3bpzBqClErZzQqLii0lzhDRumiLRX7gi5hzwvCjPnWl1UcjI6C+eggpecTm5OmY7cigfoDD0bKbsWn/RalfdWRIhEEF3Iq9PSmmt2hTjS/rQp6c23V6WVK0bcot8Ar2CNIL3hYupwJsE5Tw7s3fsUiCGKYpJKXL6OLhG5xS4sXbRTiaLoDHqaBYKABALn5di6MJppBQ50K2yrZBiE8dhRMWWrEVGamVBJoBbBVdW0yLYyQqyeTA1fb9a4spYRWRiLc4RCZBKKGMVn54bYVs8ZNXm5KNOfG1y8fk4SL7h2bNnoZDg+dZt0nfw82Rcf4hsveR82T096SZytIi4FtGjFL0K2qFpfpGiRP9nMGa5USvuliH9NtR0V0XI2/UKmmvOeJLL0xoN1xaI+x3nP7k6dK9MWYgyqFZJKvMglV4jIKfYuXHPddeHtHQQkcKktxVJWm4sspO8qRaXzWjBIFtqbn+5wTj+horcQCpCI8umZAY50Y6Do97QvjfqZXV9v1XlZMkc7Fx5PLREGYywRGV1vcBrTcZbbRuc5lhkiFGNiYjJSL3hiPnhoHT+65fBJz8uXZyUU/9ZeYoDoKW+ccbOltbD8GStCNxmGziwAFVMUjmY9C06LmE89UfbOOh6d6nD5cIyKcKRRTIO8cjghV4d4wRoD6ml0uwwmC1ZCSyMsSleFKbuJocNFttXg2CiDQ8PF+ehCqvAJriz1tNtNpqaK/35t3yzPve4qbty6YU18RrZPTKw5kzwISGANuK2KBcsDqfO0ncE5mEsV55RIzClbg6yUcjjnme7kGCNEosXCfJK5H4ogqqT+uK1t//mUSs9FIsq+LOJgGpMY31+Ge7OZBPjq3CC3j00XA5oETNlu3tCr8VMms4RmXuzSF6/5ImBVmXGGudwyFPl+QLvnDlI9sTX3mWa/KYK4LgsjzpdKiYjQGZyAzlOgSmQskYE096jahTnpDq5dV2Ff03HXvg7WwFWjVbYMCTke64ram9w7LEKzC6M1QAziHbPrrkHm9+Gdoy01OmkTUah2K4AUbr3S8pifn6dSOXFo1sFHH+yf059OX8Ptr9jBK267NqTxBgEJrNk3oVESEzHfzenmOSNVi9cilfJQS7lyRHC9bf8qkrrC3eOd4gzsn81Jc8dovejbtDRUUCzR7a5bVj+MXRAQAe6eGyASxXm4frDDWJQxbGPa3rAnjZnKDI+3B05RVClYcmr25N83eOpl14ALW5upWNfB2RrWgHMG6ccrCiVqrL8Gjt6NiimSedUzNjDA0UYbowtC4xW2Dgpbh8rRvGXnX8qYkHqPEaHlBGsNw0lRmOjyjNmrbyf68vvJvDB81c0cOniwyNiywvaytiNNO6RpSpIky7qxFl+vd337Dbz42s3hA3oKwjyQwIU0JM4Jh3Dzpgjni6aFrdTRqxnYP5f2O2istottrufiF6XjDGnmcHi2D1UWb9n7F0NPttwv8sapKl0v7OlUEGBTVXnrxCSvGGvwXZuO8b2bJ8m9ITbKnbODy0xi72VwwavWzWGWKV1UIFN4zdg8keiiYYl6wW68cV3ytMtDX/sqxpSTqrxDy0e+7WYOd+PSJVdkq3lNGa5WikC26iIXoUE9OFfM93C+mFilWs77EEPL54xXDcYIKsL00HYiP09+eDfHugkv/LbXcWjvfg7t3c/c1LGit1p5xr16llPNbAHlP73pRXL5hhEJ80WCBRK4CDjvcF7J1fd3kee2AClXjVWoRy1yrxxLPZuj4gPfzIoeWYPJKu51FHIvpHlObxL6TLtL0b3cMjF44pwSESHNPXMdt7z4qTDbLoLWHTUY75iIlGuiWZ6Y9vRq2C3K9dVZZlyVdpZztJWzyeRYA6JtqqZoNX9l1GQkb3Egr57wfcrvj7kWe2eKg6lZoRIX63bkTVHjwrn2MvNE3TmigSGefdNz8aqMHL2XLY98gCdnhXv2e4avuhF53v/F+L2/SxxXyB1UIkPNCBLVmJ1r94eHLRgusiAqFNlk1gpt56gaYTCxRSaXdxy74sV0vvCHpF142U+8l8tvuI7/MfW75HnO+k0b8N6TuZznv/A2XvuqV/af/1TtZ6LIFl2GJcxbDwISuOCL6vi2Z9F2RTbMZOqYqBs8Z/9h09Jr/qzxhAcnO3RypZYUfnJB6bocSFbnNMu2I/O569sTXpX5rDjHzYMRYgV1ZVRh0annTvAqJ42B9L4e47l94NDC7y3qG5krPL+2tPXG5qHmsvej42CdafOqofby3/d904iWETTvpdBmVAxU+nt0OalpqcdZUMUFcazf8wn2Xf8DiDqMS9n8yIcwWZOdA/DFNhy97zOMX/ciDo9dz2WtR8ELja5htOIZEsfQxlH2Tc0hi6yRBRERjEK1EpFmjgihmhS2llHloBlnXiK6MwepbNjG7f/2hyTPPb/wnnerV2V4ZIStl29H1TNUr101Ojy46+wEMohHEJDABffpbL/+FqJKFZe2eXK2zZaBAdSffbaUUOT0XzUW842pFGugYilrGYRkldo39LKkvCoz7RzBgCiZU3JXxGQGYqHRLfpiGdElbc+zcpjJ2XZyFTnu4pzhRZQz/b4oeeZomCJZNzdAVASpez9spEgf7h2/lMIii4VkURfbkYN3UZ/dRbe2nvr0o4j25r0Lt++Ajz0W8ehH34f5N+8i+upeNsddvHrmMmGoUqXi2ly1oUYrE3IHmctL8fWgisHTzR2xFWKRoi8ZnqlojKnn/zDtv/sVJMt54ff8HIglSSJe8fKXyKnua+D8CTGQwDkztn6TjF++E/GeYx2hnZ97qq0C62qGxEo5r1vKImYljlbpbVpmM021YTr1zGQOp8pcWhS+RbZYUCfnUvbOpEy2fFFfUS6dmctPGbtZPde60HGGZldpdD3NLrS6ynzHlw/HfOpopJ5W5ml2He1caedK13vyJTGLwg2kYok7k9SnH+61aSzPUdkwAFeOWdJulyc/9xGmXvkLTLlq4fxyntlmm9nckjnB+pTEdRjQjCoZCTlWcxDBWNtPSxOU6Txh33PfztG//VW6s0cwW2/mld/9I2JOIw5BPIIFElh9DxYCvPLtP8Uf/sSbSWoDHGxlXD5kORcVEZThasxgYso4gxYTCL1iZeVmoR/vupjvOvbNd4s6FIXJDuydzahYZdBadqyvLFGDnih4VSaGKssesgCZhz3T2aolB3RyT9t5BEPF5qhxpL6wM1TAimJUiga6AlY8UWmBFZ2EFYvvD10yKJEpzCcRwaosck/Ci7YJhxow+eSDPPiR99K9/ftJn/hnJqa+jo0rdNKUdgpxZLHWYjHkmuOd4vHFqGTKyvs85cDItRy+7juZvvNwnJyUAAAgAElEQVT/kM0fpb5hJz//x5+RnmEUNGKFPiNnOsMgEDiZivzY88ZVvGO8HvPcibhYeuXUC745zi2lpTn8wNGU+492uGY8KbNz4NbLBsm9W7GdYy/ukXvhkakOuev5/j27ph0dp3gn3L5zkI31czumuczzFw/NsTrGlVC1Qj02gKNiLfXEkSTtom4QwRrBaJEyW4mkiMsYjym7/IpRjBpsaQ0YU7RdMVJ0prLGF/NSyrqVyBTZVX/5kNLsZtjaMDd+73uoH93Npof+inXVCCUr3gVyoommZWXMXOp4cud34DftZP8dv4Cow8Uj/Oc/v5vN23ZIrw7lQmw2/uijH1/y/+9747eHz3wQkMCFFpA/eM8P6L2fuIM4NnzzZVWskdOG0s2ycQ0ld8JfPTrHzrGicV5khJs31cnVr2gwU1B2T+fMpEXHXCNwtKUcauQoyk2b6ty0ISY/x/KU+czz0YfmiO3qbJW7HowXjClm0NdjRxJ36BUXRmWV+BVjhqvGhNm28LWjDksx1qMoYCwsDzGl1YEvBMQUvbgKUSl+LpJiTG3XG750QDnWyjGqbLnlFazf+VzW24yB6Seozu6l0pgsLB0K0ekOrqczso3OuquZ1Jj53fcw/8Cn8Zlj+/O+hXf+1kfuGVu34dbziW0cLxanI4hJcGEFzn+VRdVz08tfw1c/eQedHOYyw3hFz9G/L+TqqS0Sl9WKf6hCEimJt8WMigwOzOdYgdFaxHXroqKbrZzJcy2t+kYWlRYoZdn4ygpJlnvSHMBjjWE+dcVM9LLtuRFPJRKeXdTpUa8IeQYH2oWoC8W0QCPar4QvrA/FGIeIYjH9YLw1EFFYLleNOupRxL45z/77Ps3++/6J+sA6ttz6rWy8+fuIR8aLtHAFrKU1tZ/ZR+5m8hN/jOvMYcXTzRyv/uF/z/f91H8U5dySFc5WNI7/3SAiwQIJnLerRziy70n9te/612TtNuvqMbdujsm9nHJxXc4CEeBQM+erh1M21Q2qylgtYsdoFYdbQQukqAifanUxYnBe+dLBDs1uMR78NVcPUj8LYVOF2bZnKs2Z63jmUk8jzzEYZrpKo+uKzKIVvHcdV7Rz17LaW4xHpNtvsOi9UjNw8yYYTqDdhXsPFgkFZZ1dP9YgwMBIMUkybTrconEbRiCy9FOcC5GBOIbMQTsrMvBkkasrToRKfQRjIW/M4LPie7nChssmeMGr3sxrvv+n2Lz1SinmfMhZi/D5iMfFtkR27VqaZbxjx45ggQSehruPUiE2br1CRie26dHdjzDZdHRdgjXntqtupkI9WticV4xBxbMosWdFTKtcF2o+iniwQSTnm7eNMBBpf9E7U0ESo4wnwnjFAhGq8SJ3lvLRx5qspDcriSo4l2Px/ZRc08twEsOmy69k49btjG2/mg0TWxjfMMFLxzcwNDbGhi3bSeKEDROXnXYDKiIc2POYqrFLrsfhA/uWFPGljTnuuetT3PXJjzF9+CnSzhwGcCpsu+Zarn3ei/i27/4hnnXDc4scvX6RoSzafqyMeLRySBVy4Df+7J/oVdAAvOstt52XaEy3ujSaTbKs6FQcx5bp1sOM1ZM1KSbBAglcED7/Vx/QD/zc24nqA9ywPmbLYHTKOMhyFogRuHt/SuYdG+oRtVioJYbxil1Z/QDamWe+jH/kTrnrQMrmgZgXbquWO+8zPxpVZS71eLe8zyse2cjOH34fPs9WzD933S3/6iM2Sr7rwN5dOnXoIIMjw8zPTSMIURxz6zffLmdyXqe6DloWLZ5LXCLLuoixRMvM5Djd677zne886fduuu0V53zZnC87tCg4hZTCKvLUOL7Q9WyEZNeuXRyeaXBkapp2u0Oa5X1rVIBKHFGrVdm4boyJ0cE1JSJBQAIXxOWjCO+4saqVqML6gYSbN9iycd7ZCcind7fZPCTsHK9iy4aEC3PRV+x0aGaOZjcvWpI4z/2HM1797CEWJtOeuYV1OgEZ2nwFb/j9L62pxNOFRXrhPBdHcuSMr8HJuhUv/Wr/uZez7Bb98Kma5J9KOHqMbtvB2Nh6hoeHz1Zz+4fiS/ddptChEBNliOPL6s5ERHbt2sWuA5NMHpumk+Wn/NlqHLF+fIwdW9avGREJhYSBC7DYFB/pm176GpzAsU6GU7MwzvSMHUfQzIXEChbFi/TFY0W3OaJL3Cu5F269rF4URS/ZGz59Wc41dPKvnO6unv6rC63fT/3D5yMeEDM4OEwcxyfMRT8T8egdiimbe1qBmF7b/f6Erj6/8Wd3npF4HDp69LTiAdDJcg4dPcquA5MnxEmCgAQu4cWm+Pt5r3g9eQ7zHc/dB5pE1qJn28ZDHfOZ0iznZfcb663sGZHr0v1xXPZrD32R1h5nJh4Qj28gSSpYW8yFP3U796Xv78UdoXsiYsuHERCWF4CTiUjPbTV5bLqosTlDcg+Tx6Y5PNNYEyISBCRwwdw+N7/sO2Xd5TvBOw624NHJtHRL6Bk9gVfIvAd1PHy0zTeOtIqeU6vkwqE/fVCCcFzi4gEwPDzQr5xfbib6cjy1Zw9P7dlzwmZJFi2gRZSmw9nayUemps/I8ljOEjkyNR0skMDTSD9EqQ0M8vMf/NQriYr4xcNTGWnmF/nST7e7EuKoFzAX/Onnxl488VjS60n6o2UvsOYSZk2sHNbakxSwnpxdu3aRnsTd1bdMWDziWM/ICpludWm3O+d8Lu12h+lWNwhI4OlB0fxQGRoa+9SP/JffBwxOlTv3t8uxr6deLBXoeiWxDlEL6CLf8oobU3jx/Tnsmfdgy7nsF1CcrIBHaeZBRS629XG6e7J0mNQC3/LSl7Jz584Lety7du2i0WySnoP10SPNchrN5qq7sYKABC6ciJSdWb/p9tfL825/PS7v0ux67j3cBV/MNT+lBeIcFSP9mXqmHH+6aoJYiljmIeH0x38GT4oYQY0wneY8Mpny1YMpu6fS8OZZAXqTCM9I5M/WkjxLssyd19ZIy+dYbUIhYeAiiAj82G/+Hzm6f7fufeAeDsxlHB6ybBqM8Cdt/yF0PcTW9HfoZpVG2R6fPOa06Ot0Jlmr6pXW8Q2yFBrdYjrhbNcxn3pyLxjxNBptrnnOC8MbZwWsj7m5JiMj431L45Q1LKetcSneI157AlIvGz4+swgCErgYSzAgfO8v/jfe+7ZvJc+6fGl/m1fvHCIxC37j5RbfxdXYRlYxWVbLrCuBLPNYe3pbSICWE/7+iSaJWaogkRUidf325pEoc87yf//2R7jtVa8LEfoVIDt2lO7ERqIoWjLO9mRCcXxNih43mdEvemjfmXNmtzKOLWcWGTz5ey2ObRCQwNPUCkG56vpb5HU//ov6wV9+J0ltgL97tIkpZwLF1iLiESAxhiQSmplnrLJoKp5ZnclxRQykrKJWmMrgrr3NMzoW5xUrisMv+rAvzMZAlEa7y3W3v5G3vetX2bx1u6Dl7JPw1rnYEkKjMUccJ/1g+uKg+nL3dzlvlmehGj3vWyFnfvd27NjBdOthKnF0TllYUFSnDw4MrHpBYRCQwMURkfID9erv+wmZ3LdXP/3nf0SeNTGu8EupF9QUAtLGQ1r0nxqrLLwlo1VaUQsXR7nPE087hWZ/ROuZ7Q51iXCA0aJz8ZEs4ef+8G+45YUvkcWukiAeK8PMU7uw1jI6uo4oivrCsVg8TmqRlA9XikemPetj8KzdV2P1hFqtSidrnNN51GrVfn+sICCBpyW9Jn1v+4X/Km/7hf9a7tA9xw4f0H/3qptpt1skUcTGgQgBurkuchko1qy8id5vva4LFedd5zDLVBovh1el3UlP0JpWJeGbXvv9vPc9vyaDQ0MLwhFG550155t9NfXkY3AFDA+PEUVRv7Bw8f0QERC75I733FU9y8MBXgfxZ+m+6rFx3RjtduesrZBqHLFx3diauBdBQAIX0QopXDOLmyhZYxgcGZO3/NL79dGP/zFjh77GZYOCwXCk43lociEjKbYrPcpWywrlvL+IOO9pRoOYSvUMflsZHF7H9/3gT5Jl6RJRet6LXsLWK3eIERNmrq4Bpp58jM6m7YyMDJMkVZy1ZYW54FUQ74kHBpcMR+zHPUq3lefcxWPHjh2waxfN1hiHjh4942r0yMD68bXTVDEISOCiSogs/myVf9fqAyQHHmD8qbvwtkrqYwQhdfQFQyliIysZRleKCXuL25jMdzr82L//77zsjW+9AEUgC3MxgnysPs1De2geAurjHDbDfQFpOKip4dYbB5cG0Skz9CiaJypn30r+BBEpuVSbKQYBCawKd37qE1wmCc47uhpj1JOqLDE4YrPCBXaqqBH8opftdByDGzZcKD0NwrEWaR3jEwcGGC3/O1fep5tvLOdU9RkqXVrnJxzLichAvXpJtnMPAhJYcY4dO/aOxvQkUlsUaxCh23VLYgKRWfk6V1FZqJwHOrkyvmFzuGnPAGYWmxoAjHDicOYLvwXoubMmRgeXHSg1ODCwZgdKBQEJrDhH9u35X520BbWljcG7zi/MfVCI7Qrv18uXW1yt3Eodm7ZeEQyHZywrc+t7wrBr165ls6vW6ljbICCBFWfqyEHyToqyNDCdeumLhwKxKH4FnT6iAsb3G3MLkHplcGgo3LTAigrJpULohRVYcVzWLWaKL168BTLvEBQRpRrJkmrhlaBwV5j+1EFFiYcnjnNrBFab973vfeEiBAEJBJbST2VUiETKjKUVtEAWDxkq046HN19WHJIEBQkEgoAE1iQCZIuS4ePYrMquvx80VUHVMTC2rji+oB+BQBCQwNqlW04f9Ag1WR2vUe561kYxIXFi29WlnoQ4+loiuLGCgAQCpfkhdDMte18VkzhWq9GoVzBlIaHzwuD4xr6FFAgEgoAEVhkbxRhZmsI7kwnJou6JcWRWxQLxquiidN7xrZeHGxYInISQxhtYcdZvuoxKpbJEINpZhpFeF1wlsquzt/Hq6UXQVT3D6zeGG/YMYPrDP33C15abZR4IFkhgldl42bb3xtXaQkMIUTquaGZXZF0JibErmsLbI8eAFgWNDsP4+i3lcYQo+lrjQsVBTvY873rLbRfk+S/U8wQBCQSAsfF1Pzs8vqHc6VtEhdS5vqAYAYNfhcCDLqTxKsSVGiZJ+qIWCASCgATWAFff9u3cvWeS/XNdDjdyGmneX6OLuQwrLR30e3ZL2S5XogQbV8LNehpbIaf7/fO1Hp7O1kcQkMCqoMAbf/w98rbf+gse79T43OPTzLZ9f4JfEWBfyTkgC0emi/qt+qhKXAkC8nQVkTP9vXMVgae7eAQBCawKAkRRwgtvf6188N4D8qP/86NUBgb637dFMARZwRiIqOLF9kVLELyxRHHlveGOPf1E5Gx//mzF4JkgHuXnJgQHA6tkiWgRQH/ysUf1f/7gy6m7NgC1SLh6fRWzgpP7FEW9cKzd7ds+jZFtvOMPPy/VWj3crEuIU428vRCB91NlZz1ThKNHSOMNrN7upSwcbLcaRJotmMUirIYTS3Vh+oMIZJIQxUm4UU9za+RseaaJxKkILqzAqtNuzoP39KLYxhSjZVc2ki5LGl4J4GyVKAp7rEAgWCCBNYt6T+7AlPsZ9cV8cllBG0RU8Rh6XjP1noF1YRJhIBAskMCap6i00OOMjhW0QERQXegGrOqpjk+EGxMIBAEJBE6P8wsV58551m3dES5KIBAEJBA4PX6RxyxNHcPj68NFCQSCgATW9JtQzJpoFOJ8ORcdaDrHxLYrw80JBIKABNYySbWGtdEaaFe40Mq93XWMbdwUbk4gEAQksNYpmogIXhf6UukKSooAznt6bRO7acb4lsskdOENBE5OSOMNrAkLJDcGsiILKnW9ZXxlF+9MAS0ywbpJnaqNw80JBIIFEljLDI2Ok/uFvUzufZlSu1JtTMq/VRERVKEWakACgSAggbXP8NiYdG3Sl4vcg+rKWSCC4nSppAyt3xJuTCAQBCSw1qnXB3BRraw8h9wpuejiziIXHa9L/z08cVm4MYFAEJDApcDEldfgvQOFXLUs6lup5F4h99p/Ne896y67PNyUQCAISOBSYNsNt+By329o2O6uoH4o+EVjDbxXhteHFN5AIAhI4JLgquuup50WqiFAs5utXHGh6BIBcV5ZvzVYIIFAEJDAJcHOG25lLu3NBBHmc13Rbu6LB6s5hZF1wQIJBIKABC4JtmzeIs5WAEVEaXaLmMTKTMwUnF/0oYhiaoPDhGGdgUAQkMAlwvptV6FapPC2M98v6rvo1kdPqMq6c5tUsHENkaAggUAQkMAlwearruuLhgDt3LEikfSF3imIemxcx8QxrIkWj4FAEJBA4PQCcuXOfj2GCDTzlXp7KtYIcWSp2gibRMRhFnogEAQkcOmwYev2JdlQra5fkdcVEeoW6lZIIiFpz5A2ZkIfxUAgCEjgUmFobH25ZhcB9E6+cq8txvSD5pp1OPbU48GDFQgEAQlcEiiMbtyCjSuoGkBI83zFMqGMMfRMjsRa9j74lXBPAoEgIIFLAoH1m7di42o/8ypTv2IzQWRRuldkDU/d98VC10IubyAQBCSw5g0QhkZHpW0NIoKgZN4saXJ40Y9ApBAMIxx98EsnCEsgEAgCEliTBogyODiMNzVEPQp4pwsTClfgCKKyjQoII2Ts2/tYMD8CgSAggUtBQgBGt12N1xwQMu9xgOjKOLIWFw6ODyTsuueucFsCgSAggbNBVWk15mk35+mUj7TVIG016Lbny0eDrD1Pt1U80tY8nVbjvGMG2559I965/kDbbuZKN9LFlxAx0j//OEnYf/+XwpshEDgFYSb6M0QQzsaXLyL8zFteqVuSjI11Q2RgJBGsCAOVqAxyK0Y9nbzoXjudK22p8YN/8Fk5n9fefs0NPNDJqQ9WQKHR9YxWpT9s6qJfIyn6AYtYWk89XBapa//rgUAgCMgzCuc9B+6/U+/9lbdiq/WT/pwHHjiU4oGN7SaZKAcQnFeu3VBhIDY0tQg2U8576i2pVQcuzfiTN12pgpCnLd760T1SiStndazX3Pw8PpTm1AeL5250BSOeXC/u8i29AHr5Kh7Qw4/y6Cc/qDtf/iaxNg5vpEAgCMgzj7v/+e/07973c/zruse1mydfRFXotjpcu75CNBAjAjMdx64ZvxBe7lkTS+0MhHLn3moXX+q0EDl7D+n2K6+W1NMPnTcyB8T0Fesii0jfWaZK4pX7fuenmLzrL/S5P/MHUh8YOWuLKhB4OhNiIM8A2o15pg7vR6wprIdlHir0/12NLJXIULFCbM3ZLd2Ln/esKURj3WU7yn8KnTxHRVZuPnrRQx5FMORgLdP3f4FPv+O5euiRexSRojYl1IcEAkFAAmuJQnTWX35lsdMHcqCbeVZqulQkthQrRayhmTusNWja5p5ffD1f//33FEfWE5JAIAhI4JlKP0h8Bgv7GWVCncea2svg2rzjGnyZeWXV0MxWbqEWo8VcdhEqAq0uWBTEoOrY9/Hf47M/+XKdnzpQRGWCJRIIAhJ4eouEJ3MnBqGVosbCWEskFmuKgj5jwIop3hyqOJ+j6jm5I0sweFQ8fV+TKlF0doFnESFX5eBXPoNSuJEEaGUr01VxIb6h/fNKvVKPLLEB8R6iCo19D/CZ/+dVtNM2GuIhgSAggaczIxXLa581RNct3S2LKmosdz05zxf3tfjSUy3UK195qsldT7VpKIzVqtx2xTD1xJ60xkNViazFmoVk26g2wAe+Y5Om89OvOMPVGwX+8l1v1nRyb38RN3iazq6M9VGKgTGmfzwROR0vxNZSi4uPi/NCNnOEL//n71H1vrguwRAJBAEJPD0tEMF7d0IcQQWMghiLQREjRT6VLVw5FlDJUZeXkwLllAuvLNUDKvU6iOw6E/FAhAf+6aO6++7PENmIhXRaQzfLYAUjDouzx4arMVPNLhaHisWIwUsEGKYf/DK7P/MRlRAPCQQBCTzTkCUSU/xfTiiYO5+sKjmNsC2MH5ydOqQf+0/vKFxqojgMQjHeNnfg1CIrEG9YnKarqgxFMVPdHI8ldw6Doyo5Rhyqnnt+80eYPrhHF+pIAoEgIIHACghYseh2Ok0+/M43Yst84Wps6XYXFvJMFfFapBpfdOtDEAFTCqeIJ/OWvHRVqYKxFowFhCiu8C+//FbS9lyoUw8EAQkEVgwtFuwvfej9OrPn4dJ1ZBivQLooXpN7JcevXC3IIhtMUaoGuq600kQQVSq213zR0HzqMb7x57+tIbU3EAQkEFgx9YCHv/D3+sU/+HWgiMMMJEpsi1YiskhAVnJZLjx2nl69YD2GzPvS0QcqggGqUSEiYiKeuOO3eOLTH9HQLysQBCTw9FusocgsWvJY+J5ezNdd7jsqNOemX/HX//FH+um+cVw0bvQKUbRQ8a0KmdMVKybsqwjgy+hQ1y00dCxlBCNCZMGLYG3C/X/wS7RmJu8oDjtYIoEgIIGnASKGPKog8YkPFyeYOC4ysI5b9PxZvj388SIhBlg+C0sE9j/ytX+cnp9nOs3oek8SK+CxVtgyEJP3RUNodLnoHXmXfDDKGemF20pJPbhFQZjepaoawfucRuaZnZpmZs+jb1JCv6zAM4PQTPEZwK2verPc+qo3n/T7rwP+5N1v00c/89fY0hoQYD71VGpnLiLeewwLNRvjO24grg2c9Ocf/tJnUJfjTBGwbnRgfS1mQz0id457GxkjRayaZjdHJFmxwu++ACjERjjWzRmpxmWWWPG9rhpy5xAs3ufglSc+91dsuemF4U0XCBZI4OmFnuL/xneWWUQ9Z+XcUgtLdum6rCun97WvfvxPQQSDYNQgRhgfsOQo6weEZpaXVoAyn7Fi0QVVxRjpmxqxCMYXrrUcIXdCxwlZ5lAviCjGWDCw+x8/FN5ogSAggacfcsr/y8V5kZPs7h9/4Cs6ve9JBMEaqESevbN54TJSpRIJYsqCQoVm5k8igxfH+lAFY4SBGAYrlp1jFQ7NdvEIuSjeaz/lVwAjDhBcY4ZdX/oHXaljDQSCgASecXz2j/8bSbWOGiUxhRUivVYo5cCqgWhhBolzjty5fibUxbdCoBZDFBXutFY3Z7AS0c19ObFQlghOVMZMbDLAY3/7v0v5CHGQQBCQQOCC0mrMs+++LyM2QlHiyJDmnqF44e3ogeEK+LInlQCt3KzYkiyiZBrRzh2ZF5wKiUC+2KjQBbWJbHHs3gpzTz5Oc27yDgkGSCAISCBwoXb1RVru0Scf0k57HoBIIRHDoZZny5Dtr8sKDEaGwThiKC4aGbbzs4zJnM+xlh2GBVMct0DFKjMdhxFFzEJtSq8uRIxBvKc9c4T5A3vfFAyQQBCQQOCC7eoFFeHhu79AnqYISj2OEHEcbXu2DBbz0wXFohxuK0OJMBALo4lhOIlYkX4mpcWjgJTBdNFiJkieOTy2n+bb+1mAWlSUQ2Z5xr6vfzHc8EAQkEDgQi/Mc3MzzKSeua7HqdDOBWuUqnW9AnWeaijDcWGLKBDHlmqkrOyuvqiNEWP61saGgYTJVhcR6KrSVaXjHB3nyDzM5p5G1zE/PRludiAISCBwoWnOTIEquSqZ88ylnokhiyuDHUbgwaNdRqsRXov02bGKnlCouNJWiCpULBxpFvXpuSpplpE5Xzy8x2lxEj7Pwo0OPO0JhYSBFaM3Y7A/P6TsEp86z47RCgv9EwXU0ewWQXQQLh9L6EfTV1JERHBeaWYOp5bIOjJdKDIEi2iRPSZSCIsXyKcOhxseCBZIIHAhd/QAaacoWvz/2zv3KMvuqs5/9u+cc1/16OqufibdSboDJCExCaSTpjuBBDAKzhgQFRR1HMcZdOksHcdhZI1rZlzLwaWMf/gaRZilozgyCLMYI7IABRUSICEhgSSQBNIh6XT6ka531X2d8/vt+eOce6uqu57dVdVV1fuzuKvDrVv3nnvOqf397d9+5VlKDh/yCvTZRYfTKbyKIhqhFzGtKcjZYghxp9hQ8mek6OIrCBP1CbvghgmIYay0hLQmRos5VXkVdxCIXLaIe7EeqyrOErwZAhdaU3a5DRMQYxNzkbrGzmx5LiJogDLuonoY53Puzm2YqN2xjpMvnbD7yzABMTa3Q6CifOezf6lj33kacdGarNcnJ0a73kZEQEWInJvH48gDH532ImuuE0UNSHfcr5zrUc1FaFsQ3TABMTaLs6HztWdynHnsC6RDx1d93kZnpnmWtrsGeKwd2FHN4xui0w0MEUfbK41MmGx5JppZEQ9ZSycj73eVZcpIU6lnbZptaKvPxU/n7y5Wnxi2m84wATE2mZDIHDeAW6PboPhsn+arcycw0lL2FhXonZ8HhGu2lThZT0lDhjrlufEmsWhXhNbqgAVltBVAldQ7TjU8/Uk0twMyYx5hOjlmN5ux6bE03ksEEeG5Bz+lkeR1FfXhU2gIIMrY8aOsTX5s/hlTY8OFeAnj9Ra7+/oB3/15QDmwpcSDx+u5EVdlqAlN74jd2lWDCIrHUW+nSKGxJ6c8d++vEPTs89sRnPxf32ow7fJZTxPDBMTY4Hzh134MF0JXUDrr/Wq1ujY2rlsomFtfr4FKuUw58jQz6e6giQpePFduSRhrepwTnCovTra4or+0Np5akZY72UhxUkRkVBmoxLlMqOIigfZsfVA6sRJhqjlFT6XHbjxj02JbWJcQUblKVKoQF/9GpQouKSNrvIU1OZ5v7zSDctWA4IOblQKLgA/KZf1lQrfflHCmnuWNFld5GyuvOxECykRWtHZUpeGVA1vibsU8em5rFec6zReFrF5/yO46wwTEMFaQtJUH0VtZ4Kq+ctH+41y12VIO+JCv6tMQODnpOT2VEa1yRpZo7g2NN5UzjYxGJoAjqJBErpi0WGxb6dl/UJ15IY7W+NAtdrUNExDDWNElfm51I4G+suCZkYHVMeKi9JcS1MU0Uk8alKDw0ItTTGX5z1ctJUuUlkaH8YQAACAASURBVCrPjrYgCM0QGE89p+pKbynqTiLM04vPlr3CY3JCfXTIrrVhAmIYK8n4yAgi4FxE5ASnck52mCJ49Xzv/gqpRnSL9HB89cQUgc48jpVVEVUlqHB0uD3dTBE4NeU5src29+fp9HFMx5aEtN2wi22YgBjGii/yySf8xY5uod7sn0//e8feCgHXNejDDc+zIxlO8s5TF76dpV2vSEQ4NZnRTEPhYQSaqXLL7hrlKHRf1x045QCnaEcBO40inaN+5kW70IYJiGGsFK12g0gAFaqJK0RgAZkR2FmL2NdXyicSiiJOeORkgy+/WCcNeT3JhQTWVfMS8yzAEy81+dZICyXPFmt7iGNha1XyIpqZs9Cd0FuOqcRSTCgMuK7PImRNq0Y3TEAMY+UEpNl4lwBTIWOwp7yk3wmq3LonYbBcQlVIM48AL4xnfPLpCYabfo6+VEtwOjq+hMBkqnz5+BRD9QAqTLYDGY7xlnJ4T222W9T9T8EJlJOI/kpMkkTdvygRoTUxYhfcMAExjJUia6d/DDDVduzrXdrtpyKkwXF4XxVUaAeX11poINPA574zxeOnm9TbgVimB0Ghna2p6VRcZTqDKnZQzwLPjLb56okmIeRBcBEl88KZqYw79lVpqT8nyD/bg8l/pydxbK0kbKkK4iLq4zaV0NjcWCGhsaaMDp1kew80UtjZ42YMkZqfIuGJSqS85do+Pnu0yVCjjRC6nseTQy2+eaZJfyXhhp0lLutxqMQzXQ0AogBeAqfqyrfONJlsKU6ESuLy5pIImQ84ifi+AxUyVSiC/PNJSOcYFIgFtlZjBhIlUQuiGyYghrFi9JYi7ti3hU8eh8hB5nVWe/eFPRHwXnnjVWWeGI549MUpyvF0PZ+IMNlMue+5jFLs2NMTE53VIl4lYqKZ0sryoj+RvHAwaD5NcLQVuHZ7hWsGI9KQK5fI0gr1c6HL56jjHDJuabyGCYhhrBjp6BATPrCrWsErSxaPwpSD5DGRV24Truwb4ONPjlGJAl0Zkry+xHvPqbNmOqkqURQoCUQu3+gq5h3SUmGy6XnTy/qpxYEQ5LybE+et5wXfbtkFNzY1FgMx1pQQmmQp9FfPP/1WRQhE9CSBH7m+n2t2VBjsKdFWoZ5JsbXVfXX3IQLBg4jDO2UiDUykijqhHZQfuLaPnrgQowvsDSbOkY6dtgtumAdiGCuFNlu0VahG7rwFRLoeheCccsP2ShE5r/LceIuHT3qm2m164zypdlb2lAZG2hk1F3Ho8jJXDcR85tttXru3AoSiEclKfFHFB8GHMMewLMMwATGMZdMaO00ahJ6qFLXkF2CuZXpbq1AHrhyo8rIBz2i7ymjLn+NiB4WBsmNLxYHCl15os71X6C0XxYAr2JU40oyLMkbRMExAjFWh6CKrIhdtSkUaoFaSVRiVIaCBFKEngZ4kntc7SIMy0XRMtD13763hfVjRiYyKoFmLtN0kqlpLd2NzYr71JcR1P/rLuFovod2Ei7Qwbo0Pk62DAUuJc3zxxSkOX14m8/lc9pXWaQg480AMExBjM3Dz239JfujDT8tVb/s5nHT6N62tMfdpi6CrPn59YePuhC8832Bff4laIjMM/soSMo/P2u+yO88wATE2Pgpo4DXveq/c/f4vsu9NP4Y6QX1Y9Y/t3nBZm3omxHkT9zX/+hAYagSa3vPqnaVCzFb+OFRAGxPUh078sWJeiGECYmx0/RBFiPLRrHv2y2t+7n3y/R964md6D1y3altaIkKrMcU3v/C3+onf+Y/6D/f+FaU4InbRGjs/iqgSu4gvHW/wmstqtIJn1SJBClmrwQPvfWfXvzEhMTYborZHe4k6I8UQJ4GHP/Ae/aePfYjRyeZ0Ww5V9g8mDFYiFrP0qnk7kKF6NssgD37XQV469gKTx56iUipRKyfUyjFJHBPW+L5TIEK571ibbVXhuu0l1mAwLiHL2HX4zRx69/+UiLUWTcMwD8RYjZVDN/1VueVdvyk7b7yd4P15exmNLH8vF4XuQ9opO1ydK3ZtZefWXvpqJSLn8BrWPIgvqpxuKDjhhh0JYS3OsCoujnnpwb/jhQc/rSYehgmIsVlcEGbm0UrhFfhQPJQlB9ljB5/89hSNTBgoJ91H9tyj+MZkPiO8MKqIzK7dWKMvG0eOB4+3ePXumDRId/Ts6mqIdDevvvY7P8/U6EsP2Y1nbCasDuTSdUEYOnlM3//jd9BOM6qR5/CVW2ZtLeUNQBZfOIuCi6TbRl2L7obiYlgH+/4O4fPPN7l2MKESuQsvYDwPD03bTb76h+++5bX/6X/ZvWeYB2JsdA9EERfhswxNW/nIcQmzHk7CklbqmcJNgzHNLPDcSCvvcjtTqS4yXuFlAzGvGIzz2R0X4ZjERUwdfYTW1LgF0w0TEGOjeyDCi099jeAzyoljW63Tm0rmeCyiRUA1cYTgSUM2/eQ68rZ29kakXlclZXdJeo3Snphg6uSzKipY8ophAmJsaE48+TWC91Rj2N3jCJvUpnVbZV3E6kVRIWR1jj/890UoyCLqhgmIsUGYa8UbxckMb0EQ0YXX0HruAywzdUnnXxSRiBf+4aPrz0MzjPPEguiXCCLCf3/3v9Ghbz0GKNXYUW2OAsJ4Wzk63GJLaXaL9VSV4WbAB3jl9gpxlAek89WzEtTxzaEGXpWSBNza5DZtUC8ozzybfPYxWq0pymVrsGiYgBgbiNPHj3HqW4+DCD0lYVe1lA9ZCpBm0I7oth9XhEyVepbPtQgS0O5s8HwYlIjSbAeyAHHJ4cTkYxE3sEhc8FC202GYgBibZoXcdVVy7yMLDLc8O6sRTgTRXFuCgBZleGFWOZ6Jh2GYgBgGkCpMtgIHtpRJnOBUihoR7UqOiDIrccswDBMQw5jTS5FOdXrHURGSWElEcGJOiGGYgBjGPKhKHucQGG97TtYDsXOUIodTT+btHC2swHlPLtNZwwTEuLQMnyjtABPNjLF2ICCUXCASBwQziksSYKjtfQU9Pf2scTcVwzABMdbCyCkibpZtS33gdEOppymlWEii4ufqKNKx7MQtemIBDVz+xh/tirJhmIAYm8CyTQ88SgO0QkojzduTnGoGvPckkdCbREUT31w0Ol6HAzwCa9AkfcOeZQGJSlx+6935mVYx3TVMQIyN7nHkzQjaQRhpFkEMEWIHldiRSKCU5O0Hgxa9pEQKTwUSHHHkaPqMti2r50VQSn3b6dl15dXmtBkmIMaG9Tdyn0NwTolEcc7hyFAERz7foxS5vLXJjOCGSFFAiOLEkUTgiFjPw1o7QreQaZ/x4m6h5MqecwWf0Xvgeiq9A0ftLjRMQIwN6G0oimOw4thadaiLEIUQFBVHT9Rp8if44Oa5YTLiOMpFRxe2xxdfOKQQPcWrm9836PRvESVZjWFXCiGucssv/YH5HYYJiLEx+a5Dr+PRL93PaDMQhhVoFcZW2N0X05sIC3UZV2B7T0JvpgSys8xwbqA15J5LuChTN2Z7SyF4QhC+NdLs1q+cjRfhuZE2DqG3ItyxtzevaVnRY3Ec/JX3U632d4XNMDYD1o33EvI+Xn/PD1OKA5FAJBA7IXZC5AACToTILfAoigVF8qFMTqYfHZvoUNBonbRVLDwQdN7vhiqJy2M+JecQt7LHrVnKzjt/kL23vEkw8TBMQIyNiIhwxYFXyCtuvTNv5idnC8xSLeLiL/HBr7s0VVlAWDvq51Yh/oE4svEhNFiVpWECYmxcHwSA2+64iyzNZptJUYIuzeYHDQu+UCV/rAcFUdVZM97nfs30sTq38ttuEkUMf/VzfOfzH1NLvTI2GxYDuXR8EAC2772KoH5WJbSo4HVpxs3Lwh8hCu3Msz46uwtBpFgnzV36nX/v3DtIug29VsbQK0UWWwggkd2ChgmIsbEpV3vyVflZNjKEACxu5EIo3IxFDO362OvXcwT0XA8kdF9ZkpVsK6xF9aBw23v/H7uvPWjuh7HpsC2sS4zB7TtyEVjA1C7DoZnzTdZPTYigQReUBFXJB2R5z44bD7H1+iNE1T58u0UI2fzBIc09jOAzQtpiZi2MquLTlO0338ndf/L1u/dcd6uJh2EeiLHx2bptO17PFYNsib8fgkeK4sG5NCUIhCBEbn10C1ysxDH3vAQNnssOvpEjP/EL0poa/c0Tj933K8/97Z8w8vj9OHFzv7PEXHbXD9Fz4Aae+dNfgyjqfueb/v37ufL2eySKImucaJiAGJuDam9vYf9mFswJusQkISVGJSBhsYK7dVNR2PWK5jqitAjcqCq9AztwLqLaN/ieA0fe8p4DR97C1PjogZEnv/RMJDOlSAhJlT033yVRIaojX/mMnnn0PvqveRU3/9vfY/DKa/KimuI8iymIYQJibHS2bd8lGtA8yt0xagHVpQV5QwggG2fnM1VQcTgNc0tIyLexVJVarfecH9f6B4723PZmOVdI83dTVZyLOPKrfyEvPf+kbr/ylRKXKlYwaJiAGOuPxQzTUhr1ufjcJbkPoZg4uJgHonSSizaGeVx4VOK0EARq27Yv2Y/qPN+5Fq5UZffLX931U0w8DBMQ4+KKBXnF96yUWxEmRk9pc+jkLKVQDWw7cJPEMw2XTttPLarHAWq9PbkQdYygCr4wfIsJUF4vskgWlsB6kZi8fu/cY+k844PmUwJDoG/bjgvTKWyryjABMdbN2lkYevE5rQ8dY/hbT3DiiQd56bH7mTr5LM7NseUkkW59+c3svukwu244xMCe/fTvu0ZK1RozR0RVe7bQnhydZfxEwaPdWefzHVEowtILZjaFQNEfZf2eW1WCyyeYaKGYSal2QdfKMExAjHXFX7znndReOsr2au599CH079w+/6bM0FGGPvcMZz77IaZaGXf9t4/o5a96wyzrFlcqtCfnMoIRSxkKJYWQyDwLcV1Hvd0z5kvjlW6/LilEr2frVlMBwzAB2QQUy/ys2UCDx0XJOYZ6HrtYGEchpG1w7pwdpauveSWnKpVZW1WqMNCX5PHxQgHEOYZOHsen7cJNgRghDWF6MiF5+aGT/OeKEFTJimITUZAltAjp/H7nuwddOAW307cqb8U+OyNM0a6IqYZuS3cNUO4boNq3pfMqmr0BH6AxOU5Prdcm9BrG8jx5tbNwMXWiE4uYw2p99e8+pp/4rV/klsGEUrJ8qzZZb+H2vIzved+9V1d7pgcZNepTBJ/NaZRnWuJytcrP/rM79MwzjyMSUUmUnT0x7qw+JX2JY0tZiuC65O9TvE1QZVs1IXYLezT95STv5Fto3XiznafYzn3T0pM4yhG0szyOoWeJ4VgaCICE3M8YanqarYzDP/GLvPGnf0VC1nxXnpcVfaDIpjpQ6xs4agpiGOaBbBDxKOZWAF/72P/Q9qN/i8zwNL755NPQalEtldFl7rGrKkkSM/rcEzz5iT95pjKwk3jXAWToGFLpZf/h7xXnFr/8kXRW9AHF5VP7VKadJNF8LG6YdoA6XoGiecpvAHR+BVFXdKsqBEwVMiSvNZnr9QJBAtptvZIPypKZ7ps60ECYkTwQQiAulSlXakDtA2cFc3KBNfEwDBOQDeH+FXlWf//BX9eRT/wBu2rxrG2b1pgHAs45vA/LNm4iAi7h6Q+/j6mpFr2v/0mShz6C230NV9z6PbjS0oXOzfzsGVtN5zw34//MmogrC52Hed5mkd9b8JiL35WlfrBhGMvGemFdLO8DRUW47//8nt7/wd9ge62UGzxx3UfQmVb6/KydAM65vBusixAXIy7CJcmSft+TxyO8Kj7kYhI035rSrtzZNqhhmAdirKWC8ODHP6hfeP+vsbW/nxjl7FppHzyxi/I6hfMc1a0I1Ujo3VJCvv05okSQ8eM88t53qFuk57pzEa/vP4O/th91eVAdn5GqI1/bO54fa5AG5bwP0DAMExBjybrRtbPfeegfQR19Jeas4EsVoljy2AN+WV5It55DAjGOSuJg6nT+FukEE49/fknvsydysCVmOupRYrihxX8rr9rVw/HJFo00LJgQcN7nS+c4czLPmT1LxDq/KzJzK22+tu7WesQwTEDWOd0gswgvPvEwItCXSLeYjVkeiCIdoxiWpR8o+f6k0Kkyl2njKSDLHHCkFK3PRaklSj3N+56kwbOrltBOM16s+9lxaRFEA2GR2yz3vXRGvCLP5ApRIGa6J6ErRFR1xuSSYtvPqRAkdKvkI8mLIkU9QSJilCRKaI4OM/zis5o2WwQRfEjZdeV1ksQ28Mkwlm3PLI135V0MJV/NNodOaGnbLnEynaDaEYTTx76tf/S26yn19HHzjoRqcq4B+8qJBs7F3LK3j8yHZa2QFSVLA0ONBlsSR29p5QykDzDeLoIhRY2FiNAOgZOTKVmnX7xAkIjeWOiNZd5ISRI7amWZMcUwr2OZ7uJS1KV0GyLmW3oatBvcb2eQdvMMtKiudwiBySzQ9IrDkaVNtNXkVDOQtZWpesZvPTYplWqP3buGYR7IxXcxBGHk+Sf1+d/4IWT75dp/w2sZuO0eBg7cKAi0m5M8/PE/wSUlnHh64iphDvOaBaESh9mNc5d1LIWxXeE1QuyUklNaQZBCPBSl5ByX95d4aSpQb2d0Zv3lg/5cHsuZR+6EmV6YTo+D7bTd0jA7YF/8E2ZtPc34rkrepr0oblRVPAGXlCApU4o8mgRKboKkWut+qrUkMQwTkIvO6P1/RWhMIieOMvLC0wx94g+R2hbtOfgmGsOneeyTf4NLymyvxMw3QDx06ii6BnGZe06ABLfitQ1Bhd6S0Pa+W3/R2TpyKuzqiRiNhLoPuBAIAaZST60c4Tr5tbM8Gu1uj8GMKsTpbo/zDHXKtwODjxAJlCKZqePUswxPhBOlkuTHOdkKeFV6nFKqRmTawwd/5h79l7/7EalUat1YlImJYZiAXDQm7vs4WkqQABInREmChpT6l++l6ZVMElQ9O3qrhHkCHNcNVnhxyueFe8u1ZcXrq4mjr7SyhlCK4sJyHNHMdIYxF5woraDUShBnEWFGprjMPx2WRhamt5/O+SpKVJj0ub6o9xlz1Rx6XDFxcFqWypEjCwGNHLE6pFaifuzrfP3TH9Zb/vlPSRSdp2AbxqW44WIxkPNjZtbO2bbm5LNP6b0/8zou31plSymiHTxN7+ktlSg7ONNI+drJKcTB4T2VYvXNnIaz4R2lJD6vSgtRj9OwKhlGWmwrjbUgkAfURYSW1zytlwAazTox82/FaRFIn18LRaQYCjXXWaLbjn72B+Sf3xGR/DwU4qIer1Gx7aWkrSZtjXj563+A677vJ9ix/1r6tl82vTlmWVqGYR7ISi7DR59/UidfeIo9R75fohkr7ecee4AXJlKen0gpS8Q1O2MGSo7JZpNRdZyYaKGibCnF+eaPzL9VVIkC+PYFHOfqDDeSvEsicaS0fb6F1Q5K6jtGPJpeyc/wNOZWwhmvn0dexCmzGl6d/R07icbBcVZnRfIkhmJrqhATR1S0xFdCCGipQgy8cP+9HLv/XuL+bdR2HtAb3vxOrn3zO6UcJ+aZGIYJyMpx4v6P8+yH38dj4nTgxjvZdftbGLj21Tz/1S8UabRC26UMliskUV7NreppecWpo3eRraXpWo51qaCA0psIIz4gknemqiar93nREmaMeJSFKuOzEBG0mOneeV3sqOJINeBD8Rn1CdJnH+FLv30f3/jUn+tdv/Db7HrFq8TNMaDLMC7ZdbRtYZ0fIXi+/Os/ohOPf7HY4gho8ESlCicawvGROpMtz9aeErfvLeHb7bynlcTc98IUIsI12xK2laMNu6LN481KM1NameCWMEvkgm5Wt7QTFRa5p4NCqnPP71WFzGfkgwwjQPDB4+MSg694NXe++/fZuvtKMU/EMExAlm80i1qOLG3yd//qJnUzJjN1ahakqNmbagX2f9eN3HTbqxg9cZKhF47x7W8/x4PHxogEDu4ukbiNb4WyAPU0FHUaq3Xei55eS3ztzJG987h2tLzO2+U4U8Vn3WxgcErqlXqzxat+/D9w0w+8i95tu8RiI8aljG1hLXsjJd9SOv7013Vq+CTlWh+xA5eHkvOq6WKvPiGwb+8eEGFgxw4G9uzmq8dGQUfY1lvh2gMvI9NsU8hqGjpt3FcPn3naaXtJ12hsdIxmu7Xg4K2yE5ph7jqZEoJ3Sr1VbHQFIRahv1rmsY/8Lo/+zZ/z6nf+sh5++8+aehgmIMay9m149lN/RohKNDOPIETOEYnSW45QDYSgSJLwj5/8FL0DW9i7fz+XXbGPZ45+h8QJN1y5i+27BvM27ZtCWFf/A9rtlKmJ8cVfKhB8hh9O5/cOFIgg0yzf8prjdRHQECWETiJCPvuk5IShsWEe/b9/xC33/AuScm1GDYthmIAYi2x/nLz/XuIozqunVfHBE0TYVqvkrc5Vmcwy0uBoTtZ5+uuP8fgjj1MSIfOel195+aYRj449XtX3DzpTvxfV+FISL5x6Wzwda0SbbO6QhgiJy4scQzH8S6QY4euE+vBpxk8d0+1XXC2qsc2iMi45bB7IeXD8qUc19u1poyOCItSKVE8nghPHS5MZJydaTLQ8mQr1LAVgoK+HWuKw8NNydFu6BnwplMvlpf0BRAvLYhK7c2aziwglhKxV54l//GsQEw/DBMRYbBVcWPyRb3w5tzwy29iUyi6PhxQV1VNtTzvAaCPj1HjKeCNf+l422M9C9R/GhVMplfLrNd15fs5HR0BkHjUvuY7DMvsXK4mAxDz6sQ/ayTYuWWwLa5mrYO89Z558CJ1jz/uBY+NEEnF5f4ldfRUeO92kv+SolWJKzhMQxAX6a2WmJqfshC4THzzNZrq0lZFzqBMyWWSbUAWfD3efYx8ub4DinOQFkjN+noigBCZOPMfRxx/SAzcctOWAYQJiLLijAZrRfvFpIlE0wMx6tMwLDe956qUGj56okyKMtZTRZpM4irisJ0KlRCzKmdFxO5/LJIRAu9ViKREXESEjwmfZwqFtAU+ED3MLjZO8U1nLz0747fQDa8UJJx65nwM3HLQLZJiAGAsbm0azyQc+8zDXDla4YkuJWgzlWAgh0MrAufzxwmjGWLNNb6VEf0nYXcprDmI8/T0VxOIf5+UBdqvzF79U01uE82Zi6az/Pjvg3vlxPnMkzHofBWLncHHMC099rXjOqtMNExBjAb702U/qybE6wy3lgRMtarHQVxK298XsqZSoRp6RFmTek4aI0WZgrO7ZP9CHqjK4pY9YBG8R9FVn8cJDAdF59UVECSpEMyaRzGrV6CASx/ALTxfvZuJhmIAYC/Dpv/wQsYtwRQfZegpTKZyYzHhUG1STmFdsjbn1siqph+P1jLGmoxaDz5R923sJph2rjgKRLuytqCiRCk78vALT6SqAEyTMzCFWSuJQFVpTkzQak1SrvXbiDRMQY35+/N+9h/3X38B9n7mX73zjKZJqRJKUcE5wCKn3PH7G8/hLEEeOe/b3kJJncCVxxGBfBWsfs1YeyGIegRAAh4OF2skLOFXCDB9DNc+2E4G0MUU6Oa6Vaq8l1hmX1t+YnYJlrGpVufnw6+Tn/8v75MP3PSl//Y1j/Px//i1efv3NbBncgYtiQvD5froDHwKHXzbAZf1lFGWgt4xVK68dIm4R+Zj937rge537y1K0kW83pqhPjtmVNcwDMRYyIrNNxM7de+UdP/vLvONnf5nhodPDQydf3PrYg1/kvk/fywOf+zT7tlQ4NdJgeKqNKGytVVmXAyUW8Yg6P00i191+OzsqIFBU4J/77fKdpLUPMIsLSzrfuYch+AVepuIKf6XzfYuxtwJpo067PjnngsMaLRqb2ibadsoF2t4ZmTdnG4w//a8/p0996i/Y2VNBgFcf2M1gX2XdGRUF0kzAha69dWeJg3PCP3zzRfb2l4hcPhPdieuKxnAr42U7txHFc1pfnLgL7helqrSajSVV8ItAo9FgdLK+6PlWhYYP6NyThRGU8VYxLEtmnDRRhhqe1AduuuN1XLH/agjKVMuz5/bv5+W33W3qYZgHYiy0DSLneCgdIXnDT/4S9fERWg9/BokitvZW12X1uQ+BP/vKc3ifW+ZKJFy1ZXrGYhQJu2sJPbRoNFIEaDUEp3SHPGnwPPJsc864QwjKy3dvY3BL7wXFf0Tyor4lv4e4JQuWqEMkW/D1bo5rLyKIE0498gXcU18hBOVMo0HlilfCbXfbH4hhAmIs39ApypUHXi5btaUnCCRxicn6JJqtv/btKsLwVIs0y1fu1Qi2V0r5DHIRYic0Y6W37Ka9rRmrcxGhHDleqqdFzcS5AtJsNhkJ6YUdJ5CFsOTXajtDi8aWi73WBwjzjtXNM+5SdHb9juaDxLzCqbrj8j4hUyiVKjz7+b9h6MVj+rqffPfVPf0DR+2vwjABMZZFo9Xg+KP/BFHM1powOTm5LhsoClLMGw+sRnxGgEa7RfAXnrOxHA8meMGHpW2bBVWyMN+CAII6fMjOWSgIgg/QDJ4QFK9KyQkj33yAZ5/8Joff/nPP0D9gW1mGCYixPKN8/Otf1I7R21JJWK8NFOPIEZGRSrRKHg4kUQSsZVC5mAzJ4voxU5PmPbyip9acx19MP0w7M0MAnMNF1qXX2NxYGu8qktanUALlJKYcsX7bt+tafIRehNyzlZq3InNuzeU6IWghVGnmMcUwTECMFTHK1915j2y75mZ6I0VDMfKW9aki+TbWar33xflGa/fBnWFXltFoXFrYFtZqmZSi7uGdv/3xq08/9dAzY08+yOnPfhhaE+tPPETpSUrUfYpotwNhbhZXwCZKdwV/VgR6rSz8IoZdmPYi5vy+wgwPZOZxK5HT4lwpmYfYlmSGCYixEkZTVan1DRy96uB3Cwe/m88/+YA2TzwL68wLqftAWm5QjcsIUI4d1apDJQICaWMK1bx07nxsvgIjky0Gtm6btUp3cYRb5vtFS94iUtRHxFW/FF+8xQAACCdJREFU6NlWhTjzC76m3YJyNSMER3vsFM7FqEY0M08symAtoq/s8loRwzABMS58ZT+j/XcI9O+/nsO/+r9lvW1jZWn6rlvGxv64I2wCJC7PMIpLJX769dfT8i2u3lIiOq9iQGUi7uEHf/+fPtqqT/xw57mkZ9vVLo6PLk9Ql/HZy9lSWjTQrkBEq11/6KNvu+qWrf09OAHVCNE8YK8aoQS78Q0TEOO890vydh5nrZRFIK70kKzDjq2lKh+o9W/7wHw/b6RBW74woqrTHlRnu6t4TlXnjvEUhrzUv/3tpf7tG/vyRu6gaFDR0B1dnLdpAa8BKKr5VclL288VImtvYpiAGPMuZUXg1PCoTtTbs5JyotvewTPHT2+oSGsUOW59y09xWU2o1hzurAaFkZsWicHW3ElIqoorl/nOS+Pq280NfXXTNKPvjf+apFrJBURnDpkK1LyQaSDyQsWVeGG0wZn0tIagXH3ZoLjI/uSMTWTtLHNk5T0QED79D/frpI86oegNTW705tl4my5JX/zM+M0RIJAont4ek3Mu/YylRD6GF1Uy73nTHa+S/p4e+xMxzAMx5vdAIG8l7kQ2x3ZFsRUji+nmYmfGbZIUpZlbU7rweXDFRCqxKWLGJsSSDg3DMAwTEMMwDMMExDAMwzABMQzDMExADMMwDKPAsrBWnDyX04eMVnt1OtCuXmaXkPmM9ZzZLYCLlt8CZclXb5W+fJp5LGPeMAExlmDiYHDHboaePTbniNcLNkbtNlmWrvj7+naLuw7dSBRF6/j0Ck9+6yjPnxqmXKmusFFWKpXaqqQbe591x/8ahgmIsSAuctR6avPOkbggaitcjCaO+sQI33v3Hb81uHXgPev93F69fz/3f/lBfeqFEbZv37bCXsPquAlZ5vOiQsMwATGWZIfyplir9OYr8z6KkDYmeOvdd0itWt0QvZpUldtfc5vIA1/RY8N1yuXKuj9u270yNuVC2U7BJapvCiDUJ8Z4w2tu+uhGEQ/IY0CqypFDB+WygQpDQyP5c3ZZDcM8EGMtjDC0mnXe9j2vleoGEo+zReS1hw9J/MBX9LnhJpVyybrdGoZ5IMbqeR55llh9cow3HrrpoxtRPM4WkcOHDsrlW0oMD4+YeBiGeSDGKskHiNBuTPHWu18rtQ0sHud4IkcOSbSBYiKGYR6IsYE8D3LPY2Kc17/mxoc3g3icLSJHDh2UPVsqXU/EYiKGYQJirIiR7cQ87pAdg4MHN9sKPRcReN2RQ3LdvkGarTbC6hUGGoZhAnIJeB7TMY833Hbjw9VN5HnM54kcPnRQLutPCk/EbnHDMAExli8e5ELRakzy1rtfKzu2bz7PY15P5PbXyLX7Bmm1GjOE1DAMExBjKeqBE8fo8BnecOimTRXzWKoncuTQQdndX2Z4eNRiIoZhAmIsWT1EmRgb463fffvVl4LnMZ8ncuftr5Hr9m2j2WwjqHkihmECYswrHaqIRIyODHPXrdczMDBw9FJNaZ0ZE9mzJWFkZMxiIoZhAmLM7XfkQjExNsxb33Dk7r2XXyaXej3ETE/kmr3baDUbHaW1G8YwTECMQj1w4hgbGeLOW7+Lga0Df2/FdLM9kSOHDsqu/hIjI6NgMRHDMAExCv0QZXxslLe88cjV+8zzmNcTueuOw3LtXouJGIYJiFHEPBxjo8PcdfDSjnks1RM5fOig7O6PLSZiGCYgl7B4FDGP8bEh3vr6I3fv23u5eR7L8EQsJmIYJiCXqnrgxDE+OsydBy3mcT6eyJFDB2VnX4mRkTGLiRiGCcglpB9FzOOeNxy++grzPM7bE3n9aw/LNXu3WkzEMExALgHhKGIe46Mj3HnwlRbzWCFPZFdfxOjouMVEDMMEZNPKRx7zGB3inrsO/8wVe/ea57FinsgRecXlW6djIoZhmIBsNoI6br3plWzdNvABE4+V9UQO33ZQtg5ssRNiGCYgm9cLieO4a/iMlRMRCETOzqlhmIAYhmEYJiCGYRiGCYhhGIZhAmIYhmGYgBiGYRiGCYhhGIZhAmIYhmGYgBiGYRgmIIZhGIZhAmIYhmGYgBiGYRgmIIZhGIYJiGEYhmECYhiGYRgmIIZhGIYJiGEYhmECYhiGYZiAGIZhGCYghmEYhmECYhiGYZiAGIZhGCYghmEYhgmIYRiGYQJiGIZhGCYghmEYhgmIYRiGYQJiGIZhmIAYhmEYJiCGYRiGYQJiGIZhmIAYhmEYJiCGYRiGCYhhGIZhAmIYhmEYJiCGYRiGCYhhGIZhAmIYhmGYgBiGYRgmIIZhGIZhAmIYhmGYgBiGYRgmIIZhGIYJiHHRkHmeVzs1lwhqV9xYJ8R2ClbPziugqiv8th4Rt4Cw6AIiYyx4biXKr5uuvGlWVeJIVurW6rwpiF1r4yL+zazGH8tGJMs8n3vgEY1LlRX5A2+2U7wPq3KsSRyTJNE5z+8Y6OGGl10lYkZlQSan6nzlG8+oziG0zVZKCKtz3crlErGTFfEcBvtr3HTNAbvQhnkg62JbQAMvDY1S6+ld98eapik0zn2+ktiO5NIWC9mB8fFJwhp7ammarth7lZwt/AwTkPXljiHk/5MNevzG8k7YxrzSOqfvZBhrjy1ZDcMwDBMQwzAMwwTEMAzDWOdYDGROLEBp19kwDBOQZZgSdSCycU+Jpe8u71xt1GstopYxYZiArDuD0m7T8Gc27HfwvYldyCUQRdHRZmMSn2Ub12/q22MX0rj4dtMKCYs/SlWyLCUEv4ENY0Ic25pgKdc6TVNUN+61jqOEyK61cZH5/9kcXYhOX0mUAAAAAElFTkSuQmCC;" vertex="1" parent="1">
          <mxGeometry x="250" y="280" width="350" height="291.4" as="geometry" />
        </mxCell>
        <mxCell id="7-Hqb6H97nyhliVRLqJK-9" value="" style="shape=cylinder3;whiteSpace=wrap;html=1;boundedLbl=1;backgroundOutline=1;size=15;shadow=0;" vertex="1" parent="1">
          <mxGeometry x="50" y="587.5" width="140" height="70" as="geometry" />
        </mxCell>
        <mxCell id="7-Hqb6H97nyhliVRLqJK-353" value="" style="group" vertex="1" connectable="0" parent="1">
          <mxGeometry x="600" y="390" width="600" height="170" as="geometry" />
        </mxCell>
        <mxCell id="7-Hqb6H97nyhliVRLqJK-354" value="" style="rounded=0;whiteSpace=wrap;html=1;container=0;" vertex="1" parent="7-Hqb6H97nyhliVRLqJK-353">
          <mxGeometry width="600" height="170" as="geometry" />
        </mxCell>
        <mxCell id="7-Hqb6H97nyhliVRLqJK-355" value="MIDDLE" style="text;html=1;align=center;verticalAlign=middle;resizable=0;points=[];autosize=1;strokeColor=none;fillColor=none;rotation=270;fontSize=20;fontStyle=1;container=0;" vertex="1" parent="7-Hqb6H97nyhliVRLqJK-353">
          <mxGeometry x="-25" y="65" width="100" height="40" as="geometry" />
        </mxCell>
        <mxCell id="7-Hqb6H97nyhliVRLqJK-356" value="&lt;b&gt;L7&lt;/b&gt;" style="text;html=1;align=center;verticalAlign=middle;resizable=0;points=[];autosize=1;strokeColor=none;fillColor=none;container=0;" vertex="1" parent="7-Hqb6H97nyhliVRLqJK-353">
          <mxGeometry x="80" y="140" width="40" height="30" as="geometry" />
        </mxCell>
        <mxCell id="7-Hqb6H97nyhliVRLqJK-357" value="&lt;b&gt;L8&lt;/b&gt;" style="text;html=1;align=center;verticalAlign=middle;resizable=0;points=[];autosize=1;strokeColor=none;fillColor=none;container=0;" vertex="1" parent="7-Hqb6H97nyhliVRLqJK-353">
          <mxGeometry x="167" y="140" width="40" height="30" as="geometry" />
        </mxCell>
        <mxCell id="7-Hqb6H97nyhliVRLqJK-358" value="&lt;b&gt;L9&lt;/b&gt;" style="text;html=1;align=center;verticalAlign=middle;resizable=0;points=[];autosize=1;strokeColor=none;fillColor=none;container=0;" vertex="1" parent="7-Hqb6H97nyhliVRLqJK-353">
          <mxGeometry x="260" y="140" width="40" height="30" as="geometry" />
        </mxCell>
        <mxCell id="7-Hqb6H97nyhliVRLqJK-359" value="&lt;b&gt;L10&lt;/b&gt;" style="text;html=1;align=center;verticalAlign=middle;resizable=0;points=[];autosize=1;strokeColor=none;fillColor=none;container=0;" vertex="1" parent="7-Hqb6H97nyhliVRLqJK-353">
          <mxGeometry x="350" y="140" width="40" height="30" as="geometry" />
        </mxCell>
        <mxCell id="7-Hqb6H97nyhliVRLqJK-360" value="&lt;b&gt;L11&lt;/b&gt;" style="text;html=1;align=center;verticalAlign=middle;resizable=0;points=[];autosize=1;strokeColor=none;fillColor=none;container=0;" vertex="1" parent="7-Hqb6H97nyhliVRLqJK-353">
          <mxGeometry x="440" y="140" width="40" height="30" as="geometry" />
        </mxCell>
        <mxCell id="7-Hqb6H97nyhliVRLqJK-361" value="&lt;b&gt;L12&lt;/b&gt;" style="text;html=1;align=center;verticalAlign=middle;resizable=0;points=[];autosize=1;strokeColor=none;fillColor=none;container=0;" vertex="1" parent="7-Hqb6H97nyhliVRLqJK-353">
          <mxGeometry x="530" y="140" width="40" height="30" as="geometry" />
        </mxCell>
        <mxCell id="7-Hqb6H97nyhliVRLqJK-362" value="" style="rounded=0;whiteSpace=wrap;html=1;container=0;" vertex="1" parent="7-Hqb6H97nyhliVRLqJK-353">
          <mxGeometry x="508" y="5" width="80" height="140" as="geometry" />
        </mxCell>
        <mxCell id="7-Hqb6H97nyhliVRLqJK-363" value="" style="rounded=0;whiteSpace=wrap;html=1;container=0;" vertex="1" parent="7-Hqb6H97nyhliVRLqJK-353">
          <mxGeometry x="418" y="5" width="80" height="140" as="geometry" />
        </mxCell>
        <mxCell id="7-Hqb6H97nyhliVRLqJK-364" value="" style="rounded=0;whiteSpace=wrap;html=1;container=0;" vertex="1" parent="7-Hqb6H97nyhliVRLqJK-353">
          <mxGeometry x="328" y="5" width="80" height="140" as="geometry" />
        </mxCell>
        <mxCell id="7-Hqb6H97nyhliVRLqJK-365" value="" style="rounded=0;whiteSpace=wrap;html=1;container=0;" vertex="1" parent="7-Hqb6H97nyhliVRLqJK-353">
          <mxGeometry x="145" y="5" width="80" height="140" as="geometry" />
        </mxCell>
        <mxCell id="7-Hqb6H97nyhliVRLqJK-366" value="" style="rounded=0;whiteSpace=wrap;html=1;container=0;" vertex="1" parent="7-Hqb6H97nyhliVRLqJK-353">
          <mxGeometry x="58" y="5" width="80" height="140" as="geometry" />
        </mxCell>
        <mxCell id="7-Hqb6H97nyhliVRLqJK-367" value="" style="rounded=0;whiteSpace=wrap;html=1;container=0;" vertex="1" parent="7-Hqb6H97nyhliVRLqJK-353">
          <mxGeometry x="58" y="10" width="80" height="60" as="geometry" />
        </mxCell>
        <mxCell id="7-Hqb6H97nyhliVRLqJK-368" value="muPlant Spezial" style="text;html=1;align=center;verticalAlign=middle;resizable=0;points=[];autosize=1;strokeColor=none;fillColor=none;fontSize=10;container=0;" vertex="1" parent="7-Hqb6H97nyhliVRLqJK-353">
          <mxGeometry x="48" y="15" width="100" height="30" as="geometry" />
        </mxCell>
        <mxCell id="7-Hqb6H97nyhliVRLqJK-369" value="Cup: 25" style="text;html=1;align=center;verticalAlign=middle;resizable=0;points=[];autosize=1;strokeColor=none;fillColor=none;container=0;" vertex="1" parent="7-Hqb6H97nyhliVRLqJK-353">
          <mxGeometry x="63" y="39" width="70" height="30" as="geometry" />
        </mxCell>
        <mxCell id="7-Hqb6H97nyhliVRLqJK-370" value="" style="rounded=0;whiteSpace=wrap;html=1;container=0;" vertex="1" parent="7-Hqb6H97nyhliVRLqJK-353">
          <mxGeometry x="58" y="80" width="80" height="60" as="geometry" />
        </mxCell>
        <mxCell id="7-Hqb6H97nyhliVRLqJK-371" value="muPlant Spezial" style="text;html=1;align=center;verticalAlign=middle;resizable=0;points=[];autosize=1;strokeColor=none;fillColor=none;fontSize=10;container=0;" vertex="1" parent="7-Hqb6H97nyhliVRLqJK-353">
          <mxGeometry x="48" y="85" width="100" height="30" as="geometry" />
        </mxCell>
        <mxCell id="7-Hqb6H97nyhliVRLqJK-372" value="Cup: 25" style="text;html=1;align=center;verticalAlign=middle;resizable=0;points=[];autosize=1;strokeColor=none;fillColor=none;container=0;" vertex="1" parent="7-Hqb6H97nyhliVRLqJK-353">
          <mxGeometry x="63" y="109" width="70" height="30" as="geometry" />
        </mxCell>
        <mxCell id="7-Hqb6H97nyhliVRLqJK-373" value="" style="rounded=0;whiteSpace=wrap;html=1;container=0;" vertex="1" parent="7-Hqb6H97nyhliVRLqJK-353">
          <mxGeometry x="145" y="10" width="80" height="60" as="geometry" />
        </mxCell>
        <mxCell id="7-Hqb6H97nyhliVRLqJK-374" value="muPlant Spezial" style="text;html=1;align=center;verticalAlign=middle;resizable=0;points=[];autosize=1;strokeColor=none;fillColor=none;fontSize=10;container=0;" vertex="1" parent="7-Hqb6H97nyhliVRLqJK-353">
          <mxGeometry x="135" y="15" width="100" height="30" as="geometry" />
        </mxCell>
        <mxCell id="7-Hqb6H97nyhliVRLqJK-375" value="Cup: 25" style="text;html=1;align=center;verticalAlign=middle;resizable=0;points=[];autosize=1;strokeColor=none;fillColor=none;container=0;" vertex="1" parent="7-Hqb6H97nyhliVRLqJK-353">
          <mxGeometry x="150" y="39" width="70" height="30" as="geometry" />
        </mxCell>
        <mxCell id="7-Hqb6H97nyhliVRLqJK-376" value="" style="rounded=0;whiteSpace=wrap;html=1;container=0;" vertex="1" parent="7-Hqb6H97nyhliVRLqJK-353">
          <mxGeometry x="328" y="80" width="80" height="60" as="geometry" />
        </mxCell>
        <mxCell id="7-Hqb6H97nyhliVRLqJK-377" value="muPlant Spezial" style="text;html=1;align=center;verticalAlign=middle;resizable=0;points=[];autosize=1;strokeColor=none;fillColor=none;fontSize=10;container=0;" vertex="1" parent="7-Hqb6H97nyhliVRLqJK-353">
          <mxGeometry x="318" y="85" width="100" height="30" as="geometry" />
        </mxCell>
        <mxCell id="7-Hqb6H97nyhliVRLqJK-378" value="Cup: 25" style="text;html=1;align=center;verticalAlign=middle;resizable=0;points=[];autosize=1;strokeColor=none;fillColor=none;container=0;" vertex="1" parent="7-Hqb6H97nyhliVRLqJK-353">
          <mxGeometry x="333" y="109" width="70" height="30" as="geometry" />
        </mxCell>
        <mxCell id="7-Hqb6H97nyhliVRLqJK-379" value="" style="group" vertex="1" connectable="0" parent="1">
          <mxGeometry x="600" y="570" width="600" height="170" as="geometry" />
        </mxCell>
        <mxCell id="7-Hqb6H97nyhliVRLqJK-380" value="" style="rounded=0;whiteSpace=wrap;html=1;container=0;" vertex="1" parent="7-Hqb6H97nyhliVRLqJK-379">
          <mxGeometry width="600" height="170" as="geometry" />
        </mxCell>
        <mxCell id="7-Hqb6H97nyhliVRLqJK-381" value="BOTTOM" style="text;html=1;align=center;verticalAlign=middle;resizable=0;points=[];autosize=1;strokeColor=none;fillColor=none;rotation=270;fontSize=20;fontStyle=1;container=0;" vertex="1" parent="7-Hqb6H97nyhliVRLqJK-379">
          <mxGeometry x="-30" y="65" width="110" height="40" as="geometry" />
        </mxCell>
        <mxCell id="7-Hqb6H97nyhliVRLqJK-382" value="&lt;b&gt;L13&lt;/b&gt;" style="text;html=1;align=center;verticalAlign=middle;resizable=0;points=[];autosize=1;strokeColor=none;fillColor=none;container=0;" vertex="1" parent="7-Hqb6H97nyhliVRLqJK-379">
          <mxGeometry x="80" y="140" width="40" height="30" as="geometry" />
        </mxCell>
        <mxCell id="7-Hqb6H97nyhliVRLqJK-383" value="&lt;b&gt;L14&lt;/b&gt;" style="text;html=1;align=center;verticalAlign=middle;resizable=0;points=[];autosize=1;strokeColor=none;fillColor=none;container=0;" vertex="1" parent="7-Hqb6H97nyhliVRLqJK-379">
          <mxGeometry x="167" y="140" width="40" height="30" as="geometry" />
        </mxCell>
        <mxCell id="7-Hqb6H97nyhliVRLqJK-384" value="&lt;b&gt;L15&lt;/b&gt;" style="text;html=1;align=center;verticalAlign=middle;resizable=0;points=[];autosize=1;strokeColor=none;fillColor=none;container=0;" vertex="1" parent="7-Hqb6H97nyhliVRLqJK-379">
          <mxGeometry x="260" y="140" width="40" height="30" as="geometry" />
        </mxCell>
        <mxCell id="7-Hqb6H97nyhliVRLqJK-385" value="&lt;b&gt;L16&lt;/b&gt;" style="text;html=1;align=center;verticalAlign=middle;resizable=0;points=[];autosize=1;strokeColor=none;fillColor=none;container=0;" vertex="1" parent="7-Hqb6H97nyhliVRLqJK-379">
          <mxGeometry x="350" y="140" width="40" height="30" as="geometry" />
        </mxCell>
        <mxCell id="7-Hqb6H97nyhliVRLqJK-386" value="&lt;b&gt;L17&lt;/b&gt;" style="text;html=1;align=center;verticalAlign=middle;resizable=0;points=[];autosize=1;strokeColor=none;fillColor=none;container=0;" vertex="1" parent="7-Hqb6H97nyhliVRLqJK-379">
          <mxGeometry x="440" y="140" width="40" height="30" as="geometry" />
        </mxCell>
        <mxCell id="7-Hqb6H97nyhliVRLqJK-387" value="&lt;b&gt;L18&lt;/b&gt;" style="text;html=1;align=center;verticalAlign=middle;resizable=0;points=[];autosize=1;strokeColor=none;fillColor=none;container=0;" vertex="1" parent="7-Hqb6H97nyhliVRLqJK-379">
          <mxGeometry x="530" y="140" width="40" height="30" as="geometry" />
        </mxCell>
        <mxCell id="7-Hqb6H97nyhliVRLqJK-388" value="" style="rounded=0;whiteSpace=wrap;html=1;container=0;" vertex="1" parent="7-Hqb6H97nyhliVRLqJK-379">
          <mxGeometry x="508" y="5" width="80" height="140" as="geometry" />
        </mxCell>
        <mxCell id="7-Hqb6H97nyhliVRLqJK-389" value="" style="rounded=0;whiteSpace=wrap;html=1;container=0;" vertex="1" parent="7-Hqb6H97nyhliVRLqJK-379">
          <mxGeometry x="418" y="5" width="80" height="140" as="geometry" />
        </mxCell>
        <mxCell id="7-Hqb6H97nyhliVRLqJK-390" value="" style="rounded=0;whiteSpace=wrap;html=1;container=0;" vertex="1" parent="7-Hqb6H97nyhliVRLqJK-379">
          <mxGeometry x="328" y="5" width="80" height="140" as="geometry" />
        </mxCell>
        <mxCell id="7-Hqb6H97nyhliVRLqJK-391" value="" style="rounded=0;whiteSpace=wrap;html=1;container=0;" vertex="1" parent="7-Hqb6H97nyhliVRLqJK-379">
          <mxGeometry x="145" y="5" width="80" height="140" as="geometry" />
        </mxCell>
        <mxCell id="7-Hqb6H97nyhliVRLqJK-392" value="" style="rounded=0;whiteSpace=wrap;html=1;container=0;" vertex="1" parent="7-Hqb6H97nyhliVRLqJK-379">
          <mxGeometry x="58" y="5" width="80" height="140" as="geometry" />
        </mxCell>
        <mxCell id="7-Hqb6H97nyhliVRLqJK-393" value="" style="rounded=0;whiteSpace=wrap;html=1;container=0;" vertex="1" parent="7-Hqb6H97nyhliVRLqJK-379">
          <mxGeometry x="58" y="10" width="80" height="60" as="geometry" />
        </mxCell>
        <mxCell id="7-Hqb6H97nyhliVRLqJK-394" value="muPlant Spezial" style="text;html=1;align=center;verticalAlign=middle;resizable=0;points=[];autosize=1;strokeColor=none;fillColor=none;fontSize=10;container=0;" vertex="1" parent="7-Hqb6H97nyhliVRLqJK-379">
          <mxGeometry x="48" y="15" width="100" height="30" as="geometry" />
        </mxCell>
        <mxCell id="7-Hqb6H97nyhliVRLqJK-395" value="Cup: 25" style="text;html=1;align=center;verticalAlign=middle;resizable=0;points=[];autosize=1;strokeColor=none;fillColor=none;container=0;" vertex="1" parent="7-Hqb6H97nyhliVRLqJK-379">
          <mxGeometry x="63" y="39" width="70" height="30" as="geometry" />
        </mxCell>
        <mxCell id="7-Hqb6H97nyhliVRLqJK-396" value="" style="rounded=0;whiteSpace=wrap;html=1;container=0;" vertex="1" parent="7-Hqb6H97nyhliVRLqJK-379">
          <mxGeometry x="58" y="80" width="80" height="60" as="geometry" />
        </mxCell>
        <mxCell id="7-Hqb6H97nyhliVRLqJK-397" value="muPlant Spezial" style="text;html=1;align=center;verticalAlign=middle;resizable=0;points=[];autosize=1;strokeColor=none;fillColor=none;fontSize=10;container=0;" vertex="1" parent="7-Hqb6H97nyhliVRLqJK-379">
          <mxGeometry x="48" y="85" width="100" height="30" as="geometry" />
        </mxCell>
        <mxCell id="7-Hqb6H97nyhliVRLqJK-398" value="Cup: 25" style="text;html=1;align=center;verticalAlign=middle;resizable=0;points=[];autosize=1;strokeColor=none;fillColor=none;container=0;" vertex="1" parent="7-Hqb6H97nyhliVRLqJK-379">
          <mxGeometry x="63" y="109" width="70" height="30" as="geometry" />
        </mxCell>
        <mxCell id="7-Hqb6H97nyhliVRLqJK-399" value="" style="rounded=0;whiteSpace=wrap;html=1;container=0;" vertex="1" parent="7-Hqb6H97nyhliVRLqJK-379">
          <mxGeometry x="145" y="10" width="80" height="60" as="geometry" />
        </mxCell>
        <mxCell id="7-Hqb6H97nyhliVRLqJK-400" value="muPlant Spezial" style="text;html=1;align=center;verticalAlign=middle;resizable=0;points=[];autosize=1;strokeColor=none;fillColor=none;fontSize=10;container=0;" vertex="1" parent="7-Hqb6H97nyhliVRLqJK-379">
          <mxGeometry x="135" y="15" width="100" height="30" as="geometry" />
        </mxCell>
        <mxCell id="7-Hqb6H97nyhliVRLqJK-401" value="Cup: 25" style="text;html=1;align=center;verticalAlign=middle;resizable=0;points=[];autosize=1;strokeColor=none;fillColor=none;container=0;" vertex="1" parent="7-Hqb6H97nyhliVRLqJK-379">
          <mxGeometry x="150" y="39" width="70" height="30" as="geometry" />
        </mxCell>
        <mxCell id="7-Hqb6H97nyhliVRLqJK-402" value="" style="rounded=0;whiteSpace=wrap;html=1;container=0;" vertex="1" parent="7-Hqb6H97nyhliVRLqJK-379">
          <mxGeometry x="328" y="80" width="80" height="60" as="geometry" />
        </mxCell>
        <mxCell id="7-Hqb6H97nyhliVRLqJK-403" value="muPlant Spezial" style="text;html=1;align=center;verticalAlign=middle;resizable=0;points=[];autosize=1;strokeColor=none;fillColor=none;fontSize=10;container=0;" vertex="1" parent="7-Hqb6H97nyhliVRLqJK-379">
          <mxGeometry x="318" y="85" width="100" height="30" as="geometry" />
        </mxCell>
        <mxCell id="7-Hqb6H97nyhliVRLqJK-404" value="Cup: 25" style="text;html=1;align=center;verticalAlign=middle;resizable=0;points=[];autosize=1;strokeColor=none;fillColor=none;container=0;" vertex="1" parent="7-Hqb6H97nyhliVRLqJK-379">
          <mxGeometry x="333" y="109" width="70" height="30" as="geometry" />
        </mxCell>
        <mxCell id="7-Hqb6H97nyhliVRLqJK-408" value="" style="group" vertex="1" connectable="0" parent="1">
          <mxGeometry x="240" y="540" width="320" height="117.5" as="geometry" />
        </mxCell>
        <mxCell id="7-Hqb6H97nyhliVRLqJK-13" value="" style="shape=cube;whiteSpace=wrap;html=1;boundedLbl=1;backgroundOutline=1;darkOpacity=0.05;darkOpacity2=0.1;size=10;" vertex="1" parent="7-Hqb6H97nyhliVRLqJK-408">
          <mxGeometry y="15.326086956521738" width="53" height="82" as="geometry" />
        </mxCell>
        <mxCell id="7-Hqb6H97nyhliVRLqJK-12" value="" style="shape=cube;whiteSpace=wrap;html=1;boundedLbl=1;backgroundOutline=1;darkOpacity=0.05;darkOpacity2=0.1;size=10;" vertex="1" parent="7-Hqb6H97nyhliVRLqJK-408">
          <mxGeometry x="266.66666666666663" y="35.76086956521739" width="53.33333333333332" height="81.73913043478261" as="geometry" />
        </mxCell>
        <mxCell id="7-Hqb6H97nyhliVRLqJK-492" value="" style="shape=cube;whiteSpace=wrap;html=1;boundedLbl=1;backgroundOutline=1;darkOpacity=0.05;darkOpacity2=0.1;size=10;" vertex="1" parent="7-Hqb6H97nyhliVRLqJK-408">
          <mxGeometry x="10" y="25.3" width="53" height="82" as="geometry" />
        </mxCell>
        <mxCell id="7-Hqb6H97nyhliVRLqJK-10" value="" style="shape=cube;whiteSpace=wrap;html=1;boundedLbl=1;backgroundOutline=1;darkOpacity=0.05;darkOpacity2=0.1;" vertex="1" parent="7-Hqb6H97nyhliVRLqJK-408">
          <mxGeometry width="320" height="71.52173913043478" as="geometry" />
        </mxCell>
        <mxCell id="7-Hqb6H97nyhliVRLqJK-494" value="Commission Table" style="text;html=1;align=center;verticalAlign=middle;resizable=0;points=[];autosize=1;strokeColor=none;fillColor=none;" vertex="1" parent="7-Hqb6H97nyhliVRLqJK-408">
          <mxGeometry x="100" y="41.32999999999993" width="120" height="30" as="geometry" />
        </mxCell>
        <mxCell id="7-Hqb6H97nyhliVRLqJK-272" value="" style="rounded=0;whiteSpace=wrap;html=1;container=0;" vertex="1" parent="1">
          <mxGeometry x="600" y="210" width="600" height="170" as="geometry" />
        </mxCell>
        <mxCell id="7-Hqb6H97nyhliVRLqJK-279" value="TOP" style="text;html=1;align=center;verticalAlign=middle;resizable=0;points=[];autosize=1;strokeColor=none;fillColor=none;rotation=270;fontSize=20;fontStyle=1;container=0;" vertex="1" parent="1">
          <mxGeometry x="595" y="275" width="60" height="40" as="geometry" />
        </mxCell>
        <mxCell id="7-Hqb6H97nyhliVRLqJK-342" value="&lt;b&gt;L1&lt;/b&gt;" style="text;html=1;align=center;verticalAlign=middle;resizable=0;points=[];autosize=1;strokeColor=none;fillColor=none;container=0;" vertex="1" parent="1">
          <mxGeometry x="680" y="350" width="40" height="30" as="geometry" />
        </mxCell>
        <mxCell id="7-Hqb6H97nyhliVRLqJK-343" value="&lt;b&gt;L2&lt;/b&gt;" style="text;html=1;align=center;verticalAlign=middle;resizable=0;points=[];autosize=1;strokeColor=none;fillColor=none;container=0;" vertex="1" parent="1">
          <mxGeometry x="767" y="350" width="40" height="30" as="geometry" />
        </mxCell>
        <mxCell id="7-Hqb6H97nyhliVRLqJK-344" value="&lt;b&gt;L3&lt;/b&gt;" style="text;html=1;align=center;verticalAlign=middle;resizable=0;points=[];autosize=1;strokeColor=none;fillColor=none;container=0;" vertex="1" parent="1">
          <mxGeometry x="860" y="350" width="40" height="30" as="geometry" />
        </mxCell>
        <mxCell id="7-Hqb6H97nyhliVRLqJK-345" value="&lt;b&gt;L4&lt;/b&gt;" style="text;html=1;align=center;verticalAlign=middle;resizable=0;points=[];autosize=1;strokeColor=none;fillColor=none;container=0;" vertex="1" parent="1">
          <mxGeometry x="950" y="350" width="40" height="30" as="geometry" />
        </mxCell>
        <mxCell id="7-Hqb6H97nyhliVRLqJK-346" value="&lt;b&gt;L5&lt;/b&gt;" style="text;html=1;align=center;verticalAlign=middle;resizable=0;points=[];autosize=1;strokeColor=none;fillColor=none;container=0;" vertex="1" parent="1">
          <mxGeometry x="1040" y="350" width="40" height="30" as="geometry" />
        </mxCell>
        <mxCell id="7-Hqb6H97nyhliVRLqJK-347" value="&lt;b&gt;L6&lt;/b&gt;" style="text;html=1;align=center;verticalAlign=middle;resizable=0;points=[];autosize=1;strokeColor=none;fillColor=none;container=0;" vertex="1" parent="1">
          <mxGeometry x="1130" y="350" width="40" height="30" as="geometry" />
        </mxCell>
        <mxCell id="7-Hqb6H97nyhliVRLqJK-273" value="" style="rounded=0;whiteSpace=wrap;html=1;container=0;" vertex="1" parent="1">
          <mxGeometry x="1108" y="215" width="80" height="140" as="geometry" />
        </mxCell>
        <mxCell id="7-Hqb6H97nyhliVRLqJK-274" value="" style="rounded=0;whiteSpace=wrap;html=1;container=0;" vertex="1" parent="1">
          <mxGeometry x="1018" y="215" width="80" height="140" as="geometry" />
        </mxCell>
        <mxCell id="7-Hqb6H97nyhliVRLqJK-275" value="" style="rounded=0;whiteSpace=wrap;html=1;container=0;" vertex="1" parent="1">
          <mxGeometry x="928" y="215" width="80" height="140" as="geometry" />
        </mxCell>
        <mxCell id="7-Hqb6H97nyhliVRLqJK-277" value="" style="rounded=0;whiteSpace=wrap;html=1;container=0;" vertex="1" parent="1">
          <mxGeometry x="745" y="215" width="80" height="140" as="geometry" />
        </mxCell>
        <mxCell id="7-Hqb6H97nyhliVRLqJK-278" value="" style="rounded=0;whiteSpace=wrap;html=1;container=0;" vertex="1" parent="1">
          <mxGeometry x="658" y="215" width="80" height="140" as="geometry" />
        </mxCell>
        <mxCell id="7-Hqb6H97nyhliVRLqJK-280" value="" style="rounded=0;whiteSpace=wrap;html=1;container=0;" vertex="1" parent="1">
          <mxGeometry x="658" y="220" width="80" height="60" as="geometry" />
        </mxCell>
        <mxCell id="7-Hqb6H97nyhliVRLqJK-281" value="muPlant Spezial" style="text;html=1;align=center;verticalAlign=middle;resizable=0;points=[];autosize=1;strokeColor=none;fillColor=none;fontSize=10;container=0;" vertex="1" parent="1">
          <mxGeometry x="648" y="225" width="100" height="30" as="geometry" />
        </mxCell>
        <mxCell id="7-Hqb6H97nyhliVRLqJK-282" value="Cup: 25" style="text;html=1;align=center;verticalAlign=middle;resizable=0;points=[];autosize=1;strokeColor=none;fillColor=none;container=0;" vertex="1" parent="1">
          <mxGeometry x="663" y="249" width="70" height="30" as="geometry" />
        </mxCell>
        <mxCell id="7-Hqb6H97nyhliVRLqJK-285" value="" style="rounded=0;whiteSpace=wrap;html=1;container=0;" vertex="1" parent="1">
          <mxGeometry x="658" y="290" width="80" height="60" as="geometry" />
        </mxCell>
        <mxCell id="7-Hqb6H97nyhliVRLqJK-286" value="muPlant Spezial" style="text;html=1;align=center;verticalAlign=middle;resizable=0;points=[];autosize=1;strokeColor=none;fillColor=none;fontSize=10;container=0;" vertex="1" parent="1">
          <mxGeometry x="648" y="295" width="100" height="30" as="geometry" />
        </mxCell>
        <mxCell id="7-Hqb6H97nyhliVRLqJK-287" value="Cup: 25" style="text;html=1;align=center;verticalAlign=middle;resizable=0;points=[];autosize=1;strokeColor=none;fillColor=none;container=0;" vertex="1" parent="1">
          <mxGeometry x="663" y="319" width="70" height="30" as="geometry" />
        </mxCell>
        <mxCell id="7-Hqb6H97nyhliVRLqJK-289" value="" style="rounded=0;whiteSpace=wrap;html=1;container=0;" vertex="1" parent="1">
          <mxGeometry x="745" y="220" width="80" height="60" as="geometry" />
        </mxCell>
        <mxCell id="7-Hqb6H97nyhliVRLqJK-290" value="muPlant Spezial" style="text;html=1;align=center;verticalAlign=middle;resizable=0;points=[];autosize=1;strokeColor=none;fillColor=none;fontSize=10;container=0;" vertex="1" parent="1">
          <mxGeometry x="735" y="225" width="100" height="30" as="geometry" />
        </mxCell>
        <mxCell id="7-Hqb6H97nyhliVRLqJK-291" value="Cup: 25" style="text;html=1;align=center;verticalAlign=middle;resizable=0;points=[];autosize=1;strokeColor=none;fillColor=none;container=0;" vertex="1" parent="1">
          <mxGeometry x="750" y="249" width="70" height="30" as="geometry" />
        </mxCell>
        <mxCell id="7-Hqb6H97nyhliVRLqJK-293" value="" style="rounded=0;whiteSpace=wrap;html=1;container=0;" vertex="1" parent="1">
          <mxGeometry x="928" y="290" width="80" height="60" as="geometry" />
        </mxCell>
        <mxCell id="7-Hqb6H97nyhliVRLqJK-294" value="muPlant Spezial" style="text;html=1;align=center;verticalAlign=middle;resizable=0;points=[];autosize=1;strokeColor=none;fillColor=none;fontSize=10;container=0;" vertex="1" parent="1">
          <mxGeometry x="918" y="295" width="100" height="30" as="geometry" />
        </mxCell>
        <mxCell id="7-Hqb6H97nyhliVRLqJK-295" value="Cup: 25" style="text;html=1;align=center;verticalAlign=middle;resizable=0;points=[];autosize=1;strokeColor=none;fillColor=none;container=0;" vertex="1" parent="1">
          <mxGeometry x="933" y="319" width="70" height="30" as="geometry" />
        </mxCell>
        <mxCell id="7-Hqb6H97nyhliVRLqJK-417" value="" style="group" vertex="1" connectable="0" parent="1">
          <mxGeometry x="270" y="420" width="102" height="165" as="geometry" />
        </mxCell>
        <mxCell id="7-Hqb6H97nyhliVRLqJK-409" value="&lt;b&gt;K1&lt;/b&gt;" style="text;html=1;align=center;verticalAlign=middle;resizable=0;points=[];autosize=1;strokeColor=none;fillColor=none;container=0;" vertex="1" parent="7-Hqb6H97nyhliVRLqJK-417">
          <mxGeometry x="32" y="135" width="40" height="30" as="geometry" />
        </mxCell>
        <mxCell id="7-Hqb6H97nyhliVRLqJK-410" value="" style="rounded=0;whiteSpace=wrap;html=1;container=0;" vertex="1" parent="7-Hqb6H97nyhliVRLqJK-417">
          <mxGeometry x="10" width="80" height="140" as="geometry" />
        </mxCell>
        <mxCell id="7-Hqb6H97nyhliVRLqJK-411" value="" style="rounded=0;whiteSpace=wrap;html=1;container=0;" vertex="1" parent="7-Hqb6H97nyhliVRLqJK-417">
          <mxGeometry x="10" y="5" width="80" height="60" as="geometry" />
        </mxCell>
        <mxCell id="7-Hqb6H97nyhliVRLqJK-412" value="Cup: 25" style="text;html=1;align=center;verticalAlign=middle;resizable=0;points=[];autosize=1;strokeColor=none;fillColor=none;container=0;" vertex="1" parent="7-Hqb6H97nyhliVRLqJK-417">
          <mxGeometry x="15" y="34" width="70" height="30" as="geometry" />
        </mxCell>
        <mxCell id="7-Hqb6H97nyhliVRLqJK-413" value="" style="rounded=0;whiteSpace=wrap;html=1;container=0;" vertex="1" parent="7-Hqb6H97nyhliVRLqJK-417">
          <mxGeometry x="10" y="75" width="80" height="60" as="geometry" />
        </mxCell>
        <mxCell id="7-Hqb6H97nyhliVRLqJK-414" value="Cup: 25" style="text;html=1;align=center;verticalAlign=middle;resizable=0;points=[];autosize=1;strokeColor=none;fillColor=none;container=0;" vertex="1" parent="7-Hqb6H97nyhliVRLqJK-417">
          <mxGeometry x="15" y="104" width="70" height="30" as="geometry" />
        </mxCell>
        <mxCell id="7-Hqb6H97nyhliVRLqJK-415" value="muPlant Spezial" style="text;html=1;align=center;verticalAlign=middle;resizable=0;points=[];autosize=1;strokeColor=none;fillColor=none;fontSize=10;container=0;" vertex="1" parent="7-Hqb6H97nyhliVRLqJK-417">
          <mxGeometry x="2" y="5" width="100" height="30" as="geometry" />
        </mxCell>
        <mxCell id="7-Hqb6H97nyhliVRLqJK-416" value="muPlant Spezial" style="text;html=1;align=center;verticalAlign=middle;resizable=0;points=[];autosize=1;strokeColor=none;fillColor=none;fontSize=10;container=0;" vertex="1" parent="7-Hqb6H97nyhliVRLqJK-417">
          <mxGeometry y="75" width="100" height="30" as="geometry" />
        </mxCell>
        <mxCell id="7-Hqb6H97nyhliVRLqJK-418" value="" style="group" vertex="1" connectable="0" parent="1">
          <mxGeometry x="410" y="420" width="102" height="165" as="geometry" />
        </mxCell>
        <mxCell id="7-Hqb6H97nyhliVRLqJK-419" value="&lt;b&gt;K2&lt;/b&gt;" style="text;html=1;align=center;verticalAlign=middle;resizable=0;points=[];autosize=1;strokeColor=none;fillColor=none;container=0;" vertex="1" parent="7-Hqb6H97nyhliVRLqJK-418">
          <mxGeometry x="32" y="135" width="40" height="30" as="geometry" />
        </mxCell>
        <mxCell id="7-Hqb6H97nyhliVRLqJK-420" value="" style="rounded=0;whiteSpace=wrap;html=1;container=0;" vertex="1" parent="7-Hqb6H97nyhliVRLqJK-418">
          <mxGeometry x="10" width="80" height="140" as="geometry" />
        </mxCell>
        <mxCell id="7-Hqb6H97nyhliVRLqJK-421" value="" style="rounded=0;whiteSpace=wrap;html=1;container=0;" vertex="1" parent="7-Hqb6H97nyhliVRLqJK-418">
          <mxGeometry x="10" y="5" width="80" height="60" as="geometry" />
        </mxCell>
        <mxCell id="7-Hqb6H97nyhliVRLqJK-422" value="Cup: 25" style="text;html=1;align=center;verticalAlign=middle;resizable=0;points=[];autosize=1;strokeColor=none;fillColor=none;container=0;" vertex="1" parent="7-Hqb6H97nyhliVRLqJK-418">
          <mxGeometry x="15" y="34" width="70" height="30" as="geometry" />
        </mxCell>
        <mxCell id="7-Hqb6H97nyhliVRLqJK-423" value="" style="rounded=0;whiteSpace=wrap;html=1;container=0;" vertex="1" parent="7-Hqb6H97nyhliVRLqJK-418">
          <mxGeometry x="10" y="75" width="80" height="60" as="geometry" />
        </mxCell>
        <mxCell id="7-Hqb6H97nyhliVRLqJK-424" value="Cup: 25" style="text;html=1;align=center;verticalAlign=middle;resizable=0;points=[];autosize=1;strokeColor=none;fillColor=none;container=0;" vertex="1" parent="7-Hqb6H97nyhliVRLqJK-418">
          <mxGeometry x="15" y="104" width="70" height="30" as="geometry" />
        </mxCell>
        <mxCell id="7-Hqb6H97nyhliVRLqJK-425" value="muPlant Spezial" style="text;html=1;align=center;verticalAlign=middle;resizable=0;points=[];autosize=1;strokeColor=none;fillColor=none;fontSize=10;container=0;" vertex="1" parent="7-Hqb6H97nyhliVRLqJK-418">
          <mxGeometry x="2" y="5" width="100" height="30" as="geometry" />
        </mxCell>
        <mxCell id="7-Hqb6H97nyhliVRLqJK-426" value="muPlant Spezial" style="text;html=1;align=center;verticalAlign=middle;resizable=0;points=[];autosize=1;strokeColor=none;fillColor=none;fontSize=10;container=0;" vertex="1" parent="7-Hqb6H97nyhliVRLqJK-418">
          <mxGeometry y="75" width="100" height="30" as="geometry" />
        </mxCell>
        <mxCell id="7-Hqb6H97nyhliVRLqJK-436" value="" style="group" vertex="1" connectable="0" parent="1">
          <mxGeometry x="80" y="360" width="80" height="80" as="geometry" />
        </mxCell>
        <mxCell id="7-Hqb6H97nyhliVRLqJK-427" value="" style="whiteSpace=wrap;html=1;aspect=fixed;" vertex="1" parent="7-Hqb6H97nyhliVRLqJK-436">
          <mxGeometry width="80" height="80" as="geometry" />
        </mxCell>
        <mxCell id="7-Hqb6H97nyhliVRLqJK-429" value="" style="rounded=0;whiteSpace=wrap;html=1;" vertex="1" parent="7-Hqb6H97nyhliVRLqJK-436">
          <mxGeometry x="8" y="10" width="5" height="60" as="geometry" />
        </mxCell>
        <mxCell id="7-Hqb6H97nyhliVRLqJK-430" value="" style="rounded=0;whiteSpace=wrap;html=1;" vertex="1" parent="7-Hqb6H97nyhliVRLqJK-436">
          <mxGeometry x="18" y="10" width="5" height="60" as="geometry" />
        </mxCell>
        <mxCell id="7-Hqb6H97nyhliVRLqJK-431" value="" style="rounded=0;whiteSpace=wrap;html=1;" vertex="1" parent="7-Hqb6H97nyhliVRLqJK-436">
          <mxGeometry x="28" y="10" width="5" height="60" as="geometry" />
        </mxCell>
        <mxCell id="7-Hqb6H97nyhliVRLqJK-432" value="" style="rounded=0;whiteSpace=wrap;html=1;" vertex="1" parent="7-Hqb6H97nyhliVRLqJK-436">
          <mxGeometry x="38" y="10" width="5" height="60" as="geometry" />
        </mxCell>
        <mxCell id="7-Hqb6H97nyhliVRLqJK-433" value="" style="rounded=0;whiteSpace=wrap;html=1;" vertex="1" parent="7-Hqb6H97nyhliVRLqJK-436">
          <mxGeometry x="48" y="10" width="5" height="60" as="geometry" />
        </mxCell>
        <mxCell id="7-Hqb6H97nyhliVRLqJK-434" value="" style="rounded=0;whiteSpace=wrap;html=1;" vertex="1" parent="7-Hqb6H97nyhliVRLqJK-436">
          <mxGeometry x="58" y="10" width="5" height="60" as="geometry" />
        </mxCell>
        <mxCell id="7-Hqb6H97nyhliVRLqJK-435" value="" style="rounded=0;whiteSpace=wrap;html=1;" vertex="1" parent="7-Hqb6H97nyhliVRLqJK-436">
          <mxGeometry x="68" y="10" width="5" height="60" as="geometry" />
        </mxCell>
        <mxCell id="7-Hqb6H97nyhliVRLqJK-437" value="RFID" style="text;html=1;align=center;verticalAlign=middle;resizable=0;points=[];autosize=1;strokeColor=none;fillColor=none;fontStyle=1;rotation=-90;" vertex="1" parent="1">
          <mxGeometry x="30" y="385" width="50" height="30" as="geometry" />
        </mxCell>
        <mxCell id="7-Hqb6H97nyhliVRLqJK-447" value="" style="group" vertex="1" connectable="0" parent="1">
          <mxGeometry x="70" y="540" width="100" height="60" as="geometry" />
        </mxCell>
        <mxCell id="7-Hqb6H97nyhliVRLqJK-443" value="" style="rounded=0;whiteSpace=wrap;html=1;container=0;" vertex="1" parent="7-Hqb6H97nyhliVRLqJK-447">
          <mxGeometry x="10" width="80" height="60" as="geometry" />
        </mxCell>
        <mxCell id="7-Hqb6H97nyhliVRLqJK-444" value="Cup: 25" style="text;html=1;align=center;verticalAlign=middle;resizable=0;points=[];autosize=1;strokeColor=none;fillColor=none;container=0;" vertex="1" parent="7-Hqb6H97nyhliVRLqJK-447">
          <mxGeometry x="15" y="30" width="70" height="30" as="geometry" />
        </mxCell>
        <mxCell id="7-Hqb6H97nyhliVRLqJK-446" value="muPlant Spezial" style="text;html=1;align=center;verticalAlign=middle;resizable=0;points=[];autosize=1;strokeColor=none;fillColor=none;fontSize=10;container=0;" vertex="1" parent="7-Hqb6H97nyhliVRLqJK-447">
          <mxGeometry y="1" width="100" height="30" as="geometry" />
        </mxCell>
        <mxCell id="7-Hqb6H97nyhliVRLqJK-461" value="" style="strokeWidth=1;shadow=0;dashed=0;align=center;html=1;shape=mxgraph.mockup.containers.marginRect2;rectMarginTop=32;strokeColor=#666666;gradientColor=none;whiteSpace=wrap;" vertex="1" parent="1">
          <mxGeometry x="25" y="660" width="565" height="200" as="geometry" />
        </mxCell>
        <mxCell id="7-Hqb6H97nyhliVRLqJK-462" value="Commission" style="strokeColor=inherit;fillColor=inherit;gradientColor=inherit;strokeWidth=1;shadow=0;dashed=0;align=center;html=1;shape=mxgraph.mockup.containers.rrect;rSize=0;fontSize=17;fontColor=#666666;gradientColor=none;" vertex="1" parent="7-Hqb6H97nyhliVRLqJK-461">
          <mxGeometry width="110" height="25" relative="1" as="geometry">
            <mxPoint x="10" as="offset" />
          </mxGeometry>
        </mxCell>
        <mxCell id="7-Hqb6H97nyhliVRLqJK-463" value="Event Log" style="strokeWidth=1;shadow=0;dashed=0;align=center;html=1;shape=mxgraph.mockup.containers.rrect;rSize=0;fontSize=17;fontColor=#ffffff;strokeColor=#008cff;fillColor=#008cff;" vertex="1" parent="7-Hqb6H97nyhliVRLqJK-461">
          <mxGeometry width="120" height="25" relative="1" as="geometry">
            <mxPoint x="120" as="offset" />
          </mxGeometry>
        </mxCell>
        <mxCell id="7-Hqb6H97nyhliVRLqJK-464" value="Inventory" style="strokeColor=inherit;fillColor=inherit;gradientColor=inherit;strokeWidth=1;shadow=0;dashed=0;align=center;html=1;shape=mxgraph.mockup.containers.rrect;rSize=0;fontSize=17;fontColor=#666666;gradientColor=none;" vertex="1" parent="7-Hqb6H97nyhliVRLqJK-461">
          <mxGeometry width="80" height="25" relative="1" as="geometry">
            <mxPoint x="241" as="offset" />
          </mxGeometry>
        </mxCell>
        <mxCell id="7-Hqb6H97nyhliVRLqJK-465" value="" style="strokeWidth=1;shadow=0;dashed=0;align=center;html=1;shape=mxgraph.mockup.containers.topButton;rSize=5;strokeColor=#008cff;fillColor=#008cff;gradientColor=none;resizeWidth=1;movable=0;deletable=1;" vertex="1" parent="7-Hqb6H97nyhliVRLqJK-461">
          <mxGeometry width="565" height="7" relative="1" as="geometry">
            <mxPoint y="25" as="offset" />
          </mxGeometry>
        </mxCell>
        <mxCell id="7-Hqb6H97nyhliVRLqJK-489" value="" style="group" vertex="1" connectable="0" parent="1">
          <mxGeometry x="25" y="90" width="1200" height="30" as="geometry" />
        </mxCell>
        <mxCell id="7-Hqb6H97nyhliVRLqJK-481" value="" style="strokeWidth=1;shadow=0;dashed=0;align=center;html=1;shape=mxgraph.mockup.forms.rrect;rSize=0;strokeColor=#999999;container=0;" vertex="1" parent="7-Hqb6H97nyhliVRLqJK-489">
          <mxGeometry width="1200" height="30" as="geometry" />
        </mxCell>
        <mxCell id="7-Hqb6H97nyhliVRLqJK-482" value="File" style="strokeColor=inherit;fillColor=inherit;gradientColor=inherit;strokeWidth=1;shadow=0;dashed=0;align=center;html=1;shape=mxgraph.mockup.forms.rrect;rSize=0;fontSize=17;fontColor=#666666;whiteSpace=wrap;" vertex="1" parent="7-Hqb6H97nyhliVRLqJK-489">
          <mxGeometry width="83" height="30" as="geometry" />
        </mxCell>
        <mxCell id="7-Hqb6H97nyhliVRLqJK-483" value="Tools" style="strokeColor=inherit;fillColor=inherit;gradientColor=inherit;strokeWidth=1;shadow=0;dashed=0;align=center;html=1;shape=mxgraph.mockup.forms.rrect;rSize=0;fontSize=17;fontColor=#666666;whiteSpace=wrap;" vertex="1" parent="7-Hqb6H97nyhliVRLqJK-489">
          <mxGeometry x="83" width="83" height="30" as="geometry" />
        </mxCell>
        <mxCell id="7-Hqb6H97nyhliVRLqJK-484" value="About" style="strokeColor=inherit;fillColor=inherit;gradientColor=inherit;strokeWidth=1;shadow=0;dashed=0;align=center;html=1;shape=mxgraph.mockup.forms.rrect;rSize=0;fontSize=17;fontColor=#666666;whiteSpace=wrap;" vertex="1" parent="7-Hqb6H97nyhliVRLqJK-489">
          <mxGeometry x="166" width="83" height="30" as="geometry" />
        </mxCell>
        <mxCell id="7-Hqb6H97nyhliVRLqJK-491" value="" style="shape=image;verticalLabelPosition=bottom;labelBackgroundColor=default;verticalAlign=top;aspect=fixed;imageAspect=0;image=data:image/png,iVBORw0KGgoAAAANSUhEUgAADgkAAACUCAYAAAATHyiLAAAAAXNSR0IArs4c6QAAAARnQU1BAACxjwv8YQUAAAAJcEhZcwAAFiUAABYlAUlSJPAAAKeJSURBVHhe7N0HYBTV2ofxNz2QhN5774iCDQt2rCiWa+8F9Xo/r13vFQV77x3bVbFgrwgWVCxgA6QjvfdOevvmPXMmmd1skg3ZTYHnhydzzuzs7uzM7Gzc3X/emMFHH1s4ftxYAQAAAAAAAAAAAAAAAAAAAAAAAAAAtUusnQIAAAAAAAAAAAAAAAAAAAAAAAAAgFqGkCAAAAAAAAAAAAAAAAAAAAAAAAAAALUUIUEAAAAAAAAAAAAAAAAAAAAAAAAAAGopQoIAAAAAAAAAAAAAAAAAAAAAAAAAANRShAQBAAAAAAAAAAAAAAAAAAAAAAAAAKilYgYffWzh+HFj7bB0eZt22F6x2DoJTkuyo5Lyt2VKYV6+HalCKSyMkYTGqXYcHYXZeZKfnmVHJcXWTZTY5EQ78it0Hmd6Ub9QYpx/IvGNoru+fiW3c6HEJiVITEqyWZdo2rJli+Tn50tMTIzUr19f4uLi7CUl6bIFBQXO/nS2krN8w4YNzTTaNm/ebO5TW1pamiQmhtqP0ZWXlyfLli2TH3/8UZYsWWLninTv3l0OO+wwadasWZVsC5WVlSXz5s2TyZMny5o1a+xckb59+8oRRxxh9mO06P7X48A7Bsqiy6gGDRqUeVztDN0f27ZtM/26detKcnKy6QMAAAAAAAAAAAAAAAAAAAAAdi3vTF0m89ZttyPXWf3bSbemaXYEALunMEOCBfJ7y6skZ+M2iXWzPkbdvm1kjyn32yhdsYLCAomJiZX1b0yUhZe8oDk3o9BZTJcdmDPanRElW3+aK7OOuFtiCnwr61N3j3ayx5/3mX5wtGlS0nnO9QqkUB+os8J6+f45b7oXRllhXp5MTrlQN6CdIxLnrEGr20+R1sNPjnrwTMNbGvxSXqgrlE8++UROPvnkonDYddddJw899FDU12/VqlXSpk2bonX76quv5KijjjL9qqD3++ijj8oNN9xgxvp4Q22ns846S9566y07io7c3Fw555xz5L333it1PdTTTz8t//znP6Oyb1544QW54oor7Kh8ug7e8RVJQ4cONcekmjNnjvTo0cP0AQAAAAAAAAAAAAAAAAAAAAC7htjrxkgpX5sv0rp+HVkx8kQ7AoDdS6ydliPGWbJA4vSMqmEjrznz9Z/W3POLjXFuVoOCOvAtb3J3ZolyzsyVoavotDi9C999+1v6jKWSvzXDXb8g+lgKYzV0pZfqYwu1VOTp6rpbRR9A8brmO9vdnR+99dCAmdfKM2rUqKKAoNLAXFUEBJWGEf3rePHFF4e1zpGg99OtWzfzeL3HWtp9v/3229KoUaOorVtGRoY0bdpU3n//fTMu637+9a9/yd57722WifT66HaoyH6Pxjoo/3pE4/YBAAAAAAAAAAAAAAAAAAAAANWjwX8/lJhr3YDg4V2by/G9WoVsXZqkysqtmWbZ139fYq+NisrMzZdYZxvqdiytpd7sZhkA1CxhhgQ1fBMjBUGBoMKi+FpQUMiZrZUEg+M6hc71Y02IJ/xgUYXpTTvNi9YVceaZ1dep82/hsBecQdAy3qoVaDTQGVRh4MhdNbuCPu5IK/ZFb138IauyQl+//fabqRznBbH+/e9/ywMPPFDmdSLp3XffNdPYWPewXbFihWRnZ5t+tA0ePFgWLFhgHmtycrK8+OKLZjv421NPPWWqMarNmzfLPffcY/qRpPfTsWNH2bp1q+k3b95cvvnmm4D10HbllVfaa4hMmTJFJkyYEJX9pPelXn75ZZk+fXq5LVrHirceVXUsAgAAAAAAAAAAAAAAAAAAAACiS6sHbs3MlaO6NZfjeraU5PhY893xpZvTZdKSDaZtTM8287o1TTPLdGiUIhe89ask3vCuM9/eEMq1bHOGCQfWvel9E605pHNTsz2DW49m9SQ9J78oMMg2BmqO8CsJ6k998uoz2LZS4zj2AjPxLa9nigJzSZQ59+NOffddoOEpOy8mRjZ9+IdG7+xy7sQM7Qp6lznXMtPos/fjraNtJvxkLrLrGmVe2Mrjjb/77jvZb7/9zFiDWLfeeqs89thjVRbKevjhh4vW5aOPPiq637POOstMo0kr93377bemr/e7evVqufTSS83YT6v2TZo0yY5ERowYIQUFkT3i58yZI+vWrTN9DUuuWrVKjjjiCDP2e/bZZ+WCCy6wI5E777yzxL6tLP/tderUSfr27Vtui4ZIPy4AAAAAAAAAAAAAAAAAAAAAQPXyAmjH9mwp8XGxpsLd2DmrTZu5eqtsysgxbfLSjUXz9ZvlPZvXM9fJzS80IUO+bl4+3U7t7/xMEpztrNtOW93EeDfeEtQ6Nk4pWkbpdSc5+wBA9Qu7kmBtF5MQp2ki7TnTAk17yYoR75lZhVWTc6t1vPCVBtMOP/xw01dXX3213HXXXVUWEFT33XefmaalpcmQIUNMX40bN07y8/PtKDoWLlxoeyJdunSRevXq2VFJ++yzj+2JCQhGeht9+OGHtifyyiuvlHn7r776atHl/vAiAAAAAAAAAAAAAAAAAAAAAAA1Vdx175rpMT1amszHl3NWy3cL3GI7BY+eIYWPlWxKl/tz+SZzHb2uemFScR4AJXlhTN1eh3dt7mZswmx6ndb168gBj38jBz7xrQkRAqg+u01IsN7+XZ2zV4Fz0imQGOdhFzj9Ffd9bOrzaYVETkYlacBs0aJF0qtXLztH5IYbbqjSCoJqy5YtsnnzZtP/5JNPzH1ffvnlZpyVlSUzZ840/WjZvn277UlRINELUIaqYqfhQJ1f1jI7a9myZbYnUrdu3TL3g17mrUtOTk6V7jMAAAAAAAAAAAAAAAAAAAAAACoqN79ACgoLi0J+4+auNlMvHFja1+L1sh//73BZtyNbpq/eYua1b5giV773h0TwK/27FA0IKm9b74y+LRvIgR2byC9LNsjEhevtXADVYbcJCRY4reVNQySmMMaEpmILnFcG50S//oNJzplNg4Kc9YOtW7fOVM7z3HjjjfLggw9WSdjMH6zTddBxXFycHHjggWbeE088UbQehx56qJlGS7NmzcxU709Dk15oUNcp1Lbwz9N+qGV21qBBg4pu77zzzjPTUPzbryqE+xirer0AAAAAAAAAAAAAAAAAAAAAALVH4g3vmWmh82/2mq2mrwHBcL6yflCnprL4thNk1dZMc/0ezdPM/LZ3fCp8lT3Qaa/+bKZH92hhtlVl/qUmxUubBnXk0KcnsJ2BarTbhARjnH/th58uhXGBrwyLL33JDS5FLsdVq3lhr40bN0rr1q1NX1199dVVFhBUej+6XzZt2mSaOuKIIyQhIcH0ExMTpWvXrqavlQbXrl1r+tGgIcW0tDSzPtrq168vF154oUydOtUuUXWGDBkisbHu0zY7O9tsp9tuu03mz59v5nkhvKraTx7vfsuiy1T1egEAAAAAAAAAAAAAAAAAAAAAapfB3VuIfkV92ZYMefmsfaUiX0Pv0CjFTMfPXWNuo3vTNFm5NdPMQ7EPpq+QPVrWN9soEq1X8/rmdmOvG2PGAKrebhMSLJQCiUmKlwaH9rZzXHkZWbJj8t/OAoSXlBf20up5eXl5pv+f//zHVO6rahoou/vuu4vW6eOPPw4ImWlw0RvfcsstZhoNev/Lly8vui+dvv766zJgwACJj4+X5s2by3333WcuizYNKL7//vt25NJt1K1bN6lTp460adNGXnvtNTM/nOBeJOj2GDlypPzjH/8osz3wwANVtk4AAAAAAAAAAAAAAAAAAAAAgNrl4e/mmql+63zdjmzTv2ifjmZaEYWPuZUH9Xba2dAgiiXe8K6ZNq9Xx2yjSLWjurdwfgKoLrtNSFC0VGBMoXR5/SrT1UygRr50A/x94XPOTz0lwdOkSRPbE3nppZeKAoNV7bHHHjNTDcclJyebvueqq5x9aY0ePdr2Ik9DcPXq1TPVFQ855JCAoFt+fr6sW7dO/vvf/5rltF133XX20ugYOnSozJ49W9q3b2/nuLKysmTVqlWmyqGuR4MGDeTxxx+3l0aPbo8ffvjBhBfLar/88otZLwAAAAAAAAAAAAAAAAAAAAAAgt346V9mqt9Rn7Zys+lXxrasnKLv/y/dnG6mEMnNL5S9Wjcw2ybSTWkI0XYBVKHdJiQY45xgCiVGEpqlSUK7RmZeYUyMFDjT7MXrJXsLJ3y/1atXS926dU1//fr10qdPH9OvCt4LwzvvvGOm6qmnngoZMDv88MPNVEOMkydPNv1oadiwoXz//fdSUFBgquLpOC4uLmC9tK/BRp2uWLHCzo0cb9v07NlTlixZYsYXX3yxCVHGxgY+nbdv3y7XXnutWcecnBw7Nzq0imFqamqZLSkpyS4NAAAAAAAAAAAAAAAAAAAAAEBJcbExRSWgDuzYxK0OtZN+Xbqp6LbOHT2Z0lI+jVKSzPaIdOvdop7kFWgPQFXbbUKCBc4LgwYFYwpjpPub10isDVvF2FeMBac95p6RYGjgbNGiRXYkMm/ePBk4cGBRSC2avNDd1VdfbaY6Pv30000/mL9S3pFHHml70aXrc9NNN8mmTZtMOFHDeh999JHsvffeAdunW7duEd9e3rbxe/nll2XLli2Sm5src+bMkVdeeUUaNWpUdN8aatxnn32iuu/Gjh1rQolltffee88uDQAAAAAAAAAAAAAAAAAAAABA2ZqkRK5QDcE1102fudUao6VFvTq2B6CqhRUS1FOhF6YLkG9PksHnSh07LXvphsDLnHsLFXKqCiZLrncdUyhp+3YWqZfiDLWOoLNazkXbfpoj+RnZzvq5gUKING/eXKZNm1a0z3799Ve56qqrTOgs2hYuXCgbNjjHj0PDbcnJyWY9glvfvn3NMio9PV0WL15sR9ERKmjXrl07GTp0qPz+++8yadIkO1ckMzMz6tUN/TTY2aNHD7noootk48aNctddd9lLRKZPn257AAAAAAAAAAAAAAAAAAAAAADUTAUFheJ9bf+reWsCMykV1K5h3aLbuuGw7qFSMVGhOYynn35ann/+eZk4cWJUC/5U1EMT5pqprlK0GoDqEXYlwYTkBE342ZFrx5wVzk/nGRx0piy046xZK92OZU5sTqv257yzfp0eO9ddD10f53HFFsTI8uFjzMOR2Ko69dd8e+yxh6kSp3T/6YuUVtGL9ovUP//5T3MfGgRU3jQU/2V33313xNfNf3tlrYfaf//95fzzz7cjkbfffjvq26o0w4cPl1atWtmRyF9/RTfxDwAAAAAAAAAAAAAAAAAAAADAztqvfSMT6dDv4DdNTZLM3Hz3gp3UuXFq0ff5T+nbxkyjZdasWfLwww/LE088YYoPJSUlmaaFkEaPHi1vvPGGvPfee3bp6qfbJVpNbc/OM1MAVSe8kKDzJE3o0sJM/WKdf9unLXPm2xkeZ1wYUygbPvzNznDFSoHE1kmqsvR1aXR1m54/yPnprIlZmUJTPXD10+Odh1ggcfnRr5RXW2go7phjjpH//Oc/Zqwn7EceeUQ+++wzM46Wr776ykwbNGhgQnfnnnuunHfeeQFN53uXeV555ZVyg3wVdeCBB5rb1BZO0G7fffe1PZH8/Mr9UhJMqwV66xKO/v37255IXh4vsgAAAAAAAAAAAAAAAAAAAACAmmnyNUeZqWY+ereob/oFQTmWcBw/Sqv3ubeTX+BeP9I5A7+77rpLvvjiC4mPj5eEhATTEhMTTUgwOTm5qBUUFMhbb71lr1W9dKtEq6m0pHjbA1BVwgoJaqW9dsNPkUJn6VgbUCpwnrr6b/aBt0rOmi3ucuZngRRkZcvvTS8zgTtDK/M5rcAZNz1zoEQ2NlVxMc6KxhTGSKsbTzQrHatJQXsmch6d043eyb+2uvfee01YznPSSSeZErjKn/auDO82br75ZjNVt9xyi7z22mvy+uuvl2g637usZ8+eRS/aOo6kgQMH2p7I7bffbl6YVajHrPPGjx9vRyKHH354RH+Z0F8aPLNnz7Y9V6j1mTBhgu2JDBgwwPYiL5q/MIWrJqwDAAAAAAAAAAAAAAAAAAAAAKBy5q/fXvT9+Pjr33X6phu2sXNWS8/maeY2Ji5ab+dGx8iRIyUuLs604JCg17yqgtp0/Pbbb9trV73GdRPNVLdNtBqA6hFWSFAXSh3UQxKb1ZeCGOdJ6/yLizHROinILZQ/2v9L/mh1uUzre4NM7Xa9/Fr/YsnfmuVc6iyhAUFNXjstRhKl3SPnSlx1P+dtlqjNrSebx1bg/BMCRuX68ccfTRhPaSBLQ2fp6emmX9mAlr4Q6G3o9JlnnjHzdHz99debfnkefPDBoheT2267zUwj5cILLyx6fFpBcc2aNaYf6jGPGzcuoMriKaecYnuRoWFNT58+fQKqAwavj267jIwM009LSzPTaKkJL+T8MgEAAAAAAAAAAAAAAAAAAAAAtdu/B3WTlVszTR2oQZ2bmnmx142RcL8uHnPtGDNtmprs1ZKSgkfPkBBf/6+0//73vxIbGxsQEgwOC/oDgl5IUOdXV0XBX6450kx120SrAageMYOPPrZw/LixdlgKezbN3bhDprS7Sgpy850TpCZ8NRzm3Ihzmamt5nTMPF3euaDQmRsTE2sCgoVxMdLvl7skpX8HZyF7pSjZ9uNcmXXEXQFnl7SDu0ufCbc7PWem3r/pFcpfe98smdNXOutTPF+ZVbSzDsh5086NJmdt8gpkct0LnK5vxWMKpM3w06Tt7afaGdGjL05e0KqswFWTJk1k48aNpq8vYOvXr5eGDRuacWUtWbJEOnbsaPpDhgyRTz/91PTD4Q/JrV69Wlq0aGFHlaPbomXLlrJ27Vo7xw3gnXrqqWZbbNu2TRYuXGhe4HXquf/++wOqIkaChv7q168fEA7U+znyyCOlXr16Zr/MmDFD/v3vf0tmZqZdQmTSpEmy//7721FkvPDCC3LFFVeYvt5/8+bNyzxu1OjRowP2UyQMHTpUPvnkE3O7J5xwgtkOZa3HJZdcYio8AgAAAAAAAAAAAAAAAAAAAABqHi/od3AnNyT4o60GWFbYb/qqrdLvoXGmX5Hr7azZs2eboF9ycnJRANDf95oXClSaA8jJyZHs7GzTcnNz5dxzzzWXVSXdvt42irSfnG2u3+aPVjATQOnCCwn6FGRmy9TeN0ruik3u2Hn6xph0oPOffQJrPLAoYWee1YWy17wnJLlDE3eBKNs2ca7MPOoOiSkoLpSYdnAP6TPhNrOe/oBi3pZ0+b3Z5e7qmgtdGjgyQaOYAhmYE/1Srua+8wrk55TzJK6geAV1PVoNP9mEBH2rHRUa+CsoMHHPMkNWWj2wUaNG5sVJ6QuXBtIqE/7S+9Pr64uivtgprdinwbNwXXvttfL444+bvobF/BX9KksfX0pKiun7t03RcWJ548cee0yuueYaOzeyli5dKh06dChx36WZNWuW9OrVy44ixx8SDJceX5U5TkLxQoLhevHFF+XSSy+1IwAAAAAAAAAAAAAAAAAAAABATaNBttiYGDmwo5tD8QJ/KjEuVj4fNkgWb9whl7/7h50rUjcxXga0cQsgRTMgqG688cYSAUFv7O97Tb9Hr1mJrKwsk8XQqbbzzjvP3mLVCQ5hRpJu9++uOkwO7dLMzgFQVYpTdGGKqZMoAxY9Kb1/ukMaDh0gsZpRKtRgmYYF3eYsJZpdSt2ni3R55QrZP+vNKgsI6t3H1EmQpPbNJNG5T68ltKjnXhx0co+vnyL1Du4uie2LlzXLt2/srHNj53aik44OZoKWTqsbvN5Oi29Q13lY5YfBKqt9+/ZFrSwaltOKeRpU02W1yt6gQYPCCqyVRl/wNm3aZKr/6W0OHDiwQgFB9dBDD5nr6nppNb1IqlOnjnkh1mqBqampdm5gYFDT/ZdddpmprBitgKDSx7h161bzFwM02BlKgwYNZPjw4eaXiJ49e9q5kZWWlmbWpSKtMsdIaZo1axbyvkprXtgTAAAAAAAAAAAAAAAAAAAAAFAz5T5yuvn+uYbONE9xUKcmpsXGiOTkF8jg574vCgi2bVDHXNa/TQOzbLQDgn4VLaITvLwWV6pqhY+d4U4j/O+vVVvM7R7SmYAgUB0qWEmwUAokpihZqE/iGJu6MxPnBKwnLI0BeactEwnSYJAzv2Knvp1QdMfuCaZ4TZUGGZ1xgbOQvipY7lXMWppeEXtbRTcZZSY75dxRjLeePsXrGN010RdQs//stDbzwmiRfBz+26zObRRqP5W1PtW5rn41ZT0AAAAAAAAAAAAAAAAAAAAAALVD7HVjpLBQpHX9OtKhUfkFY1Zvy5JFG3dENSA4efJkef/990tUDAzuJyYmmqYFiVReXp4pXuRVEtSiQNq0WFFV86oJepUaI+HnxRvkrfMHyll7tbNzAFSlClYSDIzdmdifnjS9iT2Duj9d3nz/vKgpuhO9v+CHZse+gKByR2YtTa+IHQbNjRrddO59ldwl7vzor0nR/ovWK2EVMsdchB+H/zarcxuFWoey1qc619WvpqwHAAAAAAAAAAAAAAAAAAAAAKB20LDfcT1bysqtmSaE5rW/122X2Wu2mb7WktKSQNpa1Es210u84V0TLoyG6dOnmyI62goKCkzz+vn5+WaqgUBtubm5RWFADQfqWJsu5y1b1VY521LVS04o2m6Vbbof1Jl7EhAEqksFQ4IAAAAAAAAAAAAAAAAAAAAAAABA1fhi2CApfOwMyX3kH0Xll9anZ8vmzBzTn7RkQ1FoT9vADo0lT5ODUeKF+/xTf/OCgBoK1HCgVg30KgfqPC9A6C1flVZuzZDWIz+VtKR46d2iXsB229n2iw0IRrN6I4DyERIEAAAAAAAAAAAAAAAAAAAAAABAjRYfGysFj51hAoP+plZvy5LCQilqKva6MUX9SOrWrZsJB/oDgl7wz6seqGFAbV5A0B8S1OYFCbVVlfnrt0ubkZ/ZgGD9gO01acnGgHE4TYOYej1FQBCofoQEAQAAAAAAAAAAAAAAAAAAAAAAUCudukcbWbIp3Y5c+7dvbKbTVm0x00g64ogjAsKB3tQf/NMgoBcK1Km/+UOCRx99tL3V6Fq5NVO63TtW0pITTEDQb/JSN+inU69fluy8ArPc78s2ScdGKSa4SUAQqH4xg48+tnD8uLF2CAAAAAAAAAAAAAAAAAAAAAAAANQeMdeOkdiYGNmnXSM7R2TKis2Sm18QlSp3V1xxhSQlJUliYmJAS0hIMC0+Pl7i4uIkNjbWuW/3zgsLC4uqD3qhwhtuuMFcFk2rt2VKqxGfSqqtIOj3qw0F6jbKd9Yv8fp3pdDMKaZrHzxPeVUcAdQMVBIEAAAAAAAAAAAAAAAAAAAAAABArbX+7qFSUFhognhe26t1A3NZv4fGhwy5VcbQoUNNyE/Dfl7gTysEBlcOzMrKChj7m14n2hZs2CGtbUCwV/N6AdvHHxDUHGN8bIypCqjhv++uOsyEA5W37fZu21ByHj7dXE5AEKh5qCQIAAAAAAAAAAAAAAAAAAAAAACAWk2rCSp/NcGtmbny9/rtUakmOGzYsKLqgTrV6oH+KoJlVRLUNnz4cDM/WlZsyZB2d3xmAoI9mtezc12/L9tkpoT9gF0HlQQBAAAAAAAAAAAAAAAAAAAAAABQq3mBt/wCrZSnoTyReskJZl7sdWPMOJJGjRplqgGWVUUwVNPLoh0QXLs9ywQEUxLjpXszrSDobg9tBASBXRMhQQAAAAAAAAAAAAAAAAAAAAAAANR6WjVvyorNUuj7N6BtQ3tp5L3wwgtF4cBwgoI677bbbrPXjo4FG3ZIy9s/kbrOtujePM23JQrlj+UEBIFdFSFBAAAAAAAAAAAAAAAAAAAAAAAA1Hrb7z/VTBdtSA+onqeiUU1QaUXBVq1aBYQDQzUNEN5zzz0SFxdnrxl5K7ZkSrd7vpAUDQg2TQvYBn8u32yWISAI7JpiBh99bOH4cWPtEAAAAAAAAAAAAAAAAAAAAAAAAKidHvv+b7nuk6nSv01gBUGtMPjZZQfLCb1a2TnRceWVV0pMTIzExsaa6SOPPCKJiYn20uhZtyNbWtz2sdRNjJPuzerZuS597IqAYO2jIdRwDRs2zPawOyIkCAAAAAAAAAAAAAAAAAAAAAAAgF2GVzVwr9bFQcGFG3fItqxcKXj0DImJsTN3EQs2bJdu94yVuonx0q1pmp3rmrqSgGBpKhLAC1anTh1p0KCBtG7dWvr372/nRh4hwV1XuPv2zDPPlHr1AoO/ocTaKQAAAAAAAAAAAAAAAAAAAAAAAFDrZT74D9EcYKHvX6fGKeaylJvfN9NdxfItGUUBwa5NU32PuJCAYBRlZmbK6tWr5Y8//jBhr+CWkZFhlwSqBiFBAAAAAAAAAAAAAAAAAAAAAAAA7DKS4mNFU4LTVm4xFQW91qt5PcnMzbdL1X7rdmRJuzs+kzqJcdKlSWrAY9XHrrRyIqre6NGjTVjwo48+snOA6CIkCAAAAAAAAAAAAAAAAAAAAAAAgF2KhuNiYkRy8wuk0Blri49zYzQx144x09pswYbt0vy2T0wFwS5N0ooeo7a/VhUHBHUboPqsX7/ehAWBaItaSFBPKqFoGrmqmLsq/rFzqnB9Q9L7r+51CKIlZ911CrFi9qIQl1SZcu87mivnPfgI3IfZzpXmu41Sby4S96MCb6dQ9K8rOPOcJ31l7yFSawgAAAAAAAAAAAAAAAAAAAAA2H10aJgis9duk0L9XrttfVvWt5fWXss2p0vXe8aagGDnxikBj286AcEaSYOCGhgEoiVm8NHHFo4fN9YOI0RzQc6kxMnEOdlovdZCZ35VnGfce/N3wuddRU+QMVE6K5r70JOwc/ul3oNdkWiux85wV0t/un0d6bjA+Rmr+9mssztX/6tSzv0WOPcZa9fSz6yrrle01sncgTOJcfZXpR64u+4lH0FF6Yu8yPaJc2Xx9a87Q7uCjvqH9JL2j57vHIMFzp0E5oVD3a97Vfu4fBc69+D8iJEZ+/5HCguKb9+5Ydnj9/sjctya9TF3U9ntCgAAAAAAAAAAAAAAAAAAAADYncReN0biY2KlR/M0O0dkxuqtZlr42BlmGo78/HyZMGGCzJs3z3xP3mtKp71795YDDjhA4uLizLxoWbcjy1YQjJPOjVPtXJf3uAgIhqc6KvydffbZkpoauN/KUpF1HDZsmO2hNgh335555plSr149OypdVEKCGmhTweEgN+imSZ9Y50I7s4Yyj8E7WZuf0WG2id5DKXfiXV4crDRJqWrefs46FDgTZx1MwFF3t1kfnelG84pVU6jLW4mAu3bXz1wWtVXSyJx745W5Cxu3tKPK2/jZnzL/tEdF84CeRif0l+4fXescY8W/mBTTcsq654rnl7fZJiWd71xNqwd6YmRgzuvOpPKPwz2lOD/0eDNzAAAAAAAAAAAAAAAAAAAAAAAo3+SlG+WAx7+R3kEVBGeu3ir3n9BPbj6ih50T6JlnnpHc3FzzfXttycnJUqdOHYmPj5fY2FgzT6falOY/MjMzJSsrq+g7+omJiXLeeeeZfiQs3LBDutzzhakg2Klxip3r0sejCAiGrzpCgqoiYT5CgruuKg8Jrn3pW1n50OcSY1NhXvYqvmGq7DH5bjsK5IWJtoybJouu+Z87w9AAVawMmPeo04/uGacwN1+m9r1Bz7JOc+7LJNnCt8cvd0l84+KUeLRM7XGtG9wqZf28AF5scqKk9GsnaYf1lqZnHeyM490FqkFBXp6seforWfv0eMlausHOtWFG7TrrG98gRZpferi0HnGqxCXpukZ3fwebtueNUpiZ76xPcSouZY920v3da51Vid666OOf1v3f5jh3RztHt+Recx9zOpEJ2G3+/E+ZFxwSHNJfenx4nX1+6Bz3YMtauFZmH3+/W7nP9xicX2EkuWdr6fHR9UHb0L3e5KTzpKCg+A40Lrp/zptBy+6sQtnx22L5+7ynTL8yur19taT272RHAAAAAAAAAAAAAAAAAAAAAIDq8Oabb8qGDRtM6E6bVuDTwF1SUpKcc845dqnI0GqC+t363i2Kg4JakW/9juwS1QQfeeQRsy5paWlFIUCv+YOBXl+nXtOx8qY6b+PGjaYKobrwwgvNvJ2xbHOGtL/zM6mbECcdgyoIzlpDQHBnVFdIUIUb6CMkuOuq8pBg7rpt8nvbK8REwJwTYlGWLS5W9s94XWJi3WBYwDnELjP7uPtl6zcz3IEVl5oo+25+2elVPvxUFg0JTk65wA68lQ7f3quek4Sm5W/Ayvol6VyJKQhv/fSFwDwUZ9OlDewkvb8d4WxQjeZFd1u6nDsujJH02Stl+oCbnHV297ipuFgaZxG9tPsbV0njMw5w51WRyQ0ulsKMbHcFrNR9Okrfn+/SDWnnRMekxHPc50QZmyYcA3NGR2RddTU2fz5F5p3ySMD2aHBif+n5gRsSLMoJOqbvc6tk/rVE9FeQgMeg6+L8NzBL18vOU84yhTEFMjnZeb7l+1KIzkL7Z+s5IjLH57Yf5sjMo+6u9Hbt9MKl0vziw+wIAAAAAAAAAAAAAAAAAAAAAFCVnnvuOdm+fbsJAyYkJJhqezr1QoJudqLQBOsiWYVPg4I9mwfmRGav2Wam/qDg2rVr5e233zYhQW+dvPXyT72mvPllNaW3rQYPHiwtW7Y0/XBomLHZbR9LnYQ4U0HQ/7V67zEQEKy46gwJXnDBBeY5UB5CgruuSIcEy03vJDRxTmopdSSuwDkp+U8j+QWS/vsCp6PxwRCcmVsnzLQDyznbtLz+RKdTFaG2XY/Z+jGFopnC7b8skimd/k9i3DB5lcjduF1m9L/FeeXQddEwWBlpLXNQFEqss8j8856RHX8udl6k/QEyVBUN1bnP0cDnnTvP99P5JUozn+nTl5hfqIKf2aaqoHPwLRv5rp1jOYuZoGrQ/i107lh/kfFXIwQAAAAAAAAAAAAAAAAAAAAA7L5GjhwpW7ZsKaoeqAFBryUnJ5dob731lr1mZGigTr8377UeQaFB1bx584Bgn8eb52+lzS+taTBQ28SJE+X1118vCg2WZdHGdGl+28dSN1EDgqkmU+KtPwHB2uu1116zPSAyyk/rxcZI19euNIEfKQxcfNUTX5ipc0kgZ9nMRevtwMc5A7W65tgQV6gaFbrbalrHMjnbT8/ZblizQHJWb5GNH/5pLqoKv7e63FkFTSU696/V55ye9xqS3KmZ05rbkc53LrGvMLrczENvL1oWIQRvnEhuLOe2GpzQXwbmvCEDc98sat0/uN53mDs9Z7lV93/s/rLg9GMLC5y5xUvoHtdduuKBz+ycQAOzRwfc/gE5b9rHUXwblWOOKgAAAAAAAAAAAAAAAAAAAABALTR8+HBTmc9rXlDQqyboDwpqhTVv3ptvvmlvoXK8IF1GTr77vXn9qrv9unvMtWPcjvXvf/9bMjIyTLBP+adeX/nHXj9U8y73NGrUyIQFJ0yYIG+88YadW9LSTenS9Z7PpW5ivHRslCIFBW5xIG1z1hZXQfTdNIDdVMzgo48tHD9urB2GVpidJ5PTLrQDewZ0xDonkX1zRkuMFhDTgc/UHtdL5qI1poqZn4aHTCm6KFcTLMzNl8kpF9iBsxLO6jmnVmlz00nS4obj3PlliK9Xt8RjioZfks51tl/gRur01MXS+Mz93YGzqTLmrpRZh94ZsO11w5rqbYkxsv/21/XVwl4QHbkbd8ifLa9wViFwXQvi42T/dS9IXFqyMyqU/O058mvjS02/mL6oieyz4lmJb1p+ectImNzgYinMyA5YjdR9Okrfn++K6rbSu8t3XoQ1TxtwL84Fv7W4zJk628K3TvUP6SVd37/Gnee/gjOOa1A34JeAaDJPEeeufm85TPI2pNu5zjwtfexcaPa7Ph90vZz53X+4TeoN7Or0YgMfZ7Q491uYnyf525x96jt1OLNl69czZf65T7qnFY/zYPZZ+3xR3y97+UZJ6dvOjgAAAAAAAAAAAAAAAAAAAAAA0bZ9+3Z58MEHiwKA/jCgPxSogcHY2FjJz8+X3Nxcyc7ONq1Lly4yYMAAe2s774DHv5FJSzdK92Zpdo5r3rrtsv3+UyU1Kd7OEXnuueekTp06JtCo6+Rv+l3/0qahmgqe6vf0tZ+enm62z7nnnmvme9bvyJaWt38idRLjpF3DumZevs2f6PoqDQhi540aNcr2yjds2DDbK11Fbk/pcX344YfbUWiRXkfUHOHu2zPPPFPq1Ss/jxVeUi8xXlL3aG8HxQqc81Luqi2m6phfoXPSyV6xoUR4qM83t4qpTBZUkbAq6P2anFNyvMQ3SCm3VUVAsDRxdRMl1lsX50Re74CusufMB+2lxQr0AWX7k1HRkzl/tbMFC9yKkj6NT9hT4lKSnct0ezkvdmlJ0vX1q5y+Luc2syWddc1et1V7uzR9xPGNnP1Wv/hYcltd5/nivOAHbj6JSYgp2s/+5eMapjjbreqOwRhnxfIzciVvU6ad42py9oHS4Nh+JmhngoJO01qSK25/3/npBgirhG4K/SsRznbxb6cE3VYpiWa7B3DWK76+s00bpgYsr42AIAAAAAAAAAAAAAAAAAAAAABUrbvuussE4vzNC9xp8yoLeqFBDQzq2AvozZ49295S5fxyzZH69XhZuGGHnePS7++n3fKBHbmuvPJKE1DMycmRzMxM07S6oIb6vKm2HTt2mKZBP6/pfO9xKv/j9ubp49Lb0RYcEFy0cYe0GvGJ1E2Mk/Y2X0BAsOaraEhvwYIFtgdUXlhpPT39tL7LOXmYkoE+BTGy5Po3ik5Qnh1/LpL8vDw7spxFUg/obk5MBTEaM6paMYWxEhNb4Nx34LqWyjl3FpSMHlWJwhjnRc72dcNpOC+pbRM7dmn0ToNdqX1a2znRZmKWGgO0Y9eWL6ZIQdG+LjD7t+mZA+WAnLeK2v45r8vAnDclpXcbu9yuK9YrZxd8mDnHXbymaUukBN1ZNkpZRPe6Lq77viro/f/V9zqJDQr9dX7lcml+xZEmHKrrqc91PQ62fe/8glXo7u8qofdtuwH0lxxnnXSt/ExwWWcFzgYAAAAAAAAAAAAAAAAAAAAA1AD+HIoXnNPmBQZ16vEuywvOqeykjXefLHkFbiEqr3VtmmouO/uNSQFfQ+/YsaNccsklcumll8rFF18sF110kVx44YVy/vnny3nnnWfCfeecc46cffbZctZZZ5mKX2eccYaccsopJji4bds203T9lX+qocOsrCxzPb8lm9Klx71jpU5ivLRrmGLm5RUUmPUkIFjzUc0P1SWskKCmcxod09eZOida50SkhQBNgCmmULZMmOHGmMyJUX+IrLznQ4m1OUA9cel10vbpIjEJcWaec8o20yrlrKueqN2fpXMvdX46jy+2qgJQQQoLvRClBsWcfmGcpP+x2H0x0BbrvsBpJcdOb/yfOy/KUvZob/Zb8PYrzCuQXxtcLAvOekLSpyx1Li0OtRVtS+ea+lMPj12f+5QKtUfc0GngU848Z3S32nExDb7pz/CeopXm7Mec5ZvNOposo/N8ia2XZNah/rF7Fa2HKWesD8O5YNnwd805oEp4G8iberTip66CSQUWM6ullwUvDwAAAAAAAAAAAAAAAAAAAACoUj/++KP5LrrXlH9cUFBgWn5+vqnap8G53Nzcovlee+ONN8x1K0KvN3LkyKL7VQ3rJprp3+u3u19Ht61lvTry9pRl7sAaPHiw7VWMhhxPPfVUOe2000zT6oJeWFCbVijUdvrpp9truNanZ0t3LyDYoI4zxy1JpPV1dH0VAcGab8iQIbZXu+nzZtSoUWG10aNH22vVLuE+xvfff99eo+aKGXz0sYXjx421wzI4D3rOiQ/Klq9mmBNMoXOGMUE1599+G16U2HpavtTdOL8mne908ouq9mlgp8+3wyVtUE8zrgqFufkyOeUCO3DP0Lo6JsQWEzqkmO+sc7zESu/vbpe0A7vbudH1S9K5EmNLvnpa3XiC1D+ij7M9Y8x23vDGRFn/ziT3QvtYdKM2OnFv6f7ete4Dizbnbn/vcJXkrd7s9IPuzwydBZz5ZhvHirS48HBpdsURktKvvXu5udgNvlWFyQ0ulsKMbHO/ntR9Okrfn++qmu0VgtnXuj7ePnTUP7KX9PryVjuqPmtf+0EWDXvRWT/dUbqvCqXZpUdK52cuMttrSpd/S/bSDXZpjTo6+7JRXdl37QvOqHq2p2fz2Gkyd+hDAftaDcxxXmCqaV8DAAAAAAAAAAAAAAAAAAAAAFyPP/64rFixQpKTk01LSkoK6GtLTEw0LT4+XkxWpaDAVA7UIJ0GB3Wq4cErrrjC3mp4RowYYW5PQ3u33367neuKuXaMdG6SGvCN+AUbdkhcbIzkPnx6VL6O/vHHH5upZm9OPvlk0/cs3pguPe8bK8mJcdKmfl0zT1chKy/frJeqaQHB2OvG+CMSZYrEuus+C0e496Xhr3BVtEJguLdd3u1Gcx1L89VXX8mSJUvsqOIuu+wy87zzmzBhgixYsMCOyhbu4wh326Smpppqn37Lly+XL7/80o4qZme2c0X2Y7gGDBhgmie8MmUmNBQjbUec5jx586VAn8Fazc4+k9e9+J2Z6kkqY9oSZ9l8yY9zb9qEopz9mnpwDzOuNnpsmTBerFnPUM2LDkbjRF4RKx75XOYcc7/T7pPZx98n69/5xdkFbvpbfxTGxUj3D26SbhoQdOdGnYYr+89/QmKdF12/OLOxdN2c/R2rUw02iqx+ZYJM3/dW+bXRJbLp49+cZfR4MVdBDbT0hjf0CawRWhMQ1KRnqxuON08GrS7Y8emL3QWtfGeZgk0ZkrVwnZ0DAAAAAAAAAAAAAAAAAAAAAEBJmtfwqgFqtUCvaQhQm1YN1OaFAf3Nu1ynep2K8EKBGlbStnnzZjP2W7hhh2jUwWsaGswPKgTlN3b2aun/8HgTVvO3fg+Nl2//XmuXKt3QoUNNCw4ILt2cIb3uHyt1EnwBwRiRzBocEMSuJz093YTZKhMQVC+++GJUQnGRouu2swFBpdefM2eOHdUc4YUEnROLRsFS9+4ssQmJthqaSIGZHyNL//OWmaH95SPeMxfE5jtjZxmtKtfsgkPMZdXJ3H+suw66XqFaYWGcFDqLON1qFasroOthAnhu08ptWrUx7eAe0vmR86TBMX3sMhrrqgIxsRKbGCf7bnpJGp6wp1k33VYaICt0LtMQo/O6bca6/ro9dUMW7MiWuac/KfMvesa9HdQYZp8509xNOyRva6YeTGa/OXva+WWiUOp0bGqW05NEvYFd7aHo7lyzf51jb/4Fzn51+jr0fgIAAAAAAAAAAAAAAAAAAAAA4OnYsWNAOLC0gKBWCtSWmZlppl5o0FtGlw/XbbfdZqZeQFDbc889Z+Z5vNDd5owck4fwmvIq5P28eIPE+sKAx784Uaau3OIu5DN91RY58rnvA4KDU0IsF8qG9Gzpce9YSU6Ik9YN6jhzNJ8jkptfYEKMquBRAoKILg2+vfnmm3YUGXqbGRkZdlT9xo8fH7Hw4o8//hix24qU8EKCPin7djRhITdepN0Y58TnzMjXcYFs+Xamme/RCFura48116lOur4mT2eCd6HFFGjQTR+PnVGNNBao0bsCXWnd3s46xTnrtmPiHFl0zevyW8qFIjkVS8FXSmGB2dcxCfHS46Mb5YCc0dL9w+sltmEdiYtz1tSEBt1tmxd0VOncDW9OkvRpi90ZqBFinONJo6d/n/qwxgKds4F7rOU7x13z8w5xjjndkc48Z7nY+nUlsXl9fRa5O1T3tx6Pvy50n1vuLZqfAAAAAAAAAAAAAAAAAAAAAAB4tHKeVhHMs8FAbf5woL9yoBcU9JrO02V02YsvvtjeYtn++9//ilYv9PiDgsEhqLP6t5NNGhL0/evYOMVcpkHBg5781pkj0r5RXTM/nKbLarxi70fGS9x170qdm94rNaeyZFO6tLvjM6mTGCuttYKgXtE0kXnrtptlNCCos1B7TJs2zfZqh2iG3UaPHi3vvvuuHVUffYxLly61o8h5+eWXba/6VTgk2POTm800xpzm9KfzzznZrHv1e8nduEMK8wLPXInJSVKnZxuzXHXSGFNhbKG0vf00GZj7ZuiW/6YckPOGpB3Y1V6rejQ6aR9pc+tJ0uq2U6XJ0P3dbRejgUGNbNkzu/MKMfOou02Aq0rEOIeKsxrm7nTq3H+jE/rLvmtfkv0yXpf+8x6Trq9cKYltG0mchjEDOFdy/lt2x/vmuqgZtAplYU6BbP91kXuMOTtXn9FaJXDH7GUy++h7nGPsXpk1+G6ZfeQ9UpCTZ/ZjbIGeNtznvY5XPzHW3B47FwAAAAAAAAAAAAAAAAAAAAAQSl4pAUGv+UOCXt8LCHqXp6Wl2Vsr3fDhw8UfCtTmt2LFCttzvXXeQDNduimw2llcbIy0a1gcDIwNM6WnS8XHxEqnRqnSuXGqCQzmF4gk3fiepNz0vruQpQHB3g98KXUS4qSVCQi619ciQDNXbzXLEBCsnX777Tfbq/mqohreli1bZMGCBXZU9XbscCtyRoNWRl2yZIkdVa8KhwTj0upITKJezTnLaJTZ+U9DRaueHS8Lzn3GOQMVuOEh54SoizS//AiNHbnLV6tCG7ArL8ikQakKb5aIanjiAGkz4jRpe9sp0mPM/8nALJtU123t9qTA2ejpvy2UGH21qAJZ81fLjqmLJWPKYknX6dQlpq/rpIdBcvsm0uycg2TAwqekx4fX2mu5TAK/MF+2jJ2qI3cmqp0e51u/n+38tpXv7hazL90jbMcfi2Wbc9n27+c4U6f9MFvynF9AtLCl8ww3y+rzXqerH/nCvW7R0QkAAAAAAAAAAAAAAAAAAAAAQLFLLrkkICDohQS9MKC/emBmZmbAWFtiYqK9pdLp9TSw4/ECgmWFBlXmQ/+QgsJCNyJjW9sGdU0w0D+vrKY0jWJuX+/CtBiJj42Vjo1SpIPTCpzl6t70vmTm5suG9Gzp88A4SU6Ik5b1kouv4rQZq7c4P0MHBLUiI2q2qgjdRUptWtea7KuvvrK96lXhNFxMTIE0v/gI58QTeKbJmrFCNn030+m5l2gwTM9z7R4405yUTKAIFVZYqBlwkfon9HdnFHFebPILJW9rYFo9Wlbc+7HM2P+/8tf+tzpteFHTvazV57xXHt3NDY4PXFdzPMS4jwM1iPMcnXv6Y+5Oq4SctdvMcVD0mw0AAABQy2zYsk2WrVln2sat2+xcIDK2bN9RdHytWLvezq0a6ZlZRfe9bpP75jGA3duKtRuKzgvbdlTN+4oAAAAAAAAAAAAAoPbee++Q4UDtBwcCg5su8+9//9veUulGjhwpwWHA4FDgTTfdZHvFBj7+jZku3ZxhvhYfbvPoPbit+AJv7N271uHq0LiuxMXGStPhH0vHuz6XOgmx0lILeelSztV02RllVBB88803TUPNNGXKlAqH7g4++GDbq3ovv/yy7SESPvzwQ9urPhUvmVcYK61vHGJS0gGck0+sViGLcU9iesPJnZo5fXsXpAR3ijmpO9uu/sBu7gzLzHZeBfIzctwZUZbar73Z97ob9QXI+7f60S/dlTTHg7PvnWnOis3ulTx6WEiBJDRvaGegJshZv01Ej5/g3xwqqNA5KGYeMFx3MwAAAFArvTv+exnx7Oumjfv5DzsXiIyZC5YUHV/Pvfu5nVs1Jv01u+i+X/1kvJ0LYHf25FsfFZ0X5i5ZbucCAAAAAAAAAAAAQNXQAJUXEvSHBb2pv4Kg19fLhg8fbm+hdPfdd1+JQKDHCw3ecsstdk6xuOvGyLSVm6VN/TrStkEd0QI65f0zuRl7Vzp1+14kUJMW7k+3Z5ex//Q+Wjv3lRwfJ801IOguLDGxMWUGBN955x1p0qSJ1KtXTz744AM7F1VJj9+y2h9/VPy7Zz179rS9qqVVPf1VN1F5GzZssL3qEzP46GMLx48ba4fh0NKksfJz8rkSm+/09cSj4cAgMXGx0umpi6TZZYfbOVWrMDdfJqdcYAfOadhZxVjNscU6B3FhvDu/DANWPCPxTes5J9aSjy2Sfkk6V2K0ZqxP51eukGbnuWngPOdlIs5Z+W3fz5LZg+818wxnvWKdx9Xrl7slbZ+Odmb0ZK/cJFM6Xe1sO2efB+3vhCap0vnFK8yL0IoHPpFtvy+UmDxfCVvnAr1Gx8cvkOb/PMqdF2WTG1wshRnZzrraGY5UZzv1/fkusz7Vwexrk6UsXqn6R/aSXl/eakdVQO/aefh6Kl901hOy7oNfzfGle0v/IkFsSqLss/GlUrZRgRRsz5VfmlwocQXF+WJ9jughsX/G/5znffnPrUjbPHaazB36UMC+VgNzRlfbvgYAAEB0vPD+F7YXWnJigqSl1JUWTRpJ13atpWnD+vaSsv3niZdlzUb3j510btNShg87x/RRtpzcXHn1k6/syHX4vnuabR8psxctkx+nzLAjkfYtm8kxB+5jR7XDm2MnyDeTp5h+UkKCPH9b+X/VLlJe+vBL+XnaLNNPrVtHnrrlKtOvjKzsHHnts6/tqGJOOeKgsJ+X2LX98Od0mbvYDajFxcXKxScdLbGxFftbZr/8NVtmzF9s+nruPnL//qYfLv/1E+Pj5fwhRzrrEmfGu7Jhdz4uuXl5pn/8oP3ktCOr7y8SAgAAAAAAAAAAANh9XX755eYz2vj4eNO0r58ba/NnOAoLC+Xee+8NmFcarRDo3YbX/Ld75ZVXSqNGjezSrphrx5hp2wZ1zbQ8uhom6mdXx0ycgbd2/sv9y3jNsMu7y7hz9WdZAcH33ntPGjRoIAUFBWabrFu3Ts4//3x7afWKvW6MPyJRpsLHzrC9nefts/KEe18a7qtOw4YNs73SVWQdw7k9VdnH3a9fP9lvv/3sSGTJkiXyzTffmGM0EqrqcagTTjhBWrVqZUciK1eulC++KPu7iqUpa72jcawNGDDANE/FKwk6V9Hnb8c7/iGF5szj3ETQCUjroBbmF0jTiw6xM2oGXd/Cwjiz/uU1w3lcRf1qEmc3blzQi47O1afO+te/q5KVTGrdSJK7tXB6QYdMTKHkbkqXuac+InNOfki2T54vouFRH600FxMfJ80uO8zOQXWLc46ZTZ/86ezNGClwDiY9njT/2eb205yBe8yVoJUk0xIDAoLK/CUE50S+8Z3f7BwAAAAgOmYvXCqTp88ptX3/x3T57IfJ8uIHY+Wmx16UW554uSggVRYNu3nSs7Kr/f8Da4vcvHz5NWgfjBn/g700Ml779KuA2584ZUat2z85OcXHV36E3gQLV1ZOju0FHueVke3cjn+fVKRt25FubwW7u9iYmKLj4ueps2TxyjX2kvC999XEotv4+LtfzIcgFfHt5ClF11+4YtVuERBU/vNQdnbxOQIAAAAAAAAAAAAAqtILL7wgzz77rKkS6FUODG4jRowoszqgn79CoC7vNb/ggGD9/3xopm0a1DXfRymtmS/bO01vzu06c32fURfXD7RN8xN6gbOIN0+vbPI3Zr2cSWzx+unPsgKCWjVQA4L+z8W1ouBrr71mR6itwg3CRdpXXwX+YfhwHXTQQWadtfkDgqpDhw5y6aWXmssuvvhiO7dmu+yyy8z6+gOCqnXr1mb+WWedZeeETwOGpfG2nb+F68wzzwx5fX9AUFU8JKgnKqc1/9cxzslIzz6FJmQUwDn5JHdsYqoJ1hTumpo4k52W/U+Zn2632uh6a9NqfX5mHWMLZe0L35hRVdjzr4cksW1DO/I4R4HefVE1xBhTmc4v0Vn3/dKdF6CEqq8yh0DeczVzziopzNN6gvZZ7OxEbY3PHGguL12M9Pz4Ott36Z7XX1iW3PSG06maYxEAAAC7p+0ZmbYXnrUbN5tKao+98YHk5LpVk3ZH2Tm58ufsv+0ocjIys0r83+jC5atk5boNdlQ5sxYulXWbttiRa/PWHbaH6pLu7PedtWHLNturXfSYrq3rXlOtWr/R9ly/zZxne+HZ6OyPLduLzwd6XOo5P1z6mrB41Vo7Etm6I6PCIUMAAAAAAAAAAAAAQOU9//zzJiz41FNPyRNPPCGPPfaYPProo6YlJSXZpcqXl+d+N6i0QOGtt95qe66fFq2XbVm50qZ+Hfc78CGaP/ynyRht5vZtcyf6fXztOP85C3hjZ+guX/TPGTs/Yp0f+od1dewuEyObM9w/8Pr9vw4zt+n38ccfS/369e3Ixefbu4bU1MCMUFXSqn8VpYG0Xr162VHZtDqoLt+8eXM7p+bR9SvtfOFJS0sz4byK2NkKhJFS8RSfPRvFpSRJUqemzqCwRChMz0y9xutJtOwNFn16/86JWXeccx7UMFvYzfsX1YdQKLHOCTp48+m6Ov857F/2di5PbF0cutTlTUhQO/pKUkU0rT5g/pPS/sFz7BxdjwJ3/c02dtfFmeOMtcVIp2cukgHLnnP65r8qYpP3uh4Bqm4NStJ10fsPWqcSOz+6vD301z7/Mb+7uL/AOGvmrEeMcywlNg/8BSKAWdVCqX98YNLYe87krN8q+TucX1Dcm6xCzvMkNugevc1atSsCAACAGmr6/MXy+JvuX/7anazZsEkeeu09+ee9T8mbYyfYudH3yfeTbK9yPp7ws+0Vy8vXP3aC2qp+aort1Q6ffPeLXPvQ83LbM6/JgmWl/5UvVNzAPQLfNP6jgkHmP+fMt71iFQkaLl65OuBDk7bNm7rvHwIAAAAAAAAAAAAAah0NGJblgAMOsL1ig56eICmJ8ebr5sFNv4tuwn6m2a+mm477ubJONOhnwn46O9aOnSX1+/q6lPkM2l5edHvmn73cLCOyMSPb3GedhDg59Onv3O/4+7Rv395UVdTPuL3mqVevnnz//fd2hNrm7LPPtr2qtWVL4B9tD4cG6nbGSSedZFpNU5HHo8+z2iRm8NHHFo4fN9YOKyZ3Xel/RT2hWfVuiMK8AsnbtN2O9BRaMVWx/oU5eZK/JcN9IfFJaOrcd4hVLm17V8e2zt+eJRkzl0nGrBWSs3yTs77Oo9AHEhcrKX3aSur+3SSxubNe1VRNMnedltsN3IhxKYkSm5JsR1Uv1DrFJidIXL06dlR18tZvC/oFotCEQOObhHcsBR6LekPu44pLS5bYOommX2Wcu89dH7ht9a82xDrbNTa5itcFAAAAUXXxiEeK3uiqk5QkSYkJpq80PJaRlS0FBfaPrYRw0UmDZdCAPeyo2PUPPy+btrkVqVo0aST3Xn1x0G/utdP8ZSvl3pfeNn19I/LlO643/UhZv2mL3PT4S3ZUTN/UfOqWqySlzs7//9eqdRvl1qdftaNi8XFxMmrEtbVq/7z68XiZOGWG6ev6v+isf1V5+p1P5M/ZbpgqMSFeXrjtGtOvDK0Ad+tTxfumXmqKOb7Cce15p0i7Fs3sqOa76bEXZf1m/f9NkcEDB8hZxx5m+qg8PZdfftcTkuv7S44VOW/c/uzrsnzNOjty6fn7Puf8HY7/ffqV/PDHdDsSGXbqcTKwX3h/7a62u2Tko0WvlUfut5ecc/wRpg8AAAAAAAAAAAAAtdV1110ncXFxEhsbG7KNGDHCLumKvW6M+S59K60i6KPffjBBPqdT9E0IZ2Dm2xlFl/uW8fomGGi5y7jXNWPT3Ou64xjZkJHtDqxVWzPNtODRM4qWUx9++KGpOqeftevnvV5YUNv69evloosusktWD297hqPwsTNsb+fFXDvG9soW7n2NGjXK9qpORUN3FVnH8m67oo93ZwOCfh988IFs3LjRjsIT7v1W9PGceuqp0rhxYzsKXyT3gV+4t6sVDcMJLFYqwaXhtNJadYuJj3XWo75todexrFYVYhLjJT7UfftO6H7By3mtOmgYLG1gN2l+6eHS9o7TpO3IfzhTp91+qjQ6ZV9JbNWg2gKCKtR+r86AoAq1TtUREFTxTQPXQ9ct3ICgCr6u16/ygKByni/B2zbeGRMQBAAA2LXt2b2TPHbjFUVNwyWjbrtGnrj5n/KvM0+SZo2c/ycJ8sG3P9ne7mHF2vW2p39bI8x34iJA34D8atKfdrRzPv2huBphXDX+vyXKd94JRwQ8F8tqtSkgqLbuSLc9KQqzITL0g5Bu7VvbkXve+HvpCjsqm4bCV67bYEfF1m7cHPZ+mjZvoe25+nbtaHsAAAAAAAAAAAAAsPt4+Lu5JnBVVpu/3ivcVDsNHDjQ9lxZefn6RRppWa9OQLDNhPicHzExhW5Az7aisQ69sQ7sdd3F3H9F85wFA8b6T+fZG9bp+vRsc//+pusUSosWLSQnJ8dZpriSoL+P2iUSobuqEql11WBeTbEzAcHahG/aAQAAAAB2CRomq5dSVwb06ioPXHOpnDBoP3uJa9uODFm3aYsd7W7M25NR5Q9makgwv4yqjmXR/fTbjLl2JNK4fvX/ISKUTp9zu6qdPYYRnkH9+9qe60dbcbM8C5evKqqEp38J0qMffixascaOSpeemWXOM54GaamSWrd6/ogTAAAAAAAAAAAAAFSHqSs2S+y1Y+TGT/+S2JgYaZGWHLKpbveONWHB/IKaGUi75ZZbbC+0o446yvZcdW9632b3isN+bnTPDfPpTy97Z8J9Zp7TdyZmZMJ+dmz65gIpdJqzMd15vuu6/8wiDr3PQlm3Paso5BfcVHBlvgMOOECystzrKG+qGjVqJO+8844doSYbNGhQrQoImmM7gmrCY9fn0q6OkCAAAAAAYJd06pEHS6umgX/5Z8mqtbYXWb735SLO/8ZeRQRfbWdvJ1y9OrW3PZGs7JyAoF9FjPv594DtqQGeSInmNoj29o327dckUd1PdlpRkVqj3Wk/lqd3lw4BbyjPWbTc9sr23e9/2Z5Ii8YNA6qN/jxtlu2VbsHyVQH7YUDPLrZXvpq0/3RdauJzpSx6m7XtORCp9a1djxoAAAAAAAAAAAC7soQb3pX+j3wlifGx0jwtWZqmJrmf5YVoerk2FX/9uzL05Z/M/JpEw3Mq3M9Q9WNqrdjnhfvMxP1hxu48G+7TsTvLNhssNH13rJ3gy831bAXC4hYjmrNcuyPbbMPSmre9Q/Eeo9f0D+zqND093S6BmigxMdEE5Hr06GHnVJ/JkyfbXvkuu+wy29t19OnTx/Z2XTGDjz62cPy4sXYIAAAAAMDO+XXGXFm9YZPp9+jQVnp0bGv6Zfnu92my1VZ06tO5vXRp19r0Q7l4xCPmjS01cI+eMuy0402/LJP+mi2jPij+f97jD95PTjvqYDtyXf/w87Jp2w7Tb9Gkkdx79cXmDbvSZOfkyp9z5sufs+fLsjXrTFUqfdOtfmqKtHSu37ltKzn6gL0lMSHeXiO0DZu3ys9/zZL8/AJJSkyU4w7ax7whqOYtWSFf/vy7rFy3QdIzMiU2NlYa1U+TA/r1ksP33avU29YKfjuc5dXilWtk5oIlpq+GHDLQ+eluP1UnOUmOcdbTu8+KWr9pi9z0+Et2JHL2sYfLW19OsCO3sqBWdKyIvLx8+ee9T0luXp4Z6220btZEps5dYMbxcXEyasS1Ze4fv0UrVssfs/6WmQuXmOMsKzvb3Ebd5GTp0Lq57Ne3h/Tv0cVs34rauGWbTJwyw6zblu3pznGRY263bYumcuCevc1tq1c/Hm+WU3rfLzrrH46NW7fJT1NmmtvfuHV70e23aNJQ9unTQwb17yMJ8WUfY0+/84k5TpUeMy/cdo3pV8aq9Rvl1qdetSOR/1xypnRr38aOdo5W+Pxt5jzneF1sziH6HNNt1bhBPfOc2rtXN9m7dze7dMXMXrRUfp/5t8xftlK2p2dITm6eJCYmSGrdZOnWro0ctFdv85xVus1/+GO66etyX/3yR9Ezpk3zJrKXc6z49e3SUbq2L/2cpZY4z8PfZzvHoPNc3LJ9hwnQesdg+1bNzHEywHl8+pcZy/P30hUyY777nNb11/OM0nX99PtJMnfJcvMY9Tmj5zk9dnKd55Te9iF772HOUeHSc+daW3m1q3Ne7u2cn5VW4Hv/m4mybPV62bdPdznu4H3N/J1146OjZIPzXPLoOcNflTSUfznniPSsbNMfPHCA/D5rnmy25/C0unXkyVuuMv3SPDPmU3Ne8Nw27Bzp1KalHRXLz893zh1LzWub7sdtzrbVc5NWHdRwom7n4wftV+521f3z2Q+TnJ7u40IZNGAPadqwvrlM95GGHlesXS9NnHlHD9zbVMMtzdzFy835RI+FDOe1R9Wtk2z2kZ53+nTpYOaV5ZKRjxZVYjxyv73knOOPMH19fBN+nea8vv1ttqc+1hR720c4y+3M83zDlq3O82+ec5sLZJPz/Mp0jn99UtVJTjSvt/pY9+/b09xPefR2VjrnH9XdWZeendqZflm0GuiXP/0uec6+1OfBMQfuU+5r87LV6+TryVNklfP6q8emno90fXUd9+zeRQb262n2fTimzVtoKmTqHyjIyMx2XmtizPGjofoDnXNPF3vuAQAAAAAAAAAAAKqKV6GuWWr5n9EFyysolE0Z2bJvu8Yy+dojw/7uRrRdc8015nsfXouLiyvq33777ZKQkGCXFEm4/l03iJeaFPB9Ge36Q4GxZqpzzMRM3eCg23fnmV7Rdbzre1N3nl7ujjfsyDbbMBzrdrifBxc8ekbRbe3YsUPGjRsnycnJReFAr23atEkuueQSd8FqEFz5sCyFj51heztPK1uGI9z7GjVqlO1F1qWXXmqOw0ioyDqWVbHvxRdfNMdMOKJR+W/8+PGydOlSOypbuPcfqW1Tnpdfftl8lyQcFbmfcNf/zDPPlHr16tlR6eI6d+k68rxzz7FDAAAAAAB2zgff/mgCNvOWLDdBjXDCCq999rUJYOh12jZvJp3blgxqeD75XkMWrrbNm5pgTXk0GPDDn27oR7Vp0VT6detkRy4NApnggkO/vK9hCPv+WoCcvDx576uJ8sw7n5iAiYaZMrKyTbBNg34aFly7cbPMWbzMhDg0RKIBp9Jo8Ou5dz83YY+/l62QowYOkPyCfHn67U/kg29+NLdlbt95DBrW0HDOrIVLTeBAK3CFCqbo9vzdWTe9TQ1e+Zn78TUNIh5z0D4St5NvRmlARYMUnqMG9pdN27ab8JzS7aHBosb1y39zwvO9c/x4gUD1j8GDTHBr1To3GKJvnA05dGDI/eO3dPVaeWbMZ/LxhJ9N1TDddhr00MCIhqZ0u2rYTUMnuj11HVs1C6w6WRp9o+ydcd/L8+9/brah3nZOrnvbWTk5Zrv/Mftv+WveItmja0dzPGiYVOn6n+isf1n0bbj3nePs2Xc/M4GgrTvSTciooKDQPAbdvtP/XiTf/jpVmjvHWHC1TD8N3q1e7wZ3tdrakEP2N/3K2J6RKRN+m2ZHIgf372PCfDtDg1HPvfe52Z5zFi0zj83sJ+f5pMe8PnYNymoIbMGyVdKrcztJTkq01y7bbOe58vhbH8n4n/8wAR0Nz2U7+0mfT3of29Mzzfyfps2Sft07S4O0FFnqjF/9ZLx5fix0jhs/DVAFP4caN6xvAtGhaNBI9+GH3/5kAor6WIKPQd03+nzVc1SjemnSunnZwaOp8xaac4Pe92bnuXbYvnuZ+7nz+TdMCFHn6fNujXNu0lDwix+MlRnzF5vjSI+fvs7xGA7dRve+9I7Zhnpu3qdPdxPoUh9/97PZ//p4NIDZq1O7nd7/SkPN+ng8Gp7zQpuhbHLOm5//+KsduRVj9Tmoz2elz5XD9uknyYmlHydvfP6NWU5pYPO8IUeaD2X8xjnHzZNvfWzOD3qc6nrqMan7T18v1m/eakLI3/46TeomJ4UMGXr0Ok86x6KGOP9eulIO33dPE9J+yrl9fV3Tc4aGR/Wxacg4VBhPl9Hb0DCork+mfW3Qpv0VazeYYOccZ5/s6RzPSYnFH3IF09vw3vDX9d7DeU2c6ByDD7w6xhwrXhjSnNOc9VrpnH9/mjrThFz1tsOhx7cGpF/95CvzuqXHpt6Wt87a16D89L8X29eRQuleynPJ8/GEX8wfFtBjUoOR4RzPGq5+5PX3zePSdvi+/aROUpK9NJC+5j7+5kfmOavn7M3O49Vzhntud88Z+lyeOnehDNaAvb1eKHr+ePSND8xj098V9JjRx63PfX2O6rlHj63la9aboGSkPhQCAAAAAAAAAAAAypJ68weSk1+wUwFBpX+Ys05CnMzfsF2uOqirpCSW/Qc6q4oG59wgXnHTz+B0esQRR5ip5+6vZ0njlCSJc1OAzmXu49KmfW/s3k7g5XoVd55zmf7zxs6/4mXsfOe2zdi5ko7XbMsyVQTDpds5IzdfRhzdx1xfaTW6GTNmmNCjFw70WnZ2tvTt27faPnu8Y/ws2yvfyGMqX8kt3PsL977+/PNP2yvfUUcdJXvssYepCjho0CAZMGBAqc1/7FVWRdZR77s0kbqdndWlS5ew1yHc+6+qxzRz5kzJy3O/b1KeitxPuOuvVRCTSvnOgx/fQAAAAAAARMTSlWttT2TBitW2VzYNs3j8QZFI0aCDX0JcnO1V3LS5C2T8L39IXr5bgaks23akm4DJX/MW2jkl+UN8GorSkNRdo96Uv/5eZOeGpuGcB14ZIzsy3b8a5qchh3Bp8CEvN7y/bhQODdq51QqLffLdL7YXHn8QVIM3WrlNQ5gVocG4O18YLQuWrbRzyqYVs7Sy2Dhn35ZH31h9bPSHpmKj0y3TklVr5KHX3pOC8hb00RDJo6+/L2N/+s3cV1k0hPPMO5/Kz9PCf6O1phkz/gcT3AnHrIVLzPNDg3bl+eLHX82298KlZdG/rrdtu1uFzgtzhuvvJaHXXUPEegyGe07buj3dhCXH/vibnROaVgf1aMj47yUrzPGioa5gK9dvCDj/6XES7pE4ZfZ8E3xV+nZ14Hk68HmlAbLK0Cpyfj9PLft49oeIlQYKD9or8E19DaWVRsNqXrVV1b5lM/PBjN8a5zw6Zvz3JsxVHt3Go7/4Vr6YWBxcDGZCxL7XDQ0X/++Tr0yVuWCLVhTvY48GzkY893qJbR+KLnPnC2+GfH0ojVba0zCfBknLon8E4P2vJ9pR6fSYGP70qzJp+pxyz2NKt+GH3/5sQvNlLb9wRXFwNzjEWxo9X/hvU6u+hqJh9LtffCus29XX97KeTFPmzJd7X37bBJzLY5Z96e2w/9IgAAAAAAAAAAAAUBnpOXnSOCVRCivxTz9ejXN+NLvt43K/N1FVHn/8cXn00Ufl4YcflgcffFDuv/9+ueeee+Suu+4qEdLSz4fjvYCg988uUjQO6Os/Z2wWsiP9zxmXbHorepnTYnXqbrPV2zLt1gv/n3dboehnoMEtNTVVxo4da5dANHXs2FGaNWtm2q6sa9eutgdPbdnnhAQBAAAAABEX7l/NKYzyG4aT/ppje66yqj2VZ+Hy8IKPfm+OnWB7JRUUFodG9A07DZ6FE2pSGl55d/wPdlSsIhW99A3F+PidD00G0wpvWlWsScP6do4b1vEqC5ZHAzMmfGEdc+A+Ui+lbomgZ1n0/p5797Nywy6hjBn3vfw5e74dhfbKx+NNZbZwabhq7uJldlS+59/73FSEq4jXPv3aVPiqjbT6WUVopTUNAJZFK3e9//WPdhSejOxsM23drOxKfsE6tGphe8U09KihUw3hVtR7X080VRNLk2ur3ykNnX3tnDNCBQRV80YNpGFaqh2554wlvpBhWfRc5NFn0r59ergDR35QaLciz89QtIJnYkLxX5dcsW6DCcuW5sepM21PTHVDvW7Xdq3MhzKen6YULxNs9qLA5+OgAX1tr9jGLVttL3wff/eLCe6GQ8NjWpkvFK1m66fhtYdfe99U3gvXBmf9X/lonB2VTSuDfjjhp4DtV5Yvf/7dBNVLowHMB155x4SvK+q3mXNNVdFw6HEXqV8f9HYefPXdgPBoWfT1urTXGK0u+fQ7n1boNUjDvxqYBgAAAAAAAAAAAKIp5tox7tT5p9/VqUxrWDfR3NbQV36K2Od2VWH/x762PRvqM0E+3SJ2rOE+/fDUfICqQT03rOcOnb59tGasfec/d3G9zOUtr7e5amuWrHZa8PYLt6njRv1g79Xlfl5ZYKZe07Gu/5o14X0nAAhH9+7dbW/Xoc+TymjZcue/d1iVCAkionJycmTWrJny8Yfvy113jJALzj1bBh2wr3Rp3zYi7cB995YLzjlL7rj9NvngvXdlxvTpkp0d/l9HBwAAALD70IDWD39OtyNXuxY7/xd9/BXhtMrdvn26y6WnHCu3XHKm/MdpZx17mAmt+K3fvFWWrQ6vOtk8X1WyPl06yDnHHW5u9+Khx8gBe/aylxSb9NdsyQ0K7HRp28oEIbW1bBq4Lt58r/Xs2K5EBa3K0jdTTj78QDtyaagkHB9+85PtuX+57cj99rKj8GRmZ5uAYDCtcHjgXr3lwpMGy4grzjX77OD+fc38YC9/NE5yfEEsPw0Hhgr26L465YiD5JaLz5T/O2uoHHfQvgG3rcG2cEycMqNESDE+Lk4O3bufXH7a8TL8srPl7GMPN/vNT8My739TsVBcJKVnhheMCiXW/nU+1axRAznmwL3l3+ecLLc6j/Wac08xQdG4uMC3rr77/S/bK0mrN7795Xd2VKxpw/rmuLzxwtPNdtRj4Mj9+0uDtFTzBn2TBm6wNbVOsnRr36boOeKXllI34PmjrV5qXXupKysnR5555xM7KtawXpocuGdvuWDIUXL75e4xOEiPwRCh3lc+Gl/qMeinIcQZC4oDqxqoHdCzq/Tu3F7aNG8idZKS5IRD9reXur79dartlW57eoYs8oUJ9XE2qp9mRyJ9u3W0PVfXdq1tb+f17NTe9tzKjktXhT5nanhwhe98ekA/97xYxzkfN2vc0PTVguWrSq3g+UtQ5c1+3TvbXjF/wEuPP32On3fCkXKTc/zoOUTPJVrB0E/XrbyQsUcrTHpvPGtQW7eh7ruOrVs42zsweKrBYT2u/DTMeuKhA+X680+Tq88+2fSDw4VacVG3Q3l+nTHXBE71Eet+1uec3qbe9kmHHSD1U1PcBS3dNsHb0E8Dsho89EtwHmP/nl3k9MGHOOfJM+RfZ50kgwcOkLbNm9olimlA1X/8VYWFy1YGVPZVXdq1kotPPsaci64771Q523k91teNpMQEaehsp9i4kq+d+px81nkN0g/h/Lo755RTjzxYbr7oDLny9CHmses28fvGeW7uTLASAAAAAAAAAAAAqIjKVhH0/0uKj5VPZ64Up1trzFiz1XwfxYT/nLH7qZ8+gOJxUdPl9J+dYT7jNdd1Z5jL7fwY/e6De7G5jn5kuHJrhtlOlfmn9zRu7pqAbdy7d2/zubq/+YODQKRodcpdTVJSku3tnObNm9tezRYz+OhjC8ePo7QoyqcBwHnz5soTjz4i06ZOkQ3r19tLaqbGTZpIv357yv9dc6306t2n0k9qAAAAAGW77qHnZbOtaNahVXMZccV5pl+Wy+96QnJyc01/717d5KozTzT9UC4e8UjRG1oD9+gpw0473vRDWb52vbzw3uey0leZL6VOsjz9n3/ZUbHrH35eNtkv52vI796rLzZvtAX7/ve/TBjrhEH7yRH77SUJ8cXVrzz6ptuTb30sf/29yM4REyAbEhTWUVox7NkxgaE2rYqlocD9+hZX7vJMm7tQnnz744A39TTwFBxW8XwzeUpRJUN9U3LU7deY0FmkrN+0RW56/CU7Ennk+stNyEQDJ/93/9OSaStfxcXGOtv9/yQ5KcGMQ9FQyF0vjLYjkYP79zHbQT3y+vtF1fV0/UeNuDbk/vn0+0ny0YSf7cil2/GSk48tEchQGurRaluTpgdWm9QwyFH797ejYnc666cVnzy6LleefoL079nVzimm4c23vpxgjhk/vc6LzvoH0316jfP88VdS1OCQhgNDBcn8+1bFOtv4uVuvDqjIpp5+55Oi4JJe9sJt15h+Zaxav1FufepVO9KAXT2JC+O4OunQgTLQhro8j43+QLZsT5czBh8ivToXB8X8tLrmiOdeD6gu98TN/zShuGD3vfyOCWD5abjr8H33tKNAGnia+Od06dimpbRvGRgg1n1y2Z2PmeNZHbZPPzl/yFGmX5rPJ/4qHwQFNjVMfMnJxzjbv+Txr7f96ifj5eeg0NUZRx9iwlrB9HzhrzSoH17o2UCPE/85I885/jR8pufWK+95ypyXlAacnnWOk7LCweN+/j2gqpmGNvf0Bek0jPvBNz+Z54KehzVsWVlT5iyQp5xzm0f3l+63YHMWLzMV3zz3/fsSaWHDgR9++5N89sNk01d3/esiadOssR0Vu/LuJyQrx33N0eDnk86xFEyP8RHPvm7WQ8/dwQE8T/B99urUXm688B92VEwr1F19/zP+z23MOVn32YUnDjb7xaOhX++1RSujPvzae6bv0UDg0MMOMNf30/Pt8+9+JtN9lU713PR/Z51kR8UuGflo0THhGdCrq1x2ynEB66K0guETb31kKmR6tIKmhiWDLVyxWu4e9aYdudq2aCr/OvMkEwIO5cuffjcVNP2vaxrK1JBisOuc12ovSKe3e8c/Lwj5WuCnVVavdc6tHg3pahjT7wvneesPWmugWLdzKBrY1GClhnyD98H3f/xlKrt69NJzjj/C/L4QbNO27fKU87vCklVr7Rwxx5r+vgAAAAAAAAAAAABE2qmv/iwfTl8hjWwFwEjZlJEjdRIi9z2UitKP7DSU5310pxMT2jNTM6vocm2ZufmSmpggSQmxRcu6y9jmHzs//LdtRmaeHTmDwLHbX7k18I+qVkaWs74ZTit49Iyi9cjWz+w/+EASExPN56xeOFDb1q1b5YorrnAXrGKx141x1sEOylH42Bm2t/O8ypjlCfe+Ro0aZXvlGzZsmO1VrUitY7i3c8QRR0jnziX/8HIkhLsO4W7rcG+vbt26cu65Jb/vEC6t1vnpp5/aUdkqcpyEu/5nnnmm1KtX8ntkwagkiBI2bdoob73xuvTq2kk6tG5R1Lp1bCdDjhks33w1vsYHBNXGDRtkwrffyMlDjpfundoHPBYd/+/Vl2TDhpr/OAAAAACUlF+gb3QVN/3ivlYC0mpvT739idz+zGsBAUF1/MH72d7O0QDcyCvPM+GdUAFBpWGtM4851I5ci1astr3yaUgjVEBQ7dmjc4nqel54LpTgCmyRDAiWRe938AF725FbXemnaSUr8Pl9HBTuO24n9tX4X/60PZcGPa74xwkhA4JKt4cGTY/2rav6elLg7agNW7YFBATVfy49K2RAUOl9atU4Db6GY+rchQEBQa1EeMOFp4cMCCoNZu2/R087csOpy9aEV7Ey0nTbrN24udymYcBgR+y7l4y84rxSA4KqVbPGJYJoW0JU3Fq+Zn2JgKDu/9ICgkorGR66T78SAUEVHAAKx9e//GF7Lq3EppXDQgUElT5XtKqgVp/0+2Zy+RX/lK6jVjkLPmdoQFDp/e7dq/gYzc7Jlb+XBG6jYP771sDYHl072ZFLKxSee/wRctuwcyISEFRa/dC/tfX5EMqPU4rPIxp69QKCar++xc8H9acvTOlZv3lLUUBQ7RWiiqDSx33zRaeb6rClBQTVCYP2DzjPavXacD7z0P2m+0zDncGhPP9ryyff/2J7ruMO3tec10Idm3WSEs3xnuQLCs9auCSs9dGqeRrkC14Xlezc7qUnH2tHrtUbAl9bPRq28+vXrZPzmnl+qQFBdexB+8j/OfftN8t5XdNwYlXZ6jv3Kq30V5rkxEQ5ZMAeIffBp98XB0aVhopDBQRVo3ppZn/5b0fDhwAAAAAAAAAAAEA0LNucYab6+WEkm9LgXVW3rLx8yc4rsM0ZO/P8Y51m5dpxfvFY/6BuYrwNCOrKF2q1PqcVz3D67tidZx+lGbvLmn6sNzZD07Zk5siKrZlF2yYSLSlEAFOLJuU7j0m/J+IPCGoDImnBggW2t+vQ7/VVRosWgX+UuKYiJAj557BLpXunDkUBuv59e8t/b7lJMjLcXwh2RZqiHzl8uOzdr29AcPCSCy+wSwAAAACoyf6Y/bdcftfjRe2f9zwlNz/+kjz6xgcyZY5bOc2vRZOGMviA0r/4H449unWSJg3q21HpGtZLCwhbaDAlHFp9ce/eZYfKjjkosLrYyvWhwxrVTSvxaQVBz2ffTzJvYIayccs2E+70dGvfJiD8E46NW7dLRlaWHYm0bNqo1EpQwTTI5V/X9Zu3mkqAfjMXFK+fOnDP3tLJ+f/I8lx40uCA2y7NrzMDwyGXnHKMJJYSbvScduTBtuf6a17oYFVNsXLdBtsrps+pUGGbYBoi89PQYbCpcwPfnNRwYGmB22jQCmfbMor/IqAGo7TiWzj0WPWHWTdt22YCfeVp07yJ9O7SwY5COzYogPjtb6UHELWC3sat2+xI5NC9+5kgZbTp+bKpL0i2edt2Sc8sfj57ZvgqtPbo2Nb2XBom9VfSnDxjbolzzvS/A5/HB/XvY3uBNKTbpV1rOyqd7jP/a0K67xxUFv1w5tRyKsZpuHqxL2BeLzXFuU7gcz5YneQkObh/XztyQ6HpGeWv0wUnDra90DSsrMeaR6sdhjJn0VLbE/PhmlaDLatqpWevnl0Cgrq637QacFWpWyfZ9lxvj/vO9sKn1SL1uPW0b9ncBJDL0tx5ndPXO88G57WHD+4AAAAAAAAAAAAQLdH45Ldh3cQqa1oFUVvjukm2uf1GvrH2G5rm9FPcsTuv+PpxzobQbaEfZern4fqZpn4s7jZvbGoImu8zOP+585wFYszyzti5TJvTlYLCQlm5LVPScwK/ZxJN+rlicEDQGwORsnRp8XcAIkmPVUQXIcHdzIoVK+S4wUcUBeO0jf3ic8nODu+LTLsyDQ5++/X4gG1z+MEHyvJly+wSAAAAAGoKfcMgLz+/qJX1RldaSl254YJ/hBXWqggNSixZtVZ+nDJDxoz/Xh574wO56bEX5d8PPhsQ8MnJDR2oCKYVCsuj1Yf8j2NriOpsNUFKneSASnfb0jMCgoB+X/78u+25tFJWRc1bstz2XOWFafy0AtegvfewI9f6TYHBzt9mBFYl02BhOHQ7NG1YfrBUK2d5NOiTmZVjtldZTSsb+v/CVXClw5qmXYhqfcG2p2ea6mdfTfpTXvl4vNz70tty7UPPy2OjP7RLuHaECJD9OmOO7emb+TEydCeOo8oIrmJYXgjMT0NyGsjz6Ols7aaSQchgpzj3oR86lEXDxxp680ybu1BynXNmKN/+GhggLKsKY6Rp8NZvzqLA92I0hOnf74P6Bz5ndTv4g30aJM3JCTz3/vLXbNtzP8TRbRMODexpyHXy9Dny4bc/yZNvfSy3PvWqXHXf0wGBVV0uHO1aNJMm5ZwXtDJuXn7x7XVu08I8N0KdC/xNK//5BVfJC6ah9tbNigOApenYujgU7X3I5Kf343/dG9Crm9RLrWtH5dOqjX76WKpKjw6BgdOJf86Q4U+/WqF1WLg8sGJw57YtA/ZLaS0tpbhSpX54GO7vCwAAAAAAAAAAAEBFadjN+6yvNjX9M6P6ebCuv9t8lf70Mq32ZxZw/ot1x/5li67vNecC08w/nef8LPTG7j+PGZllHeZu7D9nhs5fsTVDVm3LDLnekWqheJfpd6e8Vtbyu5qHJgT+IW5UTEJC8R++rw6vvvqq7SFaCAnuBoZdfGFR6O2g/faW2bNm2UtQnkWLFsrBA/ct2n4XnXfubvMCCgAAAOwKOrVuKXdceX5ASKYyCgoKZdzPf8idL4yWK+95Uu54/g0TZtJ50+cvNlXogiuAhRscaR9mYCUxvrhaVk5u+dXGqssJg/azPdeH3/xoKkT5ZeXkyPd//GVHbsWq4Aph4Vjkq7ilenVuZ3vh6ds5sBpbcEDLHwRKTkwMK/jnad6kke2VTreDJzMrW556+2NTFbOs9syYT80bvZ4t29NLbN+q0LltKxnQs2u5zV+JzG/Dlm3yqvMcuvHRF+XqB56Rh197X97+8jsTvp2/bKXzuHYEPE4VqpLZ5q07bM+t4pdWtzh8UxWCQ5p9una0vfD0DVp+7YbyQ4JdfVXIynLUwP62JyZUPWdhyb/2pu91/DKtOESnQTbdjlVl3z7dbc/109SZtucKrhDbs1PJ5/ghA4qr6OnjWbhilR254+Wr19mRSNsWTSXBdy4NZdJfs+XB/70rV979pAx/+n/ywvtfyGc/TDZVK7Xqoj5XA4T5BAznHBdcLXPq3IUhzwPB7fOJv9pruPzV7UJp1qi++4FWOQLPeSWvoc9T/8Pff4+KVfHUEKL/VldUYSVBPTf5X1fVynUbzfa87uHn5cuffi+5r4MsWRX4/J/w27QS+yZU+2PW3/Yaroxy7gcAAAAAAAAAAADYWQWF+rlp7WieolCeDpz5/rHb7E9nYvpFYT/fZfpPL9dKgNrRuTp2fpixr++f7y6vFzs/3FsxPbV8c4Ys25wect0j3ULRz7/1exT5+fmm+YOCu4OR48nCVMagQYNsr3roMYvoIiS4C1q7do307NqxKNj21fhx9pKq07hRY+natZvst/9AuezyK+SZZ1+Q7yb+LLPnL5K/Fy+VBUuWy3ynLVi6wrSFy1aa5o31Mm26rF7n+58mybOjXpRhV/5T9j/gQHPbjRo3Ni/CVem7Cd9IxzYtzXbt2bmjrF610l4CAAAAoKbQ/0to37KZ/POMIXLb5edIw3qp7gWVpIGlW554yVQN1EBQvq/KUyTUT02xvbIlJMTZnhtarKlv8bVo0kh6diwO8ixdva5E8OPbyVMDtuNJh4ZXoS+YP1ATFxcrdZKS7Cg8rYMCbJu2BgZrMrKKK5il1E22vfCUF1Zz36yt/F7U8Fd1OOnQgfKvs04qt/Xq1N5eo9i4n3+XWx5/SSZOmSEbtmy1c3dOTl5xYFYDYFVtzYZNtiemwmPd5Iodg62aNbY918Zywl36fkhSYmDVuNIM6t/XVM7zaKg5mFbu84dVhxyyv+1VDT1f+KvgzVu6IuDc5g8Naug71Pbt3blDwPtEGjT1rFi7IaCC4sB+vWyvpI1btsk9L74loz4Ya7ZLqFBqZZQWmPVbExQS3FnpIapu+jVuEF7guV5K8euTfrAUfMZauzGw+mr7lsWVB8ORmJAQUBlVQ89VJdU5R599/OF2FEgrWL771Q9y9QPPyugvvpW8vNDn2Ujtr2zfcxAAAAAAAAAAAACINP2cL5Jta1ZuRNu2bNuy8mR7trZcM91m+r6xc7mZl5MrO5ypNr1sh2l27NyeGee4Y+3rMrri+qmy+WS5qG+rDdqZRWMdaj+mUHLzC2T5lgzT/Nsg2i0ULyToTXe3kGCGs0+x8zp37mx75Rs1apTtRUZehL9/gdAICe4i9MSuVQI1vLZf/z0lMyPTXhJZ+mWrLl27yb0PPCTf/vCTLFm5JmT7c8Ys+fr7iTLmg4/k1ttHyvEnnSQdnRNK3bp1JTExSeITEkyp0vj4eNPi4uJM88Z6mTZdVq/ToWNHOe74IfLf4bfLO+99YG57yvRZsnjF6pD3P+HHn+W+Bx+Wnr17B3xBLJIyszJl4D4D7DbvZ/YBAAAAgKqxR7dOMuSQgbbtL/84apBcdNJgueack+XJW66SkVeeL/v0DqxMVRkaGnvof++ZSoHREu/8P1E44nxBippuyKGBQaPPvp9se+7/x3750292JJKUmCAHlBHcKUuuP7ixE+95+sNJKvj/7/xBxpTkioUEyxOp/2dtkJZi36CuWrrfdsbXk6fImPE/hF1pszwFvje7kxJ2bp0qwx9A2xlaodKvvPcY9DwQ7qFTJzlJencprpY5b8nyEhVPdX94EhPiZa+eXeyo6vTxVfTMys4pOt9qANZfBXC/vqGr1KXUSTbPA8/M+YuLTgfBlQj36hH68elz/f5X3pEFy4urEEZaozAq2+bmRuaN8fLCqnGx4R1EseUsFxykLG/5UPyvbVX94dUhA/aQS08+VuLjQ78O6zH47a9T5eYnXpJla4qPRU+kgqTlVbcEAAAAAAAAAAAAdsatR7nfxTB/EDSCTW259xTZel9kmt6Wts33niyb7jlZNjptw91DTVvvtHV3DZW1d5/kNqe/5s6hsvrOk2TVHW5b6bQVI0+U5bYtG3GiLLntBFnstEXDT5C4mBjJKdDQX4xJAJqJ88OrGqi8moHeJ56rtmaayoFrtmeG3AbRbOkhwnDp6e4fXNXvFGjT5bxqgtoHIi2Slf9eeeUV20M0ERKs5U44ZrAJqXVq20pWrFhh51ZecnKy7Nm/v/w+bXpAEE/733w/Uc4+9zzp3KXqvzAWrk6dOstZ55wrX371bYn1nzJjtuy33/7mMUbK2rVrzT7QfXHU4YfYuQAAAADKU14QpjQpyUlyyhEH2naQHHfwvjJowB7Sr3tnUxUo0l7/7OuQIYAGaamyd+9uJqh45elD5M6rLpDHbrxCmjVqYJfYvWklQf+2+GP2PNm6I8P0f50xV9Kzsk1fHbV/f1MFcGd4b9YqDZ1V9LgKrraloSo/f5Avp4JhkC3bd9heaMFv0WpIRY/hirYOrSpWuas6bU/PkPe+mmhHxXT/t2zaSA7eq4+cecyhcs25p8gD11wqD183LGAfBDPvc/s2ZHnbPBr8lfoKneOvopUdSxyD5VTDrGi49HjnHOnRQOVffy+yI61elivTfeMD9+xdLWHkQ/fpZ3uuKbP/NtOFy1dJvu/DjP326Gl7Je3dq5vtiexwtum27e755veZ88xUaXCutHP0R9/9LBu2bLOjYvoc69OlgxxzwN5y6SnHym3DzjHn+n1LCSyWJZxAeHDITs9Jwc/5cFo9X2gymvxVAFVwNdby6IdV/vN2eeHjcCv5Bodhy3LgXr3l4WuHyaF79yv1+NfH9dgbH0pmdmDFv+Dl9RgLtT/KanpMakVFAAAAAAAAAAAAINKG9m1tpgWF7kfrkWha0U/VS06o2pbktrSk+LCa/7r6Oax+LlkUBIxxw4DFP3WeSLavaqB+Vh3q8VdFy9cdFmTixIlmvb1goDYvKFhbQoIx146xvYqbt65in0Wj8l5++WXbq5yXXnrJ9hBtVf+NH1Tab79Olo5tWppA2swZ0+3cyrn4smHy65/TisJ0cxcukY8/GytNmzar8BfPajJ9LI0aNZIxH35sHqP3eH+fNkOu+OdVdqnKmT9vntk32n6a+IOdCwAAAOxe9Av05b31pO9NRaqKWDRplbrp8xfbkUtDBBpc0pDIVWecaIKK+/bpLm2bNzXBweAAwe5s6GEH2J67zyf+6f5/rL+KoP6/2uAD9rajimvZpJHtubalu8GgcK1cu8H2XK2aNrY9lz+8qAG3ili/aYvthabhMv//dTepX885rq6Up265qkJNQ3W1xexFywJCtxqAOn/IUfLsf/9P7v2/i+Xik4+Ro53joV+3TiY4o4Ghst7M1rct/CGdtRvL3ubR4D8GdU237nD/el+4Vq3faHuu1s0Cj8HK6t6hraTVLQ5QfzXpD9sT+X3WvIBKjIMHDrC9qtWtfeuA96AmTZ9jtuVPU2e5MxwasGvTvIkdlXTAnr1tzzVjwSLZuj1d1mzYZOeI9PZVLAz205SZtufSY/DOf15gnmPXn3+anOE8zzRE2alNS3Ou31bB/Ryu5o0a2p7rH0ceXOI5H05r36KZvYXoatE4cH0XrahYJUYN8/l/H2jZpOTx7w9XhvsaW9GwYv20FLngxKNMReJ/DB4kjUNUfdQQ8tgff7UjV9OG9W3PdfXZQ0Puj7KaBqLTUiL/Rw4AAAAAAAAAAAAAlRwfZyrT6UfDkWhq8rVHmc/rawutqGg+k47RaoJOc+aZ1XcekH5eqaHAZZszZO32rBKPtzqa+u+RvexKulauXBkQDPSCgl6rLUIFIMPR476xtofKGDZsmO2FZ9SoUba3c7799ttadXzWdoQEa5Frr/k/Ezw7/ZSh5sS+s+LjE+TO++4PqLB3+8g7pXmL2lN1INKaNm0qt9x6W9H20G3z4KOPS3xCol1i55x71hlmn1057NJK7TMAAACgtgmuihXKlu3bA35Pdv/2Vs2zccvWgPXUAI2GCBo3KBke8GSE8firWnX9P8l+fXuYqkqebyZPkVXrN8lyXzBPA5b+AFNFaWDHb8Jv02wvPBOnzLA9V6OgYEi9lLq25+7bLdvDCwZpwHTztvJDKslJxf/vuXHrdokJqiK2q/lr3kLbc914wT/ksH36lVpFKzhAF0rANnSes5u3RbaaYHnPno5tAt9TmfBrxY7BH2x41tO0YeSrkfqDuItWrHGOZbeS57ifiwODGnZsERS6rSoJ8fEBAd3la9bJ5q075M858+0cka7tWwdUbQzWrkXTgDDZj1Nmyh+z/w6oRHhw/z62F0ifr/7Qn96XVrNs69xmadaVEwLeWc2bBIbuFq5YbXs1U8N6aQFh5+Bzank0qOp/jnVuG3hOV/7zQ0ZWeK+xcxYvt72K0des4w7aVx6+fpgMO+14SamTbC9xTZmzIGB927UMDGMuXrnW9gAAAAAAAAAAAICaIfOh09xpbr6ZVoaGDdW+bavns+Wd9a+DukpcjAZoYkzblJEjK7ZmmrZ6W837no+6+7i+AZ/F6nd/NBzoBQT9/YMOOsguVfPFX/+u7YWvzwPjbA/VYWeDglqJcOHCwO8JIboICdYC/zjlJBM0++i99+ycijvzrLOLAnALli6X88+/MOCvsyOQbpvTzzhTFixZVrTdzj3/AntpxX35xeem+uPQIccRFgQAAMBuYUdGZrnhiS8mFleSU1k1tPreiqAqc0fst5fthfbLtFk1okKiBm485k3Calqn2NhYUxXOo1X+3vs6sOr6kEP2t72d07NjO9tzffHjb6baUzjWbtwsM3yVIjUc0iAtxY5cXdq1tj03LPbRhJ/cQTk++f4Xyckr/w12f8hRK+yN81VZ3BUtX7ve9txwn77nUZb3v/nR9krXq0txdTjdR6O/+NYdVIK/xmNmlhuoK02PDm1tzzXu59/DDiqu37xFps0tfkO0jrNNGtZLtaPI0XCc94j0nPDrzLmyZNVaWbmu+Bx3QiWfi5V10F7FlQD17ZPFK1cHbPtDBuxhe6Hp+cYf2FzhHGtT5y6wI/f9nm7t29hRoPTMzIDg1wH9AqsSBlu2Zl2FK9WFq0XjRgFhyF/+mh21+4oEPWcm+UJ8+rrpD3eWRT+s+vCbwHNqz06B53TVuH6a7bmVB8ur0qq3+93vFQvrhjJwj54y8orzJDGh+DV1w5Zttufq0rb4NUJ9quf+3Fw7AgAAAAAAAAAAAGqGpbef4H5/pLBA9A9578y/jFw3IFjw6BlSU6IIV1xxhfzzn/+Uf/3rX3L11VfLNddcI9ddd53ccMMNJb63v3JbpizelC7Lt2aYx+J/bDXpX25+6O/4eMFAnfpbTk6O7L138XdzaoOYa8fYXvnOf/NXmbVmqx0hEi699FLbC58GBceMCW+/ZWRkmOX1eEXVIiRYgx1z5GHmi3K///qrnRO+hIQEefm1N4oCbvc//Ki9BDvr7vseKNqeb7z9rtnGFTVtyhQTFjz84APtHAAAAGDX9c6X39leSRpK+e6PwC/vr920RQLfmqsZ4uIC/9d5+ZrigFOw7emZ8u5XgQG46pJaJ7Ay3/rN1fdm2ZH77yVxscXb0R+I0oBc62ZN7GjnaFXHeqnF1f70DdBXPh4veeW80aSBvNc+/dqOXHv37m57xQb06mp7Lq1ONn/ZSjsKTcNXX/4YXthPqy36ffTtzwFBurIsWL7KVB+sTTTI5dHqbTn2Q4RQJk+fI/OXlr2t1QF79LQ915Q58+XnabPsqHR6zskv5c31WF9Fx/JCz1pJrWFacbCvoLBQXv7oyzIfm9LH/7+gY7B/z8DjLVLqp6ZIl/bFYaavJ/0p3/mqbsbHx8nevbrZUen0Q5RwQ7gVtW+fwOfCjAXFAV7Vq1N72yvdoP59bc8Nd+pz0dO8cUNJSgz9fk6crwKh8ocng+kx86pzjomWBGdfaFVHj27zNz7/Jqywtx7T4Rz7kbZnjy6253rjs2/Cet35+LtfZIuvgqOGARsHVXNVwWHizydOtr3QNCyuf7CgPLqO+ppRliYN60sD3/M7WCNnnesmF1cbzMzOkTHjw/tdQF+nKlr9FgAAAAAAAAAAANgZ7RqmyHG9WkpWboHk5hWaP9xakZaRk2+mNSkgGEw/W/W3SZMm2UtcTVKSTABPH0dNbjnOOtZNLP5Dpmrq1KlFoUB/JUFvXm2kQUFt+phLo5e/8ccSO0Kk+L+7UxFbt2414T9tX375pWzbtk2ys7MlPT1d/vrrr6LLRo8eba+BqkZIsAZ66onHzRdf5s6ZY+eE74GHHzEhtvlLlssRRx5l5yLSDh40yGxj3daPPvGUnRu+RYsWmn380AP32zkAAADArmfavIXyyOvvB1TT0jfgpv+9SO564U0pKAh8h2fD5q0mtJKdmyt5YVRfqyqNgsIK//v0K1m1fqMdFZu9aJnc/uz/ZOuODDunejVr3MD2XB99+5PZ/p6snKqr3KjhiQP2DF2Va+hhB9he5Zx4aODtaHXAW554WRatWG3nBFq6aq3c+tSrMmfxMjvHddxB+9hesb5dO0qSr4qUbsd7X3rbHK/BdAt///tfcveLzjFe1ruYPvv07i7xvoCSBoFGPve6fPnT7yWeJx4NMD0z5lN58NUxkh5GEKYm8VfJ0zesX/14XImqW7qNNTz04odfhvXhwh7dOpUI8bzkXHfU+1+UGhTSIOHNj78kazdttnMCpdQpDv1o0GzNhk125NIgkN+Jhw20PdeshUudY/AlE+QMZdnqdTL86VdltrOc3wmD9rO9yDvuoH1tT2S183h+n/W3HblhVX+1tFC0et41Dz4n1z30vNw1quR5vLLcsFWSHYlM/HO67bnHTWpKYPg5FD0WvENG1y49M8sdOLQqXGkSfdVX1be/Tg2oMupZvX6T3DlqdED4MBqOPjDwrzzqa+p/n3xFFq9cY+cE0uDibzPnyX+c8943k6fYuVXnhEMCj9utO9LN+v40dWbAa49ny/Z0eWz0h/LZD4Fhv5NKeU3YwzkP+2lYW4N4wbes512tJPqh85oXDg1U6nlA17O0YPnvs+YFBIVT6hQfo57D9ulney4N/ulzRCuFhqIBYq10eP0jL8ifs8OruggAAAAAAAAAAABU1ueXDZIvLx8keQUFkpnrhv7Cabqsynvk9BoXENTPI70WPP7www+L5qt1dw0166+zanJTO+4/NWBbT5482bmssCgUmJeXZ6b6vQv/Y6yNYq9zw4LaEm94r6ivDdEzbNgw29s5y5cvl3feeUdee+01efPNN+XXnSiOhsiL69yl68jzzj3HDlGdcnKypUv7tvLLz+F9icXTq08f+fXPaXLtDTdKn7572LmoKj179ZZrrr/BtIk//CCrV4f+8l8ov/86WR5/9GG5/J9X7VRlQgAAAKAmGf/LHyWCZ/qlep2vQY9fps02VfZ+mjqrqBpSat06AZW2Zi5YImN/+k3Wbtwse/cOrGj1yffFf92rbfOmMiCMilfh+MpZPy/so+tzxH57FQVMVJ2kRPnix+I3MXR99cv/85YsNyEffVzvf/OjfDXpT+fx50pM0LuhdZKT5OgDAsMeSoOG/oDOkEMGBlTbK427nd1AlVYGO3SffgHr60mIjw9Yb70/DUNoOO7ryX/KN5OnykH9+4R1n6FkZGY5t1McRNHHqI+1NK2aNpZvfp1qRy4NdZ0/pOw/cDPpr9lF4Qz9K1ZDDh0Y8vG2c46JSX/NkYysbDvHrSI28c8Zplra7EVLZbWzDTR4995XE2Wcsx39y6rD990zZJhR7zcnL0/+XrrCznHNcI5XDRLNcqa6fT/7YZKMGfe92a/eG7D1Uuqa4KvS2znRWf9gGhDUINNCX6BRr64hMw37TJmzQJasXCtzFy+XH/6YLm9/+Z15nuh9akird5f2ZvsG08CQBpqUVsQccsj+pl8Z2zMyA6peHewcQ1rJsSK0guNUXzVJDTzqsaGBTq2gOPbH38x2nD5/ccg3sjW02bltKzty6fOuflpKibDNirUbnOf4nzJp+hz5e8kKmes8b7+Y+Ku89/WPJmSkx7GGylo0bmivUezvpStNkM7z3e9/yYJlK01Ya/Tn30pBYYH06NDWXirSxjkGf50xNyCUluWcW36c4h6DsxY6x4lze1/+9Ie8//VE+fLn3wOWVYfuvYcctFcfOwqkx5UXUNbnre7PUM+FsmglPT1XeWEofyhq2KnHB1TkDOWtsRNkkQ2paQC8TfMmla4EGmyls890vwXTCoG678ujlQJ1X2Xb86Sfnm/SnPN8KPo81OebHp8ePW5mOsehPmY9tj6a8JN5LdJKisHbvrTzk75m6HnHo/u3SRjPmTbNmprXTu98r/R4+cGZp+c1DZdqaFPDrmOd23/rywmm8qYuo8fd8YNCHx+fOuvvPa/at2wmewVVAAxFX+v8z1kN8gW/1um5btW6jUXHqNLA3tS5C8wxp1OtxDvReT58+O3PZluu2RAY0NX1Oe/EwSHXW5/f/mNXaQBXz0d6ftfzx7if/5B3nHPHPOe5HsohzvPLH1JWXzrn0sXO66Kun76+6nNYzxMLl682r+8fOK/vejz57d+3p+zZvbMdudq0aGqOH384XJ8jem7T33v0/K3bUc/L+lrx9rjvzDbV41RfI449sGRAHQAAAAAAAAAAAIiGLk3SZMQxfeTOr2ZJXkGhafo5V2xs8Sd1+rFXdn5B0eXxzmV5j5wRsExNoZXNli1bZj7D9D7H9PraBg8eXDRf3THefdxxNfCxqOw89ztVI47u46y36Rq//fab+axXm4YD/dNu3bpJ9+7d7ZJVT7dppIT7B7nDMdI5zsPx558l/0h4aQYMGGB7VSta69i3b1+ZNq34e0A1SbiPI9xtk5iYaB5vZYR7XxXZB+HeZp8+fSQpqfTv5nmoJFhD9O3RVbp1bG9O0uF65fXRppLd2PHfmC8iofp9+OlnZp+MfufdgF8mytOzS0fTAAAAgF2VflFewwz+sIP65+lDSlSu0tCTBgki95ZP5WjgpHfnDnZUTL/wryG5yTPmmFCjJyU5SeqlpthR9UlOSpRmjQKrCW7Ysk1++Wu2CVCYgFl+1W1lDScFb8dIhNY88fFxcvU5QwMq8nm2pWeYAOrnE381Uw34BOvUpqWce/wRdlTS0MMPDBkk0yp1WkVSg226Xf2hr8b160nvLiWPnVDOOPqQkEE/DTJq+OX7P/4yAZY/Zv9dYv2bNKhve7XDnj26lNhPGmrSkI4G+DQcqWFEjwaGw/l/bK0SpyG7YBpK1iqAWg1MA0Xzl62U7c4x4Snttvfu1dX2XPrmuh4/v8+cZ46ppavW2Utc+piuPts5Bp1jMZgur49LH9/MBYsDKqx6OrZuIeedUHZotrL0sR7cv+Qbnk0b1jeBv/Ks37zV9lw7MgJDjpFwSFBFNs/Afr1sr3yhgm96Lm/RpJEdhTZoQMlto+FdDedqpTkNL+pxoGJiY6VDqxamHw0a7L3i9BPsKNDmbdtNiFZDcRpg0wCzPxSZUE5FyGi57NRjzbk+mAbxdTtqYE7DlvqaGVyFUgP5/zpraKlvVmsw9pgQgXt9LuvzUgPbWhnWfw4ePLD8N929ELfSQKeGlvU5rufbSdNnBwSFVWJCgpwQ4rVLQ5IXDz3ajorpe70btmw15zcNd2vwU6tB+ismp9UtO5wLAAAAAAAAAAAAREPBo2dI4WNnSPemaaIf32k4zWs5+e7nov/o19Ysk1sDKwh6zj33XPO5nD8052833nijmXr0cetj0Vk1sfnX0fP888+bx+Y1fTzeVCsJDhkyxC4JVIwG5/baay87wq6AZFk127F9u3Rs01K2O9NwzZw73wTRDj/iSDsHNc1BBw+SxStWy8x5C5wX6PB+I8rMzJQOrVvI1s2Bf0UdAAAAqI00iFHeb8JHDewvPTu1k0MGhA71BNvZinflSUpMtD2R1DrJIdf7kpOPLRFmDEX/gMt5Q440gRtP3VKq62mlP09F/shIsu8vAmkQsKxravCsLBW530jwhwJ1e4YKKwXz/1EcDfmURStM3nzxGZLi7MeK6Nulg/znkjPL3B6xzmU3XPgPaVQvzc4pmwm8nD00YP+XdQzr47z5ojOkVbOSQcGy6G2Wdrt1fMeK/zivblrJraxApl/bFk1l6GEHhn2sXnDiYFMNtCJKq4S4/x49SwRt/UKtk1bV+88lZ5mqpBXRu3N7ueXiM8v8q4tpKcW3mVzOc6Eseu4NdtzB+9lexeiHDZHWpW2rEsd0QnyctGvZzI7KF6oao1Z9LO8oOvXIg53Xr5Iht1BOHzzIWdeWduSe00Lxf9hUUd2ddb7iHydU+FzdsIzzVHyc/5wa3nlBg3Ee3TelrY2+rg2/7Gzz/lZF6HNwxBXnlVthUSuxdmjV3I7Kps+p4wcFHtehQuSd2wRWJS2LXv/mi06XxvVDb18Nspb3uhtKabcHAAAAAAAAAAAAVIW5/z3OBAFDtXcvPMAuVbPp57JltVC8IGRNouuU6PtM15Obm1v0WEIFBXcnrevzR1gjbZ999pEmTcr/w9KoHUr/dhqibujxx0ifHl3DOjHrl4E0GKgtNY0vjtQWqampJiyo+y3e9wXgsvTr01OOPuKw3e4FGwAAALsWDbBccsqxIcNLGi445sB95OxjDzfjM485TPp172T6ntbNGpcIITTyfYlegxOR0tYXPNFqcqE0SEuR4cPOKfVypVXmRlx+ruzbp0dAiKF9y9CBBq3+psEzpYGymDLCQX7+oExZ66P69+wqpx55UMiAiXufdrATUuomFwWVNECit1ee7h3aSPsW7vofuX9/E/wpT/f2bWxPTKW98raSBozuvfpiUxGstPCcp35qilw89Bi57vzTQoZHgmllwDv+eb7s07u7nRNa1/at5Z7/u1g6OPvKfyw0KicAUy+1rtxx5fnm+aFVxMqi+7RHx7YmWKNBulD89x1OlbhwaPjNC0NpoK2Rs012xiF772GqbpUWolVaQfB25znVvHEDU6XL084eQ6XRAOLVZ58csqKZnwaaNKTcoJTKn7qN/++sk0zwL5R2LUNv906tW5hjUB9jeceVPq4LTxwsN1zwj1JDZp6WvkqT9Z1z0s7Sc0+SL/SlAVUNRIbjUF+VP93/A4KqLUaCPm/36NbRjlz9unUuOl+Go32rZib07ReqSmAwve//XnK2OXeWRsOaV581VI4+YO+AMFwTXzjcT4N4/pCd/7UsHPv17WHOO+G87mlAWtfr1kvPLvVc6QUI9fjuUMrrUzB/8L1BvVTbC03PEbc7r5enHXVwuYFtrbp5/MH7yX3O86W856vSdf7vpWeZ19myHOW8vlzvnNf1OeW9Nuk5NdV53QqmFTzL2yd6v3pM6Pm2vNddPX9r4Lu087Jfg7RUZzsNkn+fc7KdAwAAAAAAAAAAAGBn3H777ea796GaBuluvvlm0/d4lfo0lKdza0LzQotZD/3DrJvnySefLAoGhmpnnXWWXXL3sGIkVROj4ZRTTpGBAwfaUXTUr19funTpYkeIlpjBRx9bOH7cWDtEVQn3L2rrl1BmzpsvKSllfwEHtUNmRob07t7FvCCHQwOGegwAAAAAtcF1Dz0vm7fvMH0NJ+mX6Tdu3SY/TZkpq9ZvMm9gaaW3/fv1NGGrYGs3bpa1m7ZIncRENxQUFNxZtnqd7WnIIVXSfKGhyti8bbvsyMgy/bp1kkKum9/8ZStl8co1Zn2yc3KlaaMGskfXjiaw5dmRkSlbd6Sbft3kZLO+wfTNR90uKi42xlRfDIdu06zsXNPX8EM4gZNV6zbK30tXyNI16yQ3N89UbdJwT3lhq/L490m4Vb62O9tm89bt0sY5FsqqmubJyMo2+0hp0MYfVilPZnaOzF601Dz2zVt3SHZurglltWraSHp37mBCHDv7/1ybnMfwx6y/ZZmzTdMzs8zxquHWvXp0CVjHbekZsmWb+7zQMFa4Yb2snByZu2i5zFm8zHn8O8xYA3Ua8OrSrpV0bde63ABOZna2bNi8zfQ1LBNOCKc8etwuX7Pe9HXbhROEKYs+rpnzl8jytevN7epjbO1so316dzOP1bNy3QbbE1Pdz1+Jsywr1m6QmQsWy+oNm2Wrc37SAJNuB91Xfbp0LDeYp/QxT5u3SJauWitrNm4y2123/969upmQU1mynGNQ9+Hcxctli3P/Wc45o35qXWnR2DkGu3RwnoPhH4N6Wxud405pwLasKodl0fPXnS+MtiMxj+OqM0+0o/LNXLDEuY3VJiwb7nmrovS5u955PfDszDnff8zoNtaQcUXoMblg2SrzHNdjp2nDBiYArM9xL4Cck5dXtJ5lnZ9WOudgT0vn/FORwKPfhs1bnWNxoVm37emZUuj80zBk62ZNzTHZqU2Lco8nfU54H35pMFnD0uXJy893Xq82SozzT8N24W5LrTS5cMVqc8zouut+1Qq4up16dmxnzmXhPpeDrXO2u24LfR3S86weI22aNTGBV/+xoq9/Bc7j9Y6B0jaPnn/mLllufhfR1xxdLz1XtHSOcX298FfyDNdq5zV+ytz5ssY5/+hrn77Wp9Wta86bGmhvH2ZVRAAAAAAAAAAAAADlGzZsmPlcUL+b4TX/+JFHHinxeWrMtWPMZ4hxpX2QWEX0E9z8gkJZfNsJ0qFR4Ge4jz/+uPmM1980i+D1b7nlFrtk9Ym9boyzLnZQDq1Qqdt9Z+h1VbjX95Yvz6hRo2yvfHqcVYeqWkc9pl588UU7ipyhQ4dKs2bNZMKECbJgwQI7t2zhPo5wt40WADv77LPtaOeEe18V2Qfh3uaZZ54p9eqV/8fcCQlWMX3SdCznL0573nn/I9k/ymlcVI+/pk2Tk44/xo7KtnDZSokLo6IFAAAAUN1ChQQBADXLk299LFPnFr/hqudqf9VJAAAAAAAAAAAAAABqGw3TzZ49u9SQoPaDg4I/L94gBz35rflDr9WcEzR//FSDditHniit6gf+EVNdby8U6G977bWXHH300Xap6lPRkKCqaFBw5NG9ZcQxfUyfkGDZIrGOFbm/8vjXh5BgSeHeZrghQffPXqNK6Ik4nIBgw0aNZcnKNQQEd2H99tzT7OPmLcqvKNm5XeuwKw8CAAAAAACUZsv2dPlr3kI7ElPRjYAgAAAAAAAAAAAAAKC2u+aaa4rCc/rde3+1Pa8/fPhwM/Uc2LGJ3Hv8Hiag54X0qqvFOP9U65Gfysotmabvuf7664sek7/VhIDgzgo3wKf+uG5wUUAQVUNDbpUNG15yySWVvg1UHJUEq0heXp50ad/Gjkr31+x5Ur9+fTvC7iAzI0N6du1kR6Wbu3CJJCcn2xEAAABQ81BJEABqtpc++lJ+njrLjkQuO/U4OaBfLzsCAAAAAAAAAAAAAKD2mjp1qjz77LNlVhO89tprpV27dvYarlGTFsrl7/5h+lVVUVCDgSr4/rz5i28fIh0a1nUH1n333edc7gYfL7zwQmndurW9pHrtTCVBz8b0bGk6/GMJdfUBbRuagCCqX2ZmpowePdoce2Xp2LGjHHXUUXaE6kBIsIp0aF1+xbjFK1abFx7snrTKZHknTY4RAAAA1GSEBAGg5vp60p/y1pff2ZFI/dQUefTGKySW9xkAAAAAAAAAAAAAALuISy+9tNSAoNd/5JFHSnwnXysJxl33rh3VDKtGniQt6wcWGbr77rtN5uC2226zc6pfZUKCACIr1k4RReUFBLt07Ur4C+YY6NWn7DK4GiQEAAAAAAAoz/tf/yhPvvWRvPH5NzL86f8FBATVaUcdTEAQAAAAAAAAAAAAALBLeemll0yIrqCgwEz9fZ1qu+6668zU79qPptpe1dCwXHmBuVYjP5GVWzLtyDV8+PAaFRAEULMQEoyy8gKCN950i3zz/Y8EBKvJ6acONfuorKa/EFSVseO/keEj7rCj0HSdAAAAAAAAyjJn8TKZOnehTPhtmqxct8HOdXVt31oO3LO3HQEAAAAAAAAAAAAAsOs44YQTQgYE/dPg/MaTP863vejacf9pAeHA8oKCbe74VJZszrAjACgbIcEo+tcVw2wvtBdeelmu+vc1dgS4Lh12ubz+1jtlBkcvPO8c2wMAAABqDv+vsFSnAoDqtXHLNtsL1CAtVf59zsn8wSoAAAAAAAAAAAAAwC7ppJNOMmHA0gKC9913X8Bn5vHXv2t70bPtvlNNIDAlKc7OKVZeULDjnZ/Jmm3ZdgQApSMkGEWff/ap7ZV0+513y9HHHm9HQKBBhxwq9zzwUKlf2Pt+wre2BwAAANQcrZo1sT2Rdq2a2x4AoDq0bl58TvZ079BGhg87W1KSk+0cAAAAAAAAAAAAAAB2PS+//LKZhgoKJgd9Zp5fUGh7JRU8eoYJ8d14WA87J3w3Ht5DCpzr6vXTkuPt3NDKCwq2HPGxrNySaUcAEFrM4KOPLRw/bqwdIlI6tmlpXkRC6dmrt3z5NSGvmuD0U4fKb5Mn21Foi1esrra/rn/6ySfKb7/9ZkclLVm5xvYAAACA6vfhtz/JrIVLJS42Vvbr20OO2G8vewkAoKr9PHWm/DlngWRkZUm7ls2kR4e20r9nV3spAAAAAAAAAAAAAAC7vssuu8xMY2NjTSbgueeeC8gGxFw7xvZK0oBgeTGC35ZtMiHDgR0a2znhmThxogwaNMiOisVeN0ZKiaEYS28fIu0a1rWjmqG8dfYrLwwJoHIICUZBVmam9OzaKWRIUF9QNHSGmqGmhwRVp7atzF8sCGX2/EVSt27NepEHAAAAAAAAAAAAAAAAAAAAAKAm8AcFn3/++aJswMqtmdJm5KemH+zgTk3lh/87XCKdIli/fr08++yzdiQyYsQI2ytWXuhuzZ0nSfO0wGqI1YmQIFBzxNopIqhPj24hA4KKgCAqatHyVaWGFPt072J7AAAAAAAAAAAAAAAAAAAAAADA78UXXzRTf0BQlRYQVD/8K7IBwaeeesoEAp9++mlTQMhrt99+u12iWHkVDFvc/oms2pppRwBQjJBgFOTn59leoCOOPNL2gIo56eRTbC9QaRUGAQAAAAAAAAAAAAAAAAAAAACAGxT0BwT3e+xr2ytp6e1DAkJ6N954o2mrVq2yc8q3du1aue2224raunXrAsKBXtPiVMOHD7fXKlZeULD1yE9l2eYMOwIAV8zgo48tHD9urB2isl7/36syYvh/QpZLXbJyje1VrcGHH2p7JWnJ3C+//rboBe+3XyfJ6aecbPrBrr7mWrnuxpvtqKTc3Fzp16u7ZGSUfLHR+5kyc440qF/fzilbWeusxn/7XcCL9Ffjx8uwiy+wo0BavdFb9vRTTpItW7aavlqxfFnI9fXr1r2H7YX21YTvbS+6OrZpGbJC5S3/vU2uuOoqOwIAAAAAAAAAAAAAAAAAAAAAAKWJvW5MyMyHKnzsDNtzXX/99WaqmQSv+cde3z9V/n5p/PmAe++91/aKlbWeas2dJ0nztGQ7qh7lraNf8LYFEFmEBCOstCBXy1atZNLvU+yoanVo3cL2SkpJTZWZc+ebF6DS1j2YP3Tn2WfPPWT9+nV2VLr4+HiZv2R5uS94Za2z8tYhPz9fOrdrbeeG5l/f/fr3M6n8SKqq8OchB+4vS5cssaNA1RVABQAAAAAAAAAAAAAAAAAAAACgtqhIQPCaa64xU80j+Jt/ntf3lNYP5s9ueP3777+/xHXKC+GtHHmitKpfx46qHiFBoOaItVNEQGZmpu2V9OMvv9pezRRuQFAFL9upbauwAoIqLy9PunZoG/Z9lUVvq0v7Nna06/v2+x9L/SUhJzvb9gAAAAAAAAAAAAAAAAAAAAAAQEXUTYyzPde6deukoKCgQk1zEqHml9caNWokDzzwQMi8QMGjZzjz7SCE1iM/leVbMuwIwO6MkGAErV69yvZKik9IsL2apyIBQY93HZ3qi1JFaLhvyp9/2NHOi1TYsLYo6xhaVcaxBwAAAAAAAAAAAAAAAAAAAADA7q6sqnfpD5xme64777yzRJgvuOXn54ec+i8vb96DDz4oN998s73X0MoLCra74zNZvS3LjgDsrggJRtCC+fNtr/ZI37HD9iru808/tr2KO/WkIZUK+O1MsHFXtm5teJUcAQAAAAAAAAAAAAAAAAAAAADY3fyyeINIKRGEkcf0sT3X7bffXiLc57XS5nst1OVeMNB/2cMPP2xauDQoWJZWIz6RlVsy7QjA7ihm8NHHFo4fN9YOURlvjX5Dbr3lppDhtSUr19he1evQuoXt1SyLV6wOWQ5XRXKd/fezX/9+snbtWtOPlKrct6WFI1985X9y1NHH2BEAAAAAAAAAAAAAAAAAAAAAAPCUVUWw8LHAAN7ll19upppD8LIIXt8/DjVV/r7fVVddJV27drWjnRNz7RjbC23ZiCHStkFdOwKwOyEkGEG1PSQ4+p135aCDB9lRxYN6fy9eJomJiaY//a9pcuJxZYfWjjhqsLz06mshXwB3JiR48imnyoHO+q9bt07eevMNWbFsmZnvDwl+PX6cZGVnm7564tGHy60A+eSzz5f6Iq2GnHiS7UVfaSHBUS+/KoOPOdaOAAAAAAAAAAAAAAAAAAAAAACAqvefD2R7Vp4dBcp+6B+SGB9rRyVpsC8vL89kCrxcQXDfP1VePz4+Xh555JGAyyKhvKDgypEnSav6yXYEYHdBSDCCvv9uglx03jm1MiS4cNlKiYuLs6Ni4Yb1QlUFfP65Z+T+u++yo9BKqyYY7v3GxsbKouWr7KjiTj91qPw2ebIdhVZWxcOqVlpI8H9vvCWHHn64HQEAAAAAAAAAAAAAAAAAAAAAAFWRKoLh2rFjh+Tk5Ji+FltKTU01/apSXlBwxYgTpXWDOnYEYHdQetwZFdatW3fbq1323W9/E7bbWTPm/B0yRHfFlVfZXnToOmu4ESINGzWyPQAAAAAAAAAAAAAAAAAAAAAAoKIREFQaCmzUqJFpVR0QVOWte5s7PpUVWzLtCMDugJBgBDVt2tT2SsrJyba9QIXpObLl6R/tqHqM+eCjUivl6QtWeVLT0myvamlAsKZU+KsKWqK4NM1bNLc9AAAAAAAAAAAAAAAAAAAAAABQltTEeNurvcoLCra941NZSVAQ2G0QEoyghMRE2ytpwB59bC/Q4g53yaaR452zcynR9GrWsVMn2wutT989bK9qNWzY0PZ2HycPOd45TEIfJy1atLQ9AAAAAAAAAAAAAAAAAAAAAABQVhXB7Q+canu1WzgVBQkKArsHQoIR9tyol0JWt9u+fbvtFdt0Z/WHA+Piy06/N27c2PZCO+W0f5RZzS9alf7eeGvMblVFUM2cMd32Al10yWW2BwAAAAAAAAAAAAAAAAAAAAAARv+xVKSUuMZXVx5qe7sGDQqWFa/QoODqbVl2BGBXRUgwwo457njbK6l/v96259ry1E+2J5I7b73tVa3EhATbCy0xKdn2Qjty8GDbC620yneV1btvX9vbPbw06oVSt+WIO++yPQAAAAAAAAAAAAAAAAAAAAAAcP5bk0vLCMqRXZvb3q6j4NGyg4KtRnwiq7ZSURDYlRESjIIGDRrYXqBNGzZKQX6+6S9qeltAFcEVRzxbLVUF4+LibC+02NiyD5G2bdvZHqLpnjtH2h4AAAAAAAAAAAAAAAAAAAAAADj2hYkSc+2YkK20eEZ5YbpI2LFjhyxatEi2bNli51SN8h5b65FUFAR2ZYQEo+CPv2Y6J9bQZ9ZO7VpL4Y7sEoHAwuw826taVR9LREX17tal1CqCP/w82fYAAAAAAAAAAAAAAAAAAAAAANj1xV7nBgHHzV1t51S/b775Rh555BF56qmnZPTo0TJhwgT56KOP5LXXXpPXX39d3n77bbtkdIVTUXDNdoKCwK6IkGAUaHW+hIQEOyppaYe7bS9Q3urttge4Rr/2P8nISLejktp36GB7AAAAAAAAAAAAAAAAAAAAAADs2jQgWFqVwPJEq4rg3XffLVOnTjU5Em2JiYmSlJQkycnJRS02NlbeeustycuLfoGp8h5ny9s/kVUhKgqu3Z4lN376l4yfu0Zy8grsXAC1BSHBKPl78TLbC3RR3t5SUEr9vpXHvkBpPxTREsO33fqfUqsIzvp7oe0BAAAAAAAAAAAAAAAAAAAAALDr0q/Vx1678wFB1fz2jyt1/VDuuOMOiY+PL2peSDBUUFDbBx98INu3R7/AVHlBwdYjPpHV27Ik4fp3TVVGbS1u/0Qe/m6uHPPCD5J043tF8wHUDoQEo+ixJ5+2PZeGA8/L39OOSspfudX5SUqwKmkavyYqKCiQvj26lhoQbNKkiaSkpNgRAAAAAAAAAAAAAAAAAAAAAAC7rrjrx5Satsh5+B9S+NgZRe2ADo3tJYHW78iW+yfMsaPKu/XWW00mQVtcXFxAWNALCXpBQZ3qPA0Rfv755/YWoqu8oGCrEZ9IXkH5GRbCgkDtQEgwik4+9bSAENqX2RfaXukKduTYHqpC02bNbK/myMzMlM7tWpcaEFR//DXT9gAAAAAAAAAAAAAAAAAAAAAA2HXFXhe6gqAXCkyIC4zG/PzvI838VvWT7Zxi//18ekSqCb7yyitFAUF/84cFNRDoVRDUkKCOvcveeOMNe0vRVV5QsCIICgI1GyHBKFu0fJWZphQmSB1JMP2yrDzkKYoJVqGjjjza9mqGObNnSs8uHcsMCC5esdr2AAAAAAAAAAAAAAAAAAAAAADY/Wj4rTwrR54kjw3dU4Izcho6rKw5c9yKhDExMUVNQ4L+vgYGvaCgTnXsX6aqhLOtwkVQEKi5CAlWgSUr18hnORfYUdlyl21xfpISrCrHDxlie6Xr2KaldGjdImQ78rBBdqnKu/pf/5RjjzrSjkL7+bc/qvSXAQAAAAAAAAAAAAAAAAAAAAAAqkuoKoIVqY53zSHdpURKMIL8BYKCiwXpWFtBQYFp3tjz559/2l70aWXFSGk14hPbA1CTEBKsAhtv+dz2UNPExcfb3s5JTipZfnhndGzbSj796EM7Cu2ZF16U1q3b2BEAAAAAAAAAAAAAAAAAAAAAALuXUWfsE3ZA0BMqVPjR9BW2V3FffvllUeAvuHmBwPz8fMnLy5Ps7GzJzMyU3NxcM9b52nSZqgwJRtLqbVm2B6AmISRYBba+NNn2wrPmnNG2h6oQF1e5oGBlLFywwFQkLHRe4Mvy2JNPy/EnlF/1EAAAAAAAAAAAAAAAAAAAAACAXUFBYaFIUBXBS/frZHuVc8qrP9texa1ataooDOgPBXpNw4AaCszJyTEhwaysLNN07A8KaqutDnvmO9sDUFMQEoyyRU2G2174Mr6aZ3uoCguX7fxfAKgMDQcecchBdlS6dz/8RE4+9TQ7AgAAAPD/7d1LaFxlFAfwb5Imaca0ivRhLYpIbRF84msrSi3qSg26cFko3ZSSKhYUMSix1IrdCMVudVONCKJiwaIudOErPvBBm1pfVdFqq8ZOkiYZc9PvxjSdNo+5Se80vx8cvnMu984MQ2Cy+XMAAAAAAAAAAICz33d/Ho1d9W5ZsSR22agUEEzDgWlAMA0JppVeS++ZzZDgOQ91xi4b73T/FjsgL4QEZ1C5fyB25N0HXZ/HLl++7j4QbrzppjgBAAAAAAAAAAAAAMDc8Nz73eMXCU5bx51XhULsq7V27doTgoFpjQ8IphsES6XSyDk2KJjcnwQMZ8vRY7W7tRCYHCHBGXTgwvbYTd0/L3wcO2bDkiVLwncHfw1XXX1NvDLzHm1/PHaVHfjpl9Dc3BwnAAAAAAAAAAAAAACYO1avuiCzYN+O97ILHCZOFxBMwoBpKDANCKY1Nii4YcOG+GoA1Svctub28u4334gjWTm87e1weOueOE1DoRAu/f2JOFSnp6cndpW1tLTE7mR9fb3DP1Sn3oh4umcT033vaj5zViaTzq+vr68qyHfJ8gti978Lly0L7334yfCfQFb/zgAAAAAAAAAAAAAAQG0ZGCqHxgdePCHcN/TMfUncYsrqNu0K5XEpwfL2+2I3devWrQtNTU2hsbFx9GxoaBitJGuQVJILSKo8/OZJNiGpNFS4efPm+Gozr9C2K3bZqeb7A7Jnk+AMOXbgUGi64eJQv3iaYbbxvz5VSAJ1p6vTaWqaX/GZtCZS6ZmxdSqV7h1bsyH5kS4WixXfP61qN/3t/+Fg7I77cu/+8P5HXQKCAAAAAAAAAAAAAADMafPqCmH8KsEvfv0rdtV59p7rYjc9O3fuHAn6JYG/dDNgWsm2wLHbBNNzbN/W1hZfCSAbNgmeYeX+gTD0d18Y+qc39O/9LZTe/TaU3t4XBr4/EpY+f38o3npZvJOz1SXLl4YrrrgyvLb7rXgFAAAAAAAAAAAAAACotAFwqtsEz3/klXD4aH+cjstiC15XV9dIWHDsFsF58+aNbhGsq6sbqUSySTDdJjg4OBja29tHrs+W4kOdoXRsME7ZsEkQ8kVIEAAAAAAAAAAAAAAAgNzpPtQTVna8HsbmBOvrCuHY0/dOKij4y9+lsPyxV094PpFVwK2zszPs2bNnNCCYhgTTgGBh+EMmZxIOTEOCHR0d8enZVWjbFbvqXbP8vND14Jo4AXlwPJIMAAAAAAAAAAAAAAAAObJiUUsI48KAg0PlkQ2DE3np0x8rBgSTTYRZaW1tDTt27Ah9fX0j1dvbO9qnVSqVRs6NGzeesYBg1gQEIX9sEgQAAAAAAAAAAAAAACC3klBgeXzab9iKRQvCvkfuiNNxn/18JFy7bfdJ4cDEysULwjcP3zE+d5iZ9evXj24RTDcJbtmyJRSLxXjHmfNv/0Bo2fxynKqT1SZGIDtCggAAAAAAAAAAAAAAAORW96GesLLj9YrBv6lItggWZiohWAMKbRNvYJyIgCDkU108AQAAAAAAAAAAAAAAIHdWLGoJPVtbp70BcH5D/ZwPCCaqDfgJCEJ+CQkCAAAAAAAAAAAAAACQa8XG+jC0fepBvz867gqlp1rnfEAwlQT9li1sjtPkCQhCvhVuW3N7efebb8QRAAAAAAAAAAAAAAAA8q3Qtit2lX24aXW4/qLz40QlE32HiSNP3h3ObW6IE5BXQoIAAAAAAAAAAAAAAADUpMGhcvjoxz/DwvkN4fKlC+NVJuto/2DY8tZXoX+wHK+EsHRBU9h086o4AbVASBAAAAAAAAAAAAAAAAAAalRdPAEAAAAAAAAAAAAAAACAGiMkCAAAAAAAAAAAAAAAAAA1SkgQAAAAAAAAAAAAAAAAAGqUkCAAAAAAAAAAAAAAAAAA1CghQQAAAAAAAAAAAAAAAACoSSH8B6Fz10TJnUnBAAAAAElFTkSuQmCC;" vertex="1" parent="1">
          <mxGeometry x="26" y="120" width="1198" height="49.35" as="geometry" />
        </mxCell>
        <mxCell id="7-Hqb6H97nyhliVRLqJK-495" value="Mobile Robot" style="text;html=1;align=center;verticalAlign=middle;resizable=0;points=[];autosize=1;strokeColor=none;fillColor=none;" vertex="1" parent="1">
          <mxGeometry x="75" y="619.9999999999999" width="90" height="30" as="geometry" />
        </mxCell>
      </root>
    </mxGraphModel>
  </diagram>
</mxfile>
